%TF.GenerationSoftware,KiCad,Pcbnew,9.0.5*%
%TF.CreationDate,2026-01-04T16:54:59-06:00*%
%TF.ProjectId,PS-AmperesPCB,50532d41-6d70-4657-9265-735043422e6b,rev?*%
%TF.SameCoordinates,Original*%
%TF.FileFunction,Soldermask,Bot*%
%TF.FilePolarity,Negative*%
%FSLAX46Y46*%
G04 Gerber Fmt 4.6, Leading zero omitted, Abs format (unit mm)*
G04 Created by KiCad (PCBNEW 9.0.5) date 2026-01-04 16:54:59*
%MOMM*%
%LPD*%
G01*
G04 APERTURE LIST*
G04 Aperture macros list*
%AMRoundRect*
0 Rectangle with rounded corners*
0 $1 Rounding radius*
0 $2 $3 $4 $5 $6 $7 $8 $9 X,Y pos of 4 corners*
0 Add a 4 corners polygon primitive as box body*
4,1,4,$2,$3,$4,$5,$6,$7,$8,$9,$2,$3,0*
0 Add four circle primitives for the rounded corners*
1,1,$1+$1,$2,$3*
1,1,$1+$1,$4,$5*
1,1,$1+$1,$6,$7*
1,1,$1+$1,$8,$9*
0 Add four rect primitives between the rounded corners*
20,1,$1+$1,$2,$3,$4,$5,0*
20,1,$1+$1,$4,$5,$6,$7,0*
20,1,$1+$1,$6,$7,$8,$9,0*
20,1,$1+$1,$8,$9,$2,$3,0*%
%AMHorizOval*
0 Thick line with rounded ends*
0 $1 width*
0 $2 $3 position (X,Y) of the first rounded end (center of the circle)*
0 $4 $5 position (X,Y) of the second rounded end (center of the circle)*
0 Add line between two ends*
20,1,$1,$2,$3,$4,$5,0*
0 Add two circle primitives to create the rounded ends*
1,1,$1,$2,$3*
1,1,$1,$4,$5*%
%AMFreePoly0*
4,1,22,0.945671,0.830970,1.026777,0.776777,1.080970,0.695671,1.100000,0.600001,1.100000,-0.600001,1.080970,-0.695671,1.026777,-0.776777,0.945671,-0.830970,0.850000,-0.850000,-0.596447,-0.850000,-0.692118,-0.830970,-0.773224,-0.776777,-1.026777,-0.523224,-1.080970,-0.442118,-1.099999,-0.346447,-1.100000,0.600001,-1.080970,0.695671,-1.026777,0.776777,-0.945671,0.830970,-0.850000,0.850000,
0.850000,0.850000,0.945671,0.830970,0.945671,0.830970,$1*%
G04 Aperture macros list end*
%ADD10C,0.000000*%
%ADD11R,1.700000X1.700000*%
%ADD12C,1.700000*%
%ADD13C,1.300000*%
%ADD14RoundRect,0.250000X-0.600000X0.850000X-0.600000X-0.850000X0.600000X-0.850000X0.600000X0.850000X0*%
%ADD15O,1.700000X2.200000*%
%ADD16RoundRect,0.250000X0.600000X-0.850000X0.600000X0.850000X-0.600000X0.850000X-0.600000X-0.850000X0*%
%ADD17C,3.600000*%
%ADD18C,5.600000*%
%ADD19C,0.650000*%
%ADD20O,1.000000X2.100000*%
%ADD21O,1.000000X1.800000*%
%ADD22C,2.604000*%
%ADD23FreePoly0,45.000000*%
%ADD24HorizOval,1.700000X0.176777X0.176777X-0.176777X-0.176777X0*%
%ADD25C,6.300000*%
%ADD26C,12.600000*%
G04 APERTURE END LIST*
D10*
%TO.C,LOGO1*%
G36*
X137800766Y-116414689D02*
G01*
X137814161Y-117813200D01*
X136477848Y-117813200D01*
X135141536Y-117813199D01*
X135141536Y-117562259D01*
X135141536Y-117311319D01*
X136162072Y-117297676D01*
X137182607Y-117284033D01*
X137207806Y-116150105D01*
X137233004Y-115016176D01*
X137510187Y-115016176D01*
X137787369Y-115016176D01*
X137800766Y-116414689D01*
G37*
G36*
X126358600Y-116142168D02*
G01*
X126358600Y-116847724D01*
X125577449Y-116847724D01*
X124796299Y-116847724D01*
X124796299Y-117099708D01*
X124796299Y-117351692D01*
X125577449Y-117351692D01*
X126358600Y-117351692D01*
X126358600Y-117578478D01*
X126358600Y-117805263D01*
X125350664Y-117805263D01*
X124342727Y-117805263D01*
X124342727Y-117099708D01*
X124342727Y-116394152D01*
X125123878Y-116394152D01*
X125905029Y-116394152D01*
X125905029Y-116142168D01*
X125905029Y-115890184D01*
X125123878Y-115890184D01*
X124342727Y-115890184D01*
X124342727Y-115663398D01*
X124342727Y-115436613D01*
X125350664Y-115436614D01*
X126358600Y-115436613D01*
X126358600Y-116142168D01*
G37*
G36*
X131628610Y-115000305D02*
G01*
X131704819Y-115049709D01*
X131746829Y-115152980D01*
X131766539Y-115325755D01*
X131775849Y-115583674D01*
X131790147Y-116124906D01*
X132873679Y-116124906D01*
X133957211Y-116124906D01*
X133971753Y-115623761D01*
X133977724Y-115487001D01*
X133994549Y-115284443D01*
X134017325Y-115131773D01*
X134042872Y-115054444D01*
X134048237Y-115048620D01*
X134156810Y-115006061D01*
X134355909Y-115001225D01*
X134612369Y-115016176D01*
X134625770Y-116417114D01*
X134639171Y-117818051D01*
X134323389Y-117803026D01*
X134007607Y-117788001D01*
X133993349Y-117220058D01*
X133979089Y-116652116D01*
X132884618Y-116665694D01*
X131790148Y-116679271D01*
X131775897Y-117246236D01*
X131761648Y-117813200D01*
X131434922Y-117813199D01*
X131108196Y-117813200D01*
X131121592Y-116414688D01*
X131134988Y-115016176D01*
X131331772Y-115000070D01*
X131506302Y-114989130D01*
X131628610Y-115000305D01*
G37*
G36*
X130353838Y-116428247D02*
G01*
X130353838Y-117813200D01*
X130026258Y-117813200D01*
X129698679Y-117813200D01*
X129698679Y-117384827D01*
X129698679Y-116956454D01*
X128744797Y-116956454D01*
X127790914Y-116956454D01*
X127686464Y-117089242D01*
X127636702Y-117167552D01*
X127594258Y-117310912D01*
X127582012Y-117517615D01*
X127582012Y-117813200D01*
X127248268Y-117813200D01*
X126914524Y-117813199D01*
X126936162Y-117360629D01*
X126937966Y-117324105D01*
X126953284Y-117106834D01*
X126976370Y-116961975D01*
X127013037Y-116864551D01*
X127069101Y-116789585D01*
X127078312Y-116779772D01*
X127145303Y-116699582D01*
X127145470Y-116647276D01*
X127081229Y-116581360D01*
X127037177Y-116526166D01*
X126966905Y-116365548D01*
X126916412Y-116157005D01*
X126898985Y-115992662D01*
X127556814Y-115992662D01*
X127557193Y-116027698D01*
X127581405Y-116219162D01*
X127646747Y-116337293D01*
X127663250Y-116352097D01*
X127713741Y-116380751D01*
X127792459Y-116402085D01*
X127913919Y-116417604D01*
X128092635Y-116428810D01*
X128343118Y-116437207D01*
X128679881Y-116444298D01*
X128681442Y-116444326D01*
X128980255Y-116447719D01*
X129244036Y-116446961D01*
X129456356Y-116442404D01*
X129600781Y-116434398D01*
X129660882Y-116423299D01*
X129666784Y-116412212D01*
X129683059Y-116320574D01*
X129694412Y-116162853D01*
X129698679Y-115965316D01*
X129698679Y-115545343D01*
X128746722Y-115545343D01*
X128491536Y-115545754D01*
X128219360Y-115548323D01*
X128021812Y-115554447D01*
X127883786Y-115565487D01*
X127790177Y-115582801D01*
X127725880Y-115607746D01*
X127675790Y-115641684D01*
X127605190Y-115716397D01*
X127566809Y-115823329D01*
X127556814Y-115992662D01*
X126898985Y-115992662D01*
X126892819Y-115934514D01*
X126903248Y-115732056D01*
X126931907Y-115572332D01*
X126972328Y-115415294D01*
X127029418Y-115291192D01*
X127113692Y-115195921D01*
X127235666Y-115125378D01*
X127405856Y-115075457D01*
X127634777Y-115042056D01*
X127932945Y-115021069D01*
X128310875Y-115008393D01*
X128779083Y-114999924D01*
X129102211Y-114996080D01*
X129439596Y-114994306D01*
X129735753Y-114995103D01*
X129975795Y-114998349D01*
X130144836Y-115003926D01*
X130227993Y-115011709D01*
X130353838Y-115043295D01*
X130353838Y-115965316D01*
X130353838Y-116428247D01*
G37*
%TD*%
D11*
%TO.C,J4*%
X155624834Y-105242026D03*
D12*
X155624834Y-102702026D03*
%TD*%
D13*
%TO.C,J3*%
X155042405Y-125149182D03*
D14*
X158792405Y-126489183D03*
D15*
X156292405Y-126489183D03*
X153792405Y-126489183D03*
X151292405Y-126489183D03*
%TD*%
D11*
%TO.C,TP9*%
X146468159Y-97825412D03*
%TD*%
%TO.C,TP8*%
X133394129Y-128142735D03*
%TD*%
D13*
%TO.C,J7*%
X158568576Y-62160325D03*
D16*
X154818576Y-60820324D03*
D15*
X157318576Y-60820324D03*
X159818576Y-60820324D03*
X162318576Y-60820324D03*
X164818576Y-60820324D03*
%TD*%
D17*
%TO.C,H1*%
X189110192Y-58817750D03*
D18*
X189110192Y-58817750D03*
%TD*%
D19*
%TO.C,J5*%
X169155035Y-125136865D03*
X174935035Y-125136865D03*
D20*
X167725035Y-124636865D03*
D21*
X167725035Y-128816865D03*
D20*
X176365035Y-124636865D03*
D21*
X176365035Y-128816865D03*
%TD*%
D22*
%TO.C,F2*%
X188921400Y-69247600D03*
X185521400Y-69247600D03*
X188921400Y-79167600D03*
X185521400Y-79167600D03*
%TD*%
D11*
%TO.C,TP15*%
X183491102Y-128142735D03*
%TD*%
D13*
%TO.C,J8*%
X175885800Y-62166201D03*
D16*
X172135800Y-60826200D03*
D15*
X174635800Y-60826200D03*
X177135800Y-60826200D03*
X179635800Y-60826200D03*
X182135800Y-60826200D03*
%TD*%
D11*
%TO.C,JP1*%
X169002800Y-104415200D03*
D12*
X171542800Y-104415200D03*
%TD*%
D11*
%TO.C,TP1*%
X125949083Y-108648912D03*
%TD*%
D17*
%TO.C,H2*%
X126067218Y-80636474D03*
D18*
X126067218Y-80636474D03*
%TD*%
D17*
%TO.C,H3*%
X126067218Y-127652336D03*
D18*
X126067218Y-127652336D03*
%TD*%
D17*
%TO.C,H4*%
X189120467Y-127650141D03*
D18*
X189120467Y-127650141D03*
%TD*%
D13*
%TO.C,J6*%
X145512800Y-60854200D03*
D23*
X145576440Y-59022793D03*
D24*
X147344207Y-60790560D03*
%TD*%
D25*
%TO.C,R39*%
X115747420Y-70054231D03*
X135687831Y-50113820D03*
D26*
X104504422Y-81297229D03*
X146930829Y-38870822D03*
%TD*%
M02*
