%TF.GenerationSoftware,KiCad,Pcbnew,9.0.5*%
%TF.CreationDate,2026-01-04T16:54:55-06:00*%
%TF.ProjectId,PS-AmperesPCB,50532d41-6d70-4657-9265-735043422e6b,rev?*%
%TF.SameCoordinates,Original*%
%TF.FileFunction,Soldermask,Top*%
%TF.FilePolarity,Negative*%
%FSLAX46Y46*%
G04 Gerber Fmt 4.6, Leading zero omitted, Abs format (unit mm)*
G04 Created by KiCad (PCBNEW 9.0.5) date 2026-01-04 16:54:55*
%MOMM*%
%LPD*%
G01*
G04 APERTURE LIST*
G04 Aperture macros list*
%AMRoundRect*
0 Rectangle with rounded corners*
0 $1 Rounding radius*
0 $2 $3 $4 $5 $6 $7 $8 $9 X,Y pos of 4 corners*
0 Add a 4 corners polygon primitive as box body*
4,1,4,$2,$3,$4,$5,$6,$7,$8,$9,$2,$3,0*
0 Add four circle primitives for the rounded corners*
1,1,$1+$1,$2,$3*
1,1,$1+$1,$4,$5*
1,1,$1+$1,$6,$7*
1,1,$1+$1,$8,$9*
0 Add four rect primitives between the rounded corners*
20,1,$1+$1,$2,$3,$4,$5,0*
20,1,$1+$1,$4,$5,$6,$7,0*
20,1,$1+$1,$6,$7,$8,$9,0*
20,1,$1+$1,$8,$9,$2,$3,0*%
%AMHorizOval*
0 Thick line with rounded ends*
0 $1 width*
0 $2 $3 position (X,Y) of the first rounded end (center of the circle)*
0 $4 $5 position (X,Y) of the second rounded end (center of the circle)*
0 Add line between two ends*
20,1,$1,$2,$3,$4,$5,0*
0 Add two circle primitives to create the rounded ends*
1,1,$1,$2,$3*
1,1,$1,$4,$5*%
%AMFreePoly0*
4,1,22,0.945671,0.830970,1.026777,0.776777,1.080970,0.695671,1.100000,0.600001,1.100000,-0.600001,1.080970,-0.695671,1.026777,-0.776777,0.945671,-0.830970,0.850000,-0.850000,-0.596447,-0.850000,-0.692118,-0.830970,-0.773224,-0.776777,-1.026777,-0.523224,-1.080970,-0.442118,-1.099999,-0.346447,-1.100000,0.600001,-1.080970,0.695671,-1.026777,0.776777,-0.945671,0.830970,-0.850000,0.850000,
0.850000,0.850000,0.945671,0.830970,0.945671,0.830970,$1*%
G04 Aperture macros list end*
%ADD10RoundRect,0.237500X0.300000X0.237500X-0.300000X0.237500X-0.300000X-0.237500X0.300000X-0.237500X0*%
%ADD11RoundRect,0.237500X0.250000X0.237500X-0.250000X0.237500X-0.250000X-0.237500X0.250000X-0.237500X0*%
%ADD12RoundRect,0.250000X-0.300000X-0.300000X0.300000X-0.300000X0.300000X0.300000X-0.300000X0.300000X0*%
%ADD13R,1.700000X1.700000*%
%ADD14C,1.700000*%
%ADD15RoundRect,0.237500X-0.300000X-0.237500X0.300000X-0.237500X0.300000X0.237500X-0.300000X0.237500X0*%
%ADD16R,1.000000X1.000000*%
%ADD17RoundRect,0.237500X0.237500X-0.300000X0.237500X0.300000X-0.237500X0.300000X-0.237500X-0.300000X0*%
%ADD18RoundRect,0.237500X-0.237500X0.250000X-0.237500X-0.250000X0.237500X-0.250000X0.237500X0.250000X0*%
%ADD19RoundRect,0.250000X-0.600000X0.850000X-0.600000X-0.850000X0.600000X-0.850000X0.600000X0.850000X0*%
%ADD20O,1.700000X2.200000*%
%ADD21RoundRect,0.087500X0.087500X-0.337500X0.087500X0.337500X-0.087500X0.337500X-0.087500X-0.337500X0*%
%ADD22R,2.400000X1.650000*%
%ADD23RoundRect,0.102000X0.500000X0.375000X-0.500000X0.375000X-0.500000X-0.375000X0.500000X-0.375000X0*%
%ADD24RoundRect,0.250000X0.600000X-0.850000X0.600000X0.850000X-0.600000X0.850000X-0.600000X-0.850000X0*%
%ADD25RoundRect,0.237500X-0.287500X-0.237500X0.287500X-0.237500X0.287500X0.237500X-0.287500X0.237500X0*%
%ADD26RoundRect,0.237500X0.237500X-0.287500X0.237500X0.287500X-0.237500X0.287500X-0.237500X-0.287500X0*%
%ADD27RoundRect,0.237500X-0.250000X-0.237500X0.250000X-0.237500X0.250000X0.237500X-0.250000X0.237500X0*%
%ADD28C,3.600000*%
%ADD29C,5.600000*%
%ADD30RoundRect,0.237500X-0.237500X0.300000X-0.237500X-0.300000X0.237500X-0.300000X0.237500X0.300000X0*%
%ADD31RoundRect,0.250000X-0.475000X0.337500X-0.475000X-0.337500X0.475000X-0.337500X0.475000X0.337500X0*%
%ADD32RoundRect,0.150000X-0.150000X-0.425000X0.150000X-0.425000X0.150000X0.425000X-0.150000X0.425000X0*%
%ADD33RoundRect,0.075000X-0.075000X-0.500000X0.075000X-0.500000X0.075000X0.500000X-0.075000X0.500000X0*%
%ADD34O,1.000000X2.100000*%
%ADD35O,1.000000X1.800000*%
%ADD36R,1.200000X0.450000*%
%ADD37R,1.200000X0.600000*%
%ADD38RoundRect,0.250000X-0.337500X-0.475000X0.337500X-0.475000X0.337500X0.475000X-0.337500X0.475000X0*%
%ADD39RoundRect,0.237500X0.237500X-0.250000X0.237500X0.250000X-0.237500X0.250000X-0.237500X-0.250000X0*%
%ADD40RoundRect,0.250000X-0.300000X0.300000X-0.300000X-0.300000X0.300000X-0.300000X0.300000X0.300000X0*%
%ADD41RoundRect,0.237500X0.287500X0.237500X-0.287500X0.237500X-0.287500X-0.237500X0.287500X-0.237500X0*%
%ADD42R,1.528000X0.650000*%
%ADD43C,2.604000*%
%ADD44R,1.850000X0.650000*%
%ADD45R,0.300000X0.850000*%
%ADD46R,0.850000X0.300000*%
%ADD47R,2.550000X2.550000*%
%ADD48RoundRect,0.102000X0.500000X0.800000X-0.500000X0.800000X-0.500000X-0.800000X0.500000X-0.800000X0*%
%ADD49RoundRect,0.175000X-0.175000X-0.325000X0.175000X-0.325000X0.175000X0.325000X-0.175000X0.325000X0*%
%ADD50RoundRect,0.150000X-0.200000X-0.150000X0.200000X-0.150000X0.200000X0.150000X-0.200000X0.150000X0*%
%ADD51RoundRect,0.150000X0.150000X-0.512500X0.150000X0.512500X-0.150000X0.512500X-0.150000X-0.512500X0*%
%ADD52RoundRect,0.225000X0.225000X0.375000X-0.225000X0.375000X-0.225000X-0.375000X0.225000X-0.375000X0*%
%ADD53RoundRect,0.250000X0.475000X-0.337500X0.475000X0.337500X-0.475000X0.337500X-0.475000X-0.337500X0*%
%ADD54RoundRect,0.237500X-0.237500X0.287500X-0.237500X-0.287500X0.237500X-0.287500X0.237500X0.287500X0*%
%ADD55RoundRect,0.250000X0.250000X0.250000X-0.250000X0.250000X-0.250000X-0.250000X0.250000X-0.250000X0*%
%ADD56RoundRect,0.150000X-0.150000X0.825000X-0.150000X-0.825000X0.150000X-0.825000X0.150000X0.825000X0*%
%ADD57RoundRect,0.075000X-0.075000X0.662500X-0.075000X-0.662500X0.075000X-0.662500X0.075000X0.662500X0*%
%ADD58RoundRect,0.075000X-0.662500X0.075000X-0.662500X-0.075000X0.662500X-0.075000X0.662500X0.075000X0*%
%ADD59R,2.100000X1.000000*%
%ADD60RoundRect,0.375000X-0.625000X-0.375000X0.625000X-0.375000X0.625000X0.375000X-0.625000X0.375000X0*%
%ADD61RoundRect,0.500000X-0.500000X-1.400000X0.500000X-1.400000X0.500000X1.400000X-0.500000X1.400000X0*%
%ADD62R,1.160000X1.820000*%
%ADD63RoundRect,0.250000X-2.500000X1.750000X-2.500000X-1.750000X2.500000X-1.750000X2.500000X1.750000X0*%
%ADD64RoundRect,0.250000X0.337500X0.475000X-0.337500X0.475000X-0.337500X-0.475000X0.337500X-0.475000X0*%
%ADD65RoundRect,0.225000X-0.375000X0.225000X-0.375000X-0.225000X0.375000X-0.225000X0.375000X0.225000X0*%
%ADD66R,1.475000X0.450000*%
%ADD67R,2.460000X3.550000*%
%ADD68RoundRect,0.250000X0.700000X0.950000X-0.700000X0.950000X-0.700000X-0.950000X0.700000X-0.950000X0*%
%ADD69RoundRect,0.175000X-0.325000X-0.175000X0.325000X-0.175000X0.325000X0.175000X-0.325000X0.175000X0*%
%ADD70RoundRect,0.102000X-0.500000X-0.800000X0.500000X-0.800000X0.500000X0.800000X-0.500000X0.800000X0*%
%ADD71FreePoly0,45.000000*%
%ADD72HorizOval,1.700000X0.176777X0.176777X-0.176777X-0.176777X0*%
%ADD73C,6.300000*%
%ADD74C,12.600000*%
G04 APERTURE END LIST*
D10*
%TO.C,C28*%
X145326354Y-124271981D03*
X143601352Y-124271981D03*
%TD*%
D11*
%TO.C,R31*%
X165723364Y-69195673D03*
X163898364Y-69195673D03*
%TD*%
D12*
%TO.C,D16*%
X130411473Y-103895682D03*
X133211471Y-103895682D03*
%TD*%
D13*
%TO.C,J4*%
X155624834Y-105242026D03*
D14*
X155624834Y-102702026D03*
%TD*%
D15*
%TO.C,C27*%
X144746715Y-102688903D03*
X146471717Y-102688903D03*
%TD*%
D16*
%TO.C,TP16*%
X141306474Y-85899161D03*
%TD*%
%TO.C,TP10*%
X131616885Y-78354800D03*
%TD*%
D17*
%TO.C,C24*%
X140772367Y-108650232D03*
X140772367Y-106925230D03*
%TD*%
D18*
%TO.C,R17*%
X162285267Y-103451900D03*
X162285267Y-105276900D03*
%TD*%
D19*
%TO.C,J3*%
X158792405Y-126489183D03*
D20*
X156292405Y-126489183D03*
X153792405Y-126489183D03*
X151292405Y-126489183D03*
%TD*%
D21*
%TO.C,U3*%
X183102099Y-103475400D03*
X183752099Y-103475400D03*
X184402099Y-103475400D03*
X185052099Y-103475400D03*
X185052099Y-100575400D03*
X184402099Y-100575400D03*
X183752099Y-100575400D03*
X183102099Y-100575400D03*
D22*
X184077099Y-102025400D03*
%TD*%
D16*
%TO.C,TP4*%
X150205704Y-97404526D03*
%TD*%
D13*
%TO.C,TP9*%
X146468159Y-97825412D03*
%TD*%
%TO.C,TP8*%
X133394129Y-128142735D03*
%TD*%
D23*
%TO.C,SW1*%
X145037243Y-126577344D03*
X140537243Y-126577344D03*
X145037243Y-128727344D03*
X140537243Y-128727344D03*
%TD*%
D24*
%TO.C,J7*%
X154818576Y-60820324D03*
D20*
X157318576Y-60820324D03*
X159818576Y-60820324D03*
X162318576Y-60820324D03*
X164818576Y-60820324D03*
%TD*%
D16*
%TO.C,TP3*%
X166689249Y-98376108D03*
%TD*%
D25*
%TO.C,D7*%
X133036301Y-111950620D03*
X134786299Y-111950620D03*
%TD*%
D26*
%TO.C,D12*%
X158544276Y-105169662D03*
X158544276Y-103419664D03*
%TD*%
D27*
%TO.C,R19*%
X171824465Y-112197065D03*
X173649465Y-112197065D03*
%TD*%
D28*
%TO.C,H1*%
X189110192Y-58817750D03*
D29*
X189110192Y-58817750D03*
%TD*%
D27*
%TO.C,R2*%
X152599014Y-96658784D03*
X154424014Y-96658784D03*
%TD*%
D17*
%TO.C,C26*%
X137559267Y-108650232D03*
X137559267Y-106925230D03*
%TD*%
D30*
%TO.C,C13*%
X169317890Y-92721416D03*
X169317890Y-94446418D03*
%TD*%
D16*
%TO.C,TP21*%
X154561572Y-93188588D03*
%TD*%
D31*
%TO.C,C10*%
X173653253Y-92776417D03*
X173653253Y-94851417D03*
%TD*%
D15*
%TO.C,FB1*%
X140610600Y-110333400D03*
X142335602Y-110333400D03*
%TD*%
D32*
%TO.C,J5*%
X168845035Y-124061865D03*
X169645035Y-124061865D03*
D33*
X170795035Y-124061866D03*
X171795035Y-124061865D03*
X172295035Y-124061865D03*
X173295035Y-124061866D03*
D32*
X174445035Y-124061865D03*
X175245035Y-124061865D03*
X175245035Y-124061865D03*
X174445035Y-124061865D03*
D33*
X173795035Y-124061865D03*
X172795035Y-124061865D03*
X171295035Y-124061865D03*
X170295035Y-124061865D03*
D32*
X169645035Y-124061865D03*
X168845035Y-124061865D03*
D34*
X167725035Y-124636865D03*
D35*
X167725035Y-128816865D03*
D34*
X176365035Y-124636865D03*
D35*
X176365035Y-128816865D03*
%TD*%
D15*
%TO.C,C36*%
X177427630Y-115375319D03*
X179152632Y-115375319D03*
%TD*%
D18*
%TO.C,R28*%
X139726133Y-65529700D03*
X139726133Y-67354700D03*
%TD*%
D25*
%TO.C,D9*%
X133040285Y-115841706D03*
X134790283Y-115841706D03*
%TD*%
D16*
%TO.C,TP5*%
X128003984Y-121222029D03*
%TD*%
D11*
%TO.C,R13*%
X138661003Y-115841667D03*
X136836003Y-115837744D03*
%TD*%
D18*
%TO.C,R20*%
X173630600Y-108658900D03*
X173630600Y-110483900D03*
%TD*%
D15*
%TO.C,C40*%
X145053483Y-85402123D03*
X146778485Y-85402123D03*
%TD*%
D17*
%TO.C,C23*%
X139165815Y-108650232D03*
X139165815Y-106925230D03*
%TD*%
D10*
%TO.C,C16*%
X180435100Y-101697400D03*
X178710098Y-101697400D03*
%TD*%
D16*
%TO.C,TP2*%
X176862562Y-77702598D03*
%TD*%
D36*
%TO.C,U6*%
X159346950Y-107800297D03*
X159346950Y-108450298D03*
X159346950Y-109100298D03*
X159346950Y-109750299D03*
X161846950Y-109750299D03*
X161846950Y-109100298D03*
X161846950Y-108450298D03*
X161846950Y-107800297D03*
%TD*%
D18*
%TO.C,R26*%
X124960731Y-99972342D03*
X124960731Y-101797342D03*
%TD*%
D31*
%TO.C,C9*%
X175945935Y-92776417D03*
X175945935Y-94851417D03*
%TD*%
D37*
%TO.C,IC1*%
X161594725Y-118747012D03*
X161594724Y-117797012D03*
X161594725Y-116847012D03*
X159094725Y-116847012D03*
X159094725Y-118747012D03*
%TD*%
D16*
%TO.C,TP22*%
X162657800Y-82469600D03*
%TD*%
D38*
%TO.C,C35*%
X177465984Y-113529815D03*
X179540984Y-113529815D03*
%TD*%
D30*
%TO.C,C41*%
X126734131Y-100022341D03*
X126734131Y-101747343D03*
%TD*%
D39*
%TO.C,R22*%
X169378035Y-121544265D03*
X169378035Y-119719265D03*
%TD*%
D40*
%TO.C,D6*%
X175916600Y-85997201D03*
X175916600Y-88797199D03*
%TD*%
D41*
%TO.C,D1*%
X170677422Y-99119704D03*
X168927424Y-99119704D03*
%TD*%
D42*
%TO.C,IC2*%
X135541199Y-76316421D03*
X135541199Y-77586421D03*
X135541199Y-78856421D03*
X135541199Y-80126421D03*
X140963199Y-80126421D03*
X140963199Y-78856421D03*
X140963199Y-77586421D03*
X140963199Y-76316421D03*
%TD*%
D16*
%TO.C,TP13*%
X141826408Y-98399179D03*
%TD*%
D43*
%TO.C,F2*%
X188921400Y-69247600D03*
X185521400Y-69247600D03*
X188921400Y-79167600D03*
X185521400Y-79167600D03*
%TD*%
D11*
%TO.C,R12*%
X138661003Y-113905917D03*
X136836003Y-113898071D03*
%TD*%
D44*
%TO.C,IC3*%
X136918600Y-89784800D03*
X136918600Y-88514800D03*
X136918600Y-87244800D03*
X136918600Y-85974800D03*
X126268600Y-85974800D03*
X126268600Y-87244800D03*
X126268600Y-88514800D03*
X126268600Y-89784800D03*
%TD*%
D45*
%TO.C,U8*%
X170840435Y-117759665D03*
X171340435Y-117759665D03*
X171840435Y-117759665D03*
X172340435Y-117759665D03*
X172840435Y-117759665D03*
X173340435Y-117759665D03*
D46*
X174040435Y-117059665D03*
X174040435Y-116559665D03*
X174040435Y-116059665D03*
X174040435Y-115559665D03*
X174040435Y-115059665D03*
X174040435Y-114559665D03*
D45*
X173340435Y-113859665D03*
X172840435Y-113859665D03*
X172340435Y-113859665D03*
X171840435Y-113859665D03*
X171340435Y-113859665D03*
X170840435Y-113859665D03*
D46*
X170140435Y-114559665D03*
X170140435Y-115059665D03*
X170140435Y-115559665D03*
X170140435Y-116059665D03*
X170140435Y-116559665D03*
X170140435Y-117059665D03*
D47*
X172090435Y-115809665D03*
%TD*%
D48*
%TO.C,SW2*%
X163974448Y-112188619D03*
X162224448Y-114488619D03*
X160474448Y-112188619D03*
%TD*%
D16*
%TO.C,TP18*%
X130173918Y-108568107D03*
%TD*%
D10*
%TO.C,C42*%
X137050500Y-82133021D03*
X135325498Y-82133021D03*
%TD*%
D15*
%TO.C,C37*%
X144997183Y-93693411D03*
X146722185Y-93693411D03*
%TD*%
D10*
%TO.C,C54*%
X165673365Y-72796597D03*
X163948363Y-72796597D03*
%TD*%
D49*
%TO.C,D14*%
X171053406Y-119839826D03*
D50*
X171053406Y-121539826D03*
X173053406Y-121539826D03*
X173053406Y-119639826D03*
%TD*%
D38*
%TO.C,C39*%
X145003284Y-83192324D03*
X147078284Y-83192324D03*
%TD*%
D51*
%TO.C,U9*%
X144821586Y-89836124D03*
X145771585Y-89836124D03*
X146721584Y-89836124D03*
X146721584Y-87561124D03*
X145771585Y-87561124D03*
X144821586Y-87561124D03*
%TD*%
D38*
%TO.C,C5*%
X150119481Y-93170582D03*
X152194481Y-93170582D03*
%TD*%
D12*
%TO.C,D11*%
X155437125Y-114542632D03*
X158237123Y-114542632D03*
%TD*%
D17*
%TO.C,C20*%
X152795310Y-110244098D03*
X152795310Y-108519096D03*
%TD*%
D52*
%TO.C,D13*%
X179765635Y-121214065D03*
X176465635Y-121214065D03*
%TD*%
D38*
%TO.C,C53*%
X168319964Y-80041473D03*
X170394964Y-80041473D03*
%TD*%
D16*
%TO.C,TP19*%
X165680400Y-65578600D03*
%TD*%
D53*
%TO.C,C1*%
X160041600Y-75099700D03*
X160041600Y-73024700D03*
%TD*%
D54*
%TO.C,D4*%
X162042264Y-72689474D03*
X162042264Y-74439472D03*
%TD*%
D41*
%TO.C,D5*%
X190770601Y-115998351D03*
X189020603Y-115998351D03*
%TD*%
D12*
%TO.C,D15*%
X125577700Y-103895682D03*
X128377698Y-103895682D03*
%TD*%
D13*
%TO.C,TP15*%
X183491102Y-128142735D03*
%TD*%
D24*
%TO.C,J8*%
X172135800Y-60826200D03*
D20*
X174635800Y-60826200D03*
X177135800Y-60826200D03*
X179635800Y-60826200D03*
X182135800Y-60826200D03*
%TD*%
D27*
%TO.C,R35*%
X177182564Y-70668873D03*
X179007564Y-70668873D03*
%TD*%
D55*
%TO.C,D17*%
X179167800Y-80107400D03*
X176667802Y-80107400D03*
%TD*%
D27*
%TO.C,R3*%
X130366184Y-121222029D03*
X132191184Y-121222029D03*
%TD*%
D56*
%TO.C,U10*%
X132326731Y-96352442D03*
X131056731Y-96352442D03*
X129786731Y-96352442D03*
X128516731Y-96352442D03*
X128516731Y-101302442D03*
X129786731Y-101302442D03*
X131056731Y-101302442D03*
X132326731Y-101302442D03*
%TD*%
D57*
%TO.C,U5*%
X149757615Y-110261247D03*
X149257615Y-110261247D03*
X148757615Y-110261247D03*
X148257614Y-110261247D03*
X147757615Y-110261247D03*
X147257615Y-110261247D03*
X146757615Y-110261247D03*
X146257615Y-110261247D03*
X145757616Y-110261247D03*
X145257615Y-110261247D03*
X144757615Y-110261247D03*
X144257615Y-110261247D03*
D58*
X142845115Y-111673747D03*
X142845115Y-112173747D03*
X142845115Y-112673747D03*
X142845115Y-113173748D03*
X142845115Y-113673747D03*
X142845115Y-114173747D03*
X142845115Y-114673747D03*
X142845115Y-115173747D03*
X142845115Y-115673746D03*
X142845115Y-116173747D03*
X142845115Y-116673747D03*
X142845115Y-117173747D03*
D57*
X144257615Y-118586247D03*
X144757615Y-118586247D03*
X145257615Y-118586247D03*
X145757616Y-118586247D03*
X146257615Y-118586247D03*
X146757615Y-118586247D03*
X147257615Y-118586247D03*
X147757615Y-118586247D03*
X148257614Y-118586247D03*
X148757615Y-118586247D03*
X149257615Y-118586247D03*
X149757615Y-118586247D03*
D58*
X151170115Y-117173747D03*
X151170115Y-116673747D03*
X151170115Y-116173747D03*
X151170115Y-115673746D03*
X151170115Y-115173747D03*
X151170115Y-114673747D03*
X151170115Y-114173747D03*
X151170115Y-113673747D03*
X151170115Y-113173748D03*
X151170115Y-112673747D03*
X151170115Y-112173747D03*
X151170115Y-111673747D03*
%TD*%
D10*
%TO.C,C46*%
X137653332Y-92066231D03*
X135928330Y-92066231D03*
%TD*%
D15*
%TO.C,C45*%
X139483231Y-92066231D03*
X141208233Y-92066231D03*
%TD*%
D59*
%TO.C,PS1*%
X156725443Y-77909802D03*
X156725443Y-75369802D03*
X156725443Y-70289802D03*
X146625443Y-70289802D03*
X146625443Y-77909802D03*
%TD*%
D13*
%TO.C,JP1*%
X169002800Y-104415200D03*
D14*
X171542800Y-104415200D03*
%TD*%
D10*
%TO.C,C47*%
X126775874Y-94021532D03*
X125050872Y-94021532D03*
%TD*%
D39*
%TO.C,R36*%
X181143064Y-74984973D03*
X181143064Y-73159973D03*
%TD*%
D60*
%TO.C,U4*%
X182363336Y-106015190D03*
X182363337Y-108315190D03*
D61*
X188663335Y-108315190D03*
D60*
X182363336Y-110615190D03*
%TD*%
D27*
%TO.C,R15*%
X155409725Y-116752012D03*
X157234725Y-116752012D03*
%TD*%
D62*
%TO.C,F1*%
X162530204Y-80182435D03*
X165480204Y-80182435D03*
%TD*%
D16*
%TO.C,TP11*%
X131616885Y-82708380D03*
%TD*%
D41*
%TO.C,D2*%
X154386513Y-98284384D03*
X152636515Y-98284384D03*
%TD*%
%TO.C,D19*%
X190732658Y-121182093D03*
X188982660Y-121182093D03*
%TD*%
D18*
%TO.C,R7*%
X163939845Y-92671417D03*
X163939845Y-94496417D03*
%TD*%
D27*
%TO.C,R30*%
X163898364Y-67493873D03*
X165723364Y-67493873D03*
%TD*%
D39*
%TO.C,R18*%
X167984141Y-109658779D03*
X167984141Y-107833779D03*
%TD*%
%TO.C,R23*%
X174686635Y-121567765D03*
X174686635Y-119742765D03*
%TD*%
D27*
%TO.C,R5*%
X185360836Y-115998351D03*
X187185836Y-115998351D03*
%TD*%
D41*
%TO.C,D3*%
X135801784Y-121222029D03*
X134051786Y-121222029D03*
%TD*%
D60*
%TO.C,U1*%
X150538478Y-85954553D03*
X150538479Y-88254553D03*
D61*
X156838477Y-88254553D03*
D60*
X150538478Y-90554553D03*
%TD*%
D39*
%TO.C,R37*%
X179034864Y-74349973D03*
X179034864Y-72524973D03*
%TD*%
D25*
%TO.C,D10*%
X133040285Y-117777475D03*
X134790283Y-117777475D03*
%TD*%
D10*
%TO.C,C25*%
X150281715Y-102688903D03*
X148556713Y-102688903D03*
%TD*%
D63*
%TO.C,L1*%
X183549653Y-86214185D03*
X183549653Y-94714185D03*
%TD*%
D64*
%TO.C,C17*%
X179540837Y-105876790D03*
X177465837Y-105876790D03*
%TD*%
D11*
%TO.C,R10*%
X141743055Y-124271981D03*
X139918055Y-124271981D03*
%TD*%
D31*
%TO.C,C2*%
X160041600Y-77012499D03*
X160041600Y-79087499D03*
%TD*%
D39*
%TO.C,R16*%
X160524200Y-105276900D03*
X160524200Y-103451900D03*
%TD*%
D11*
%TO.C,R11*%
X138664912Y-111961793D03*
X136839912Y-111961793D03*
%TD*%
D38*
%TO.C,C32*%
X177491400Y-117216800D03*
X179566400Y-117216800D03*
%TD*%
D65*
%TO.C,D22*%
X164765703Y-120655593D03*
X164765703Y-123955593D03*
%TD*%
D30*
%TO.C,C12*%
X165732527Y-92721416D03*
X165732527Y-94446418D03*
%TD*%
D16*
%TO.C,TP20*%
X133803400Y-108568107D03*
%TD*%
D39*
%TO.C,R29*%
X141423400Y-67354700D03*
X141423400Y-65529700D03*
%TD*%
D38*
%TO.C,C4*%
X154244984Y-83156126D03*
X156319984Y-83156126D03*
%TD*%
D39*
%TO.C,R4*%
X163845664Y-76356573D03*
X163845664Y-74531573D03*
%TD*%
D18*
%TO.C,R40*%
X143120667Y-65529700D03*
X143120667Y-67354700D03*
%TD*%
D65*
%TO.C,D21*%
X162301903Y-120655593D03*
X162301903Y-123955593D03*
%TD*%
D66*
%TO.C,IC5*%
X174383665Y-75367870D03*
X174383665Y-74717870D03*
X174383665Y-74067870D03*
X174383665Y-73417870D03*
X174383665Y-72767870D03*
X174383665Y-72117870D03*
X174383665Y-71467870D03*
X174383665Y-70817870D03*
X168507665Y-70817870D03*
X168507665Y-71467870D03*
X168507665Y-72117870D03*
X168507665Y-72767870D03*
X168507665Y-73417870D03*
X168507665Y-74067870D03*
X168507665Y-74717870D03*
X168507665Y-75367870D03*
D67*
X171445665Y-73092870D03*
%TD*%
D15*
%TO.C,C55*%
X134207755Y-101795095D03*
X135932757Y-101795095D03*
%TD*%
D10*
%TO.C,C29*%
X157184725Y-118842012D03*
X155459723Y-118842012D03*
%TD*%
D15*
%TO.C,C6*%
X171244099Y-84882600D03*
X172969101Y-84882600D03*
%TD*%
D17*
%TO.C,C30*%
X164046333Y-105226901D03*
X164046333Y-103501899D03*
%TD*%
D16*
%TO.C,TP7*%
X183025059Y-121182093D03*
%TD*%
D39*
%TO.C,R34*%
X164273754Y-118892633D03*
X164273754Y-117067633D03*
%TD*%
D13*
%TO.C,TP1*%
X125949083Y-108648912D03*
%TD*%
D18*
%TO.C,R6*%
X167525208Y-92671417D03*
X167525208Y-94496417D03*
%TD*%
D31*
%TO.C,C34*%
X179679235Y-123394765D03*
X179679235Y-125469765D03*
%TD*%
D68*
%TO.C,Y1*%
X149569615Y-105892447D03*
X145469615Y-105892447D03*
%TD*%
D16*
%TO.C,TP14*%
X141796739Y-95803950D03*
%TD*%
D10*
%TO.C,C15*%
X180435100Y-99792400D03*
X178710098Y-99792400D03*
%TD*%
D30*
%TO.C,C22*%
X150338800Y-120519899D03*
X150338800Y-122244901D03*
%TD*%
D10*
%TO.C,C51*%
X174530163Y-77704671D03*
X172805161Y-77704671D03*
%TD*%
D27*
%TO.C,R24*%
X185322893Y-121182093D03*
X187147893Y-121182093D03*
%TD*%
D39*
%TO.C,R21*%
X171827200Y-110483900D03*
X171827200Y-108658900D03*
%TD*%
D18*
%TO.C,R45*%
X124960731Y-96135042D03*
X124960731Y-97960042D03*
%TD*%
D15*
%TO.C,C43*%
X139426916Y-82121815D03*
X141151918Y-82121815D03*
%TD*%
%TO.C,C52*%
X168264963Y-77704671D03*
X169989965Y-77704671D03*
%TD*%
D18*
%TO.C,R25*%
X132279400Y-69492100D03*
X132279400Y-71317100D03*
%TD*%
D28*
%TO.C,H2*%
X126067218Y-80636474D03*
D29*
X126067218Y-80636474D03*
%TD*%
D17*
%TO.C,C31*%
X165807400Y-105226901D03*
X165807400Y-103501899D03*
%TD*%
D10*
%TO.C,C21*%
X142768501Y-119071000D03*
X141043499Y-119071000D03*
%TD*%
D17*
%TO.C,C49*%
X126734131Y-97910043D03*
X126734131Y-96185041D03*
%TD*%
D31*
%TO.C,C11*%
X171360572Y-92776417D03*
X171360572Y-94851417D03*
%TD*%
D39*
%TO.C,R41*%
X168525200Y-61104400D03*
X168525200Y-59279400D03*
%TD*%
D30*
%TO.C,FB2*%
X142378915Y-106947730D03*
X142378915Y-108672732D03*
%TD*%
D11*
%TO.C,R32*%
X165723364Y-70999073D03*
X163898364Y-70999073D03*
%TD*%
D42*
%TO.C,U2*%
X167802200Y-86711400D03*
X167802200Y-87981400D03*
X167802200Y-89251400D03*
X167802200Y-90521400D03*
X173224200Y-90521400D03*
X173224200Y-89251400D03*
X173224200Y-87981400D03*
X173224200Y-86711400D03*
%TD*%
D12*
%TO.C,D18*%
X168142565Y-68242271D03*
X170942563Y-68242271D03*
%TD*%
D39*
%TO.C,R43*%
X129528131Y-94128640D03*
X129528131Y-92303640D03*
%TD*%
D10*
%TO.C,C48*%
X126790802Y-92324800D03*
X125065800Y-92324800D03*
%TD*%
D28*
%TO.C,H3*%
X126067218Y-127652336D03*
D29*
X126067218Y-127652336D03*
%TD*%
D69*
%TO.C,U7*%
X163819339Y-107870142D03*
X163819339Y-109770142D03*
X166219340Y-108820142D03*
%TD*%
D16*
%TO.C,TP12*%
X137009526Y-95803950D03*
%TD*%
D28*
%TO.C,H4*%
X189120467Y-127650141D03*
D29*
X189120467Y-127650141D03*
%TD*%
D16*
%TO.C,TP6*%
X183063002Y-115998351D03*
%TD*%
%TO.C,TP17*%
X141306474Y-89370597D03*
%TD*%
D15*
%TO.C,C33*%
X177436399Y-119063867D03*
X179161401Y-119063867D03*
%TD*%
D11*
%TO.C,R14*%
X138661003Y-117777417D03*
X136836003Y-117777417D03*
%TD*%
D64*
%TO.C,C7*%
X165671113Y-88776715D03*
X163596113Y-88776715D03*
%TD*%
D27*
%TO.C,R9*%
X187036520Y-103224050D03*
X188861520Y-103224050D03*
%TD*%
%TO.C,R1*%
X168899049Y-97461708D03*
X170724049Y-97461708D03*
%TD*%
D39*
%TO.C,R33*%
X165725264Y-76356573D03*
X165725264Y-74531573D03*
%TD*%
D64*
%TO.C,C3*%
X152234484Y-83156126D03*
X150159484Y-83156126D03*
%TD*%
D70*
%TO.C,SW4*%
X137024537Y-72834590D03*
X138774537Y-70534590D03*
X140524537Y-72834590D03*
%TD*%
D18*
%TO.C,R27*%
X131204531Y-92303640D03*
X131204531Y-94128640D03*
%TD*%
D25*
%TO.C,D8*%
X133040285Y-113905936D03*
X134790283Y-113905936D03*
%TD*%
D39*
%TO.C,R38*%
X177028264Y-74349973D03*
X177028264Y-72524973D03*
%TD*%
D53*
%TO.C,C19*%
X154703113Y-110623415D03*
X154703113Y-108548415D03*
%TD*%
D15*
%TO.C,C14*%
X187113020Y-100624650D03*
X188838022Y-100624650D03*
%TD*%
D27*
%TO.C,R8*%
X178635498Y-103357000D03*
X180460498Y-103357000D03*
%TD*%
D71*
%TO.C,J6*%
X145576440Y-59022793D03*
D72*
X147344207Y-60790560D03*
%TD*%
D10*
%TO.C,C8*%
X165752312Y-86744715D03*
X164027310Y-86744715D03*
%TD*%
D53*
%TO.C,C18*%
X179544735Y-110388690D03*
X179544735Y-108313690D03*
%TD*%
D64*
%TO.C,C50*%
X174462864Y-80041473D03*
X172387864Y-80041473D03*
%TD*%
D15*
%TO.C,C38*%
X144997182Y-91929742D03*
X146722184Y-91929742D03*
%TD*%
D73*
%TO.C,R39*%
X115747420Y-70054231D03*
X135687831Y-50113820D03*
D74*
X104504422Y-81297229D03*
X146930829Y-38870822D03*
%TD*%
M02*
