%TF.GenerationSoftware,KiCad,Pcbnew,9.0.5*%
%TF.CreationDate,2026-01-07T01:22:05-06:00*%
%TF.ProjectId,PS-AmperesPCB,50532d41-6d70-4657-9265-735043422e6b,rev?*%
%TF.SameCoordinates,Original*%
%TF.FileFunction,Copper,L2,Bot*%
%TF.FilePolarity,Positive*%
%FSLAX46Y46*%
G04 Gerber Fmt 4.6, Leading zero omitted, Abs format (unit mm)*
G04 Created by KiCad (PCBNEW 9.0.5) date 2026-01-07 01:22:05*
%MOMM*%
%LPD*%
G01*
G04 APERTURE LIST*
G04 Aperture macros list*
%AMRoundRect*
0 Rectangle with rounded corners*
0 $1 Rounding radius*
0 $2 $3 $4 $5 $6 $7 $8 $9 X,Y pos of 4 corners*
0 Add a 4 corners polygon primitive as box body*
4,1,4,$2,$3,$4,$5,$6,$7,$8,$9,$2,$3,0*
0 Add four circle primitives for the rounded corners*
1,1,$1+$1,$2,$3*
1,1,$1+$1,$4,$5*
1,1,$1+$1,$6,$7*
1,1,$1+$1,$8,$9*
0 Add four rect primitives between the rounded corners*
20,1,$1+$1,$2,$3,$4,$5,0*
20,1,$1+$1,$4,$5,$6,$7,0*
20,1,$1+$1,$6,$7,$8,$9,0*
20,1,$1+$1,$8,$9,$2,$3,0*%
%AMHorizOval*
0 Thick line with rounded ends*
0 $1 width*
0 $2 $3 position (X,Y) of the first rounded end (center of the circle)*
0 $4 $5 position (X,Y) of the second rounded end (center of the circle)*
0 Add line between two ends*
20,1,$1,$2,$3,$4,$5,0*
0 Add two circle primitives to create the rounded ends*
1,1,$1,$2,$3*
1,1,$1,$4,$5*%
%AMFreePoly0*
4,1,22,0.945671,0.830970,1.026777,0.776777,1.080970,0.695671,1.100000,0.600001,1.100000,-0.600001,1.080970,-0.695671,1.026777,-0.776777,0.945671,-0.830970,0.850000,-0.850000,-0.596447,-0.850000,-0.692118,-0.830970,-0.773224,-0.776777,-1.026777,-0.523224,-1.080970,-0.442118,-1.099999,-0.346447,-1.100000,0.600001,-1.080970,0.695671,-1.026777,0.776777,-0.945671,0.830970,-0.850000,0.850000,
0.850000,0.850000,0.945671,0.830970,0.945671,0.830970,$1*%
G04 Aperture macros list end*
%TA.AperFunction,ComponentPad*%
%ADD10R,1.700000X1.700000*%
%TD*%
%TA.AperFunction,ComponentPad*%
%ADD11C,1.700000*%
%TD*%
%TA.AperFunction,ComponentPad*%
%ADD12RoundRect,0.250000X-0.600000X0.850000X-0.600000X-0.850000X0.600000X-0.850000X0.600000X0.850000X0*%
%TD*%
%TA.AperFunction,ComponentPad*%
%ADD13O,1.700000X2.200000*%
%TD*%
%TA.AperFunction,ComponentPad*%
%ADD14RoundRect,0.250000X0.600000X-0.850000X0.600000X0.850000X-0.600000X0.850000X-0.600000X-0.850000X0*%
%TD*%
%TA.AperFunction,ComponentPad*%
%ADD15C,3.600000*%
%TD*%
%TA.AperFunction,ConnectorPad*%
%ADD16C,5.600000*%
%TD*%
%TA.AperFunction,HeatsinkPad*%
%ADD17O,1.000000X2.100000*%
%TD*%
%TA.AperFunction,HeatsinkPad*%
%ADD18O,1.000000X1.800000*%
%TD*%
%TA.AperFunction,ComponentPad*%
%ADD19C,2.400000*%
%TD*%
%TA.AperFunction,ComponentPad*%
%ADD20FreePoly0,45.000000*%
%TD*%
%TA.AperFunction,ComponentPad*%
%ADD21HorizOval,1.700000X0.176777X0.176777X-0.176777X-0.176777X0*%
%TD*%
%TA.AperFunction,ComponentPad*%
%ADD22C,6.300000*%
%TD*%
%TA.AperFunction,ComponentPad*%
%ADD23C,12.600000*%
%TD*%
%TA.AperFunction,ViaPad*%
%ADD24C,0.600000*%
%TD*%
%TA.AperFunction,Conductor*%
%ADD25C,0.250000*%
%TD*%
%TA.AperFunction,Conductor*%
%ADD26C,0.500000*%
%TD*%
%TA.AperFunction,Conductor*%
%ADD27C,0.400000*%
%TD*%
%TA.AperFunction,Conductor*%
%ADD28C,0.150000*%
%TD*%
%TA.AperFunction,Conductor*%
%ADD29C,0.200000*%
%TD*%
G04 APERTURE END LIST*
D10*
%TO.P,J4,1,Pin_1*%
%TO.N,/CAN/CAN1_RX*%
X155624834Y-105242026D03*
D11*
%TO.P,J4,2,Pin_2*%
%TO.N,/CAN/CAN1_TX*%
X155624834Y-102702026D03*
%TD*%
D12*
%TO.P,J3,1,Pin_1*%
%TO.N,+3.3V*%
X158792405Y-126489183D03*
D13*
%TO.P,J3,2,Pin_2*%
%TO.N,/MCU/SWCLK*%
X156292405Y-126489183D03*
%TO.P,J3,3,Pin_3*%
%TO.N,GND*%
X153792405Y-126489183D03*
%TO.P,J3,4,Pin_4*%
%TO.N,/MCU/SWDIO*%
X151292405Y-126489183D03*
%TD*%
D10*
%TO.P,TP9,1,1*%
%TO.N,GND HV*%
X146468159Y-97825412D03*
%TD*%
%TO.P,TP8,1,1*%
%TO.N,GND*%
X133394129Y-128142735D03*
%TD*%
D14*
%TO.P,J7,1,Pin_1*%
%TO.N,/ShieldGND*%
X154818576Y-60820324D03*
D13*
%TO.P,J7,2,Pin_2*%
%TO.N,GND*%
X157318576Y-60820324D03*
%TO.P,J7,3,Pin_3*%
%TO.N,/CAN_LOW*%
X159818576Y-60820324D03*
%TO.P,J7,4,Pin_4*%
%TO.N,/CAN_HIGH*%
X162318576Y-60820324D03*
%TO.P,J7,5,Pin_5*%
%TO.N,+24V_In*%
X164818576Y-60820324D03*
%TD*%
D15*
%TO.P,H1,1*%
%TO.N,N/C*%
X189110192Y-58817750D03*
D16*
X189110192Y-58817750D03*
%TD*%
D17*
%TO.P,J5,S1,SHIELD*%
%TO.N,GND*%
X167725035Y-124636865D03*
D18*
X167725035Y-128816865D03*
D17*
X176365035Y-124636865D03*
D18*
X176365035Y-128816865D03*
%TD*%
D19*
%TO.P,F2,1*%
%TO.N,+24V_In*%
X188921400Y-69247600D03*
X185521400Y-69247600D03*
%TO.P,F2,2*%
%TO.N,+24V_Ext*%
X188921400Y-79167600D03*
X185521400Y-79167600D03*
%TD*%
D10*
%TO.P,TP15,1,1*%
%TO.N,GND*%
X183491102Y-128142735D03*
%TD*%
D14*
%TO.P,J8,1,Pin_1*%
%TO.N,/ShieldGND*%
X172135800Y-60826200D03*
D13*
%TO.P,J8,2,Pin_2*%
%TO.N,GND*%
X174635800Y-60826200D03*
%TO.P,J8,3,Pin_3*%
%TO.N,/CAN_LOW*%
X177135800Y-60826200D03*
%TO.P,J8,4,Pin_4*%
%TO.N,/CAN_HIGH*%
X179635800Y-60826200D03*
%TO.P,J8,5,Pin_5*%
%TO.N,+24V_In*%
X182135800Y-60826200D03*
%TD*%
D10*
%TO.P,JP1,1,A*%
%TO.N,/CAN_LOW*%
X169002800Y-104415200D03*
D11*
%TO.P,JP1,2,B*%
%TO.N,Net-(JP1-B)*%
X171542800Y-104415200D03*
%TD*%
D10*
%TO.P,TP1,1,1*%
%TO.N,/Current Sense/I_OUT*%
X125949083Y-108648912D03*
%TD*%
D15*
%TO.P,H2,1*%
%TO.N,N/C*%
X126067218Y-80636474D03*
D16*
X126067218Y-80636474D03*
%TD*%
D15*
%TO.P,H3,1*%
%TO.N,N/C*%
X126067218Y-127652336D03*
D16*
X126067218Y-127652336D03*
%TD*%
D15*
%TO.P,H4,1*%
%TO.N,N/C*%
X189120467Y-127650141D03*
D16*
X189120467Y-127650141D03*
%TD*%
D20*
%TO.P,J6,1,Pin_1*%
%TO.N,/Current Sense/Scrut+*%
X145576440Y-59022793D03*
D21*
%TO.P,J6,2,Pin_2*%
%TO.N,/Current Sense/Scrut-*%
X147344207Y-60790560D03*
%TD*%
D22*
%TO.P,R39,1,1*%
%TO.N,/Current Sense/SHUNT-*%
X115747420Y-70054231D03*
%TO.P,R39,2,2*%
%TO.N,/Current Sense/SHUNT+*%
X135687831Y-50113820D03*
D23*
%TO.P,R39,MH1,MH1*%
%TO.N,/Current Sense/Battery_GND*%
X104504422Y-81297229D03*
%TO.P,R39,MH2,MH2*%
%TO.N,/Current Sense/Output_GND*%
X146930829Y-38870822D03*
%TD*%
D24*
%TO.N,GND*%
X175048907Y-67055893D03*
X185819800Y-90464185D03*
X161438600Y-85035000D03*
X153894800Y-79548600D03*
X169973000Y-78786600D03*
X156714200Y-79548600D03*
X174138600Y-98243000D03*
X191207400Y-92190357D03*
X171417705Y-86912268D03*
X190420000Y-63876800D03*
X172405800Y-82495000D03*
X131593600Y-87194000D03*
X174845707Y-98950107D03*
X175383200Y-120468000D03*
X124126000Y-123262000D03*
X124126000Y-112086000D03*
X161438600Y-91804100D03*
X160636867Y-56507827D03*
X183813580Y-119439496D03*
X131593600Y-85779786D03*
X191207400Y-105072623D03*
X182819800Y-90464185D03*
X189404000Y-119452000D03*
X161438600Y-95188650D03*
X172204200Y-76089359D03*
X179104470Y-56507827D03*
X156431679Y-73113315D03*
X175048907Y-68470107D03*
X179819800Y-90464185D03*
X154481000Y-56507827D03*
X171417705Y-88260800D03*
X191207400Y-113660800D03*
X175552814Y-98243000D03*
X170275663Y-88258468D03*
X153894800Y-73113315D03*
X175405800Y-82495000D03*
X153894800Y-75258410D03*
X187016400Y-63876800D03*
X124126000Y-90496000D03*
X130886493Y-86486893D03*
X124126000Y-115811333D03*
X181405800Y-82495000D03*
X154961600Y-65341814D03*
X191207400Y-87896269D03*
X166792735Y-56507827D03*
X191207400Y-109366711D03*
X178405800Y-82495000D03*
X191207400Y-83602180D03*
X132300707Y-86486893D03*
X174845707Y-97535893D03*
X124122702Y-119536667D03*
X154254493Y-64634707D03*
X124126000Y-85924000D03*
X191207400Y-100778534D03*
X124126000Y-88210000D03*
X174341800Y-67763000D03*
X185260337Y-56504608D03*
X188819800Y-90464185D03*
X185260337Y-62251200D03*
X155668707Y-64634707D03*
X172948602Y-56507827D03*
X189404000Y-123516000D03*
X175756014Y-67763000D03*
X170604000Y-76089359D03*
X161438600Y-88419550D03*
X185260337Y-59377904D03*
X161438600Y-98573200D03*
X154961600Y-63927600D03*
X172805161Y-78761200D03*
X191207400Y-96484446D03*
X178228000Y-122754000D03*
X153894800Y-77403505D03*
%TO.N,+24V*%
X167603649Y-97461708D03*
X166696400Y-85238200D03*
%TO.N,GND HV*%
X134819400Y-89073599D03*
X134794000Y-99180012D03*
X157877239Y-95599587D03*
X126571658Y-76417142D03*
X129714000Y-83257000D03*
X136143829Y-66844971D03*
X147947107Y-65803107D03*
X139112000Y-99180012D03*
X133193800Y-83257000D03*
X151808544Y-76795149D03*
X148963107Y-75564893D03*
X134794000Y-96592000D03*
X134794000Y-85924000D03*
X157877239Y-98101487D03*
X147548893Y-75564893D03*
X156443413Y-99386000D03*
X151808544Y-71139942D03*
X153082000Y-90750000D03*
X147947107Y-64388893D03*
X134794000Y-94052000D03*
X136953000Y-99180012D03*
X133193800Y-79497800D03*
X148789400Y-56507827D03*
X148256000Y-76272000D03*
X157877239Y-93097687D03*
X130145800Y-72843000D03*
X151100800Y-58771400D03*
X148764000Y-85035000D03*
X138350000Y-75111786D03*
X151808544Y-79622752D03*
X141144000Y-87702000D03*
X148256000Y-74857786D03*
X148764000Y-83130000D03*
X153082000Y-85924000D03*
X137642893Y-75818893D03*
X141144000Y-90750000D03*
X129714000Y-79497800D03*
X139057107Y-75818893D03*
X134356758Y-68632042D03*
X138426200Y-64562600D03*
X151439615Y-99386000D03*
X153941514Y-99386000D03*
X147240000Y-65096000D03*
X148764000Y-86940000D03*
X153082000Y-88337000D03*
X140153400Y-62835400D03*
X138350000Y-76526000D03*
X128358729Y-74630071D03*
X151808544Y-68312339D03*
X151100800Y-56507827D03*
X148654214Y-65096000D03*
X141144000Y-84146000D03*
X151808544Y-73967546D03*
%TO.N,+3.3V HV*%
X150119481Y-91970818D03*
X138090760Y-81092760D03*
X148762756Y-89984498D03*
X151278003Y-96644418D03*
X148762756Y-91330698D03*
X145915997Y-91149795D03*
X146721584Y-88770418D03*
X137653332Y-90851600D03*
%TO.N,+5V_BUCK*%
X187981600Y-97277800D03*
X186060202Y-114985283D03*
%TO.N,+5V_VBUS*%
X177521383Y-120666617D03*
X185975970Y-99487600D03*
X176103600Y-115896000D03*
X174028632Y-118664600D03*
%TO.N,+5V*%
X183003200Y-99259000D03*
X181301400Y-100859200D03*
%TO.N,+3.3V*%
X150338800Y-119172600D03*
X141728200Y-123236600D03*
X133168400Y-101795095D03*
X138883400Y-110333400D03*
X161413200Y-106421800D03*
X184324000Y-111298600D03*
X151380200Y-110257200D03*
X126858472Y-103873805D03*
X185517800Y-111298600D03*
X163978600Y-113508400D03*
X142845115Y-118004200D03*
X170658800Y-112187600D03*
X128037600Y-93975800D03*
X161514800Y-102129200D03*
X176069000Y-116937400D03*
X158137485Y-109093519D03*
X159082532Y-119622948D03*
X152828000Y-111673747D03*
X185517800Y-110028600D03*
X176069000Y-117759665D03*
X126742200Y-90978600D03*
X165807400Y-106320200D03*
X163109958Y-111776158D03*
X184324000Y-110028600D03*
X129282200Y-121255400D03*
X158416000Y-102129200D03*
%TO.N,/MCU/NRST*%
X145073335Y-116150000D03*
X145326354Y-121560200D03*
%TO.N,/Power/PowerProtection/RTN*%
X172077280Y-73059539D03*
X172077280Y-74159986D03*
X170808481Y-71941227D03*
X163898364Y-70099800D03*
X177948600Y-71623800D03*
X170808481Y-74151053D03*
X170808481Y-73050606D03*
X163902400Y-71954000D03*
X172077280Y-71950160D03*
%TO.N,/USB/D-*%
X172614600Y-122220600D03*
X171760273Y-123059867D03*
%TO.N,/Current Sense/I_OUT*%
X137324000Y-110816000D03*
X131533045Y-104979000D03*
%TO.N,/MCU/ADC1_IN16*%
X148510000Y-113669800D03*
X141601200Y-114676800D03*
X145325000Y-113669800D03*
X164562800Y-65705600D03*
%TO.N,/Current Sense/OUT+*%
X130065392Y-93199823D03*
X130476000Y-107631025D03*
%TO.N,/CAN_HIGH*%
X164740600Y-63495800D03*
X163038800Y-63495800D03*
X163089600Y-106472600D03*
%TO.N,/CAN_LOW*%
X163800800Y-108885600D03*
%TO.N,/CAN/CAN1_TX*%
X157908000Y-107768000D03*
X156638000Y-109800000D03*
%TO.N,/Current Sense/Scrut-*%
X141829800Y-94918410D03*
X142386838Y-66489617D03*
%TO.N,/Current Sense/Scrut+*%
X140636000Y-94814000D03*
X140509796Y-66489617D03*
%TO.N,/Current Sense/SHUNT-*%
X131588816Y-70482885D03*
X130476000Y-81555200D03*
%TO.N,/Current Sense/SHUNT+*%
X136089400Y-73833600D03*
X133739900Y-76183100D03*
%TO.N,/Current Sense/Scrut_Out*%
X142922000Y-94814000D03*
X143597800Y-75764000D03*
%TO.N,/MCU/USART1_TX*%
X168677600Y-114930800D03*
X146757400Y-120239400D03*
%TO.N,/MCU/USART1_RX*%
X147951200Y-121345876D03*
X168703000Y-115819800D03*
%TO.N,/Current Sense/OUT-*%
X132863600Y-107666400D03*
X130908045Y-93142408D03*
%TO.N,/MCU/MCU_Boot_GPIO*%
X144082615Y-116152290D03*
X160547462Y-122197338D03*
%TO.N,/MCU/USB_Boot_GPIO*%
X169795200Y-113584600D03*
X161472004Y-122237996D03*
%TO.N,/ShieldGND*%
X162581600Y-59228600D03*
%TD*%
D25*
%TO.N,GND*%
X178228000Y-122754000D02*
X178228000Y-122500000D01*
X178228000Y-122500000D02*
X176196000Y-120468000D01*
X176196000Y-120468000D02*
X175383200Y-120468000D01*
%TO.N,+24V*%
X166594800Y-85339800D02*
X166696400Y-85238200D01*
X167603649Y-97461708D02*
X166594800Y-96452859D01*
X166594800Y-96452859D02*
X166594800Y-85339800D01*
%TO.N,+5V_BUCK*%
X187981600Y-97277800D02*
X187981600Y-113063885D01*
X187981600Y-113063885D02*
X186060202Y-114985283D01*
D26*
%TO.N,+5V_VBUS*%
X179316793Y-120666617D02*
X187405600Y-112577810D01*
D25*
X174028632Y-118664600D02*
X174028632Y-117970968D01*
D26*
X177521383Y-120666617D02*
X179316793Y-120666617D01*
X187405600Y-100917230D02*
X185975970Y-99487600D01*
X187405600Y-112577810D02*
X187405600Y-100917230D01*
D25*
X174028632Y-117970968D02*
X176103600Y-115896000D01*
D27*
%TO.N,+5V*%
X182901600Y-99259000D02*
X181301400Y-100859200D01*
X183003200Y-99259000D02*
X182901600Y-99259000D01*
D25*
%TO.N,/MCU/NRST*%
X145073335Y-116150000D02*
X145182461Y-116259126D01*
X145326354Y-116311046D02*
X145326354Y-121560200D01*
X145274434Y-116259126D02*
X145326354Y-116311046D01*
X145182461Y-116259126D02*
X145274434Y-116259126D01*
D28*
%TO.N,/USB/D-*%
X171760273Y-123059867D02*
X171775333Y-123059867D01*
X171775333Y-123059867D02*
X172614600Y-122220600D01*
D25*
%TO.N,/Current Sense/I_OUT*%
X131533045Y-105025045D02*
X131533045Y-104979000D01*
X137324000Y-110816000D02*
X131533045Y-105025045D01*
%TO.N,/MCU/ADC1_IN16*%
X169782500Y-102751500D02*
X169778800Y-102755200D01*
X170178800Y-105591200D02*
X170178800Y-103147800D01*
X161239400Y-102755200D02*
X160156200Y-101672000D01*
X164562800Y-65705600D02*
X164562800Y-65708410D01*
X148510000Y-113669800D02*
X152563755Y-113669800D01*
X160156200Y-70115010D02*
X160156200Y-101672000D01*
X160156200Y-101672000D02*
X160156200Y-101735800D01*
X162095253Y-113674747D02*
X170178800Y-105591200D01*
X170178800Y-103147800D02*
X169782500Y-102751500D01*
X164562800Y-65708410D02*
X160156200Y-70115010D01*
X160156200Y-101735800D02*
X161175600Y-102755200D01*
X169778800Y-102755200D02*
X161239400Y-102755200D01*
X142608200Y-113669800D02*
X141601200Y-114676800D01*
X152563755Y-113669800D02*
X152568702Y-113674747D01*
X152568702Y-113674747D02*
X162095253Y-113674747D01*
X145325000Y-113669800D02*
X142608200Y-113669800D01*
%TO.N,/Current Sense/OUT+*%
X130065392Y-93199823D02*
X130457045Y-93591476D01*
X130457045Y-93591476D02*
X130457045Y-107612070D01*
X130457045Y-107612070D02*
X130476000Y-107631025D01*
%TO.N,/CAN_HIGH*%
X159254200Y-102637200D02*
X159254200Y-69642600D01*
X163089600Y-106472600D02*
X159254200Y-102637200D01*
X174676799Y-63495800D02*
X175002200Y-63821201D01*
X175002200Y-63821201D02*
X176640799Y-63821201D01*
X163038800Y-65858000D02*
X163038800Y-63495800D01*
X176640799Y-63821201D02*
X179635800Y-60826200D01*
X164740600Y-63495800D02*
X174676799Y-63495800D01*
X159254200Y-69642600D02*
X163038800Y-65858000D01*
%TO.N,/CAN_LOW*%
X176312440Y-63196201D02*
X175256200Y-63196201D01*
X165684102Y-104415200D02*
X169002800Y-104415200D01*
X176915800Y-62302000D02*
X176915800Y-62592841D01*
X161768800Y-62770548D02*
X174830547Y-62770548D01*
X161768800Y-62770548D02*
X159818576Y-60820324D01*
X163780601Y-63565702D02*
X164575755Y-62770548D01*
X163800800Y-106298502D02*
X159705200Y-102202902D01*
X177064959Y-62302000D02*
X176915800Y-62302000D01*
X163800800Y-106298502D02*
X163800800Y-108885600D01*
X163780601Y-65852799D02*
X163780601Y-63565702D01*
X174830547Y-62770548D02*
X175256200Y-63196201D01*
X159705200Y-102202902D02*
X159705200Y-69928200D01*
X163800800Y-106298502D02*
X165684102Y-104415200D01*
X176915800Y-62592841D02*
X176312440Y-63196201D01*
X177135800Y-62372841D02*
X177064959Y-62302000D01*
X159705200Y-69928200D02*
X163780601Y-65852799D01*
X177135800Y-60826200D02*
X177135800Y-62372841D01*
%TO.N,/CAN/CAN1_TX*%
X157908000Y-107768000D02*
X156993600Y-106853600D01*
X156993600Y-106853600D02*
X156993600Y-104070792D01*
X156993600Y-104070792D02*
X155624834Y-102702026D01*
X156638000Y-109800000D02*
X156638000Y-109038000D01*
X156638000Y-109038000D02*
X157908000Y-107768000D01*
%TO.N,/Current Sense/Scrut-*%
X142966600Y-93781610D02*
X142966600Y-93753400D01*
X142966600Y-67069379D02*
X142386838Y-66489617D01*
X141829800Y-94918410D02*
X142966600Y-93781610D01*
X142972800Y-67813800D02*
X142966600Y-67807600D01*
X142966600Y-67807600D02*
X142966600Y-67069379D01*
X142966600Y-93753400D02*
X142972800Y-93747200D01*
X142972800Y-93747200D02*
X142972800Y-67813800D01*
%TO.N,/Current Sense/Scrut+*%
X142515600Y-67509000D02*
X142515600Y-92934400D01*
X142515600Y-92934400D02*
X140636000Y-94814000D01*
X141496217Y-66489617D02*
X142515600Y-67509000D01*
X140509796Y-66489617D02*
X141496217Y-66489617D01*
%TO.N,/Current Sense/SHUNT-*%
X130476000Y-81555200D02*
X130476000Y-73605000D01*
X130476000Y-73605000D02*
X131588816Y-72492184D01*
X131588816Y-72492184D02*
X131588816Y-70482885D01*
%TO.N,/Current Sense/SHUNT+*%
X133739900Y-76183100D02*
X136089400Y-73833600D01*
D29*
%TO.N,/Current Sense/Scrut_Out*%
X143398800Y-75963000D02*
X143597800Y-75764000D01*
X143398800Y-94337200D02*
X143398800Y-75963000D01*
X142922000Y-94814000D02*
X143398800Y-94337200D01*
D25*
%TO.N,/MCU/USART1_TX*%
X162911800Y-120696600D02*
X147214600Y-120696600D01*
X147214600Y-120696600D02*
X146757400Y-120239400D01*
X168677600Y-114930800D02*
X162911800Y-120696600D01*
%TO.N,/MCU/USART1_RX*%
X147951200Y-121345876D02*
X163176924Y-121345876D01*
X163176924Y-121345876D02*
X168703000Y-115819800D01*
%TO.N,/Current Sense/OUT-*%
X130908045Y-93142408D02*
X130908045Y-105710845D01*
X130908045Y-105710845D02*
X132863600Y-107666400D01*
%TO.N,/MCU/MCU_Boot_GPIO*%
X144082615Y-116152290D02*
X144674600Y-116744275D01*
X144674600Y-116744275D02*
X144674600Y-121793744D01*
X145067056Y-122186200D02*
X160536324Y-122186200D01*
X144674600Y-121793744D02*
X145067056Y-122186200D01*
X160536324Y-122186200D02*
X160547462Y-122197338D01*
%TO.N,/MCU/USB_Boot_GPIO*%
X169795200Y-115616600D02*
X169795200Y-113584600D01*
X163173804Y-122237996D02*
X169795200Y-115616600D01*
X161472004Y-122237996D02*
X163173804Y-122237996D01*
D26*
%TO.N,/ShieldGND*%
X154818576Y-60820324D02*
X156410300Y-59228600D01*
X156410300Y-59228600D02*
X162581600Y-59228600D01*
%TD*%
%TA.AperFunction,Conductor*%
%TO.N,/CAN/CAN1_TX*%
G36*
X157583805Y-107263377D02*
G01*
X158063123Y-107512556D01*
X158068883Y-107519412D01*
X158068107Y-107528333D01*
X158067475Y-107529404D01*
X157910015Y-107766734D01*
X157906734Y-107770015D01*
X157669404Y-107927475D01*
X157660616Y-107929194D01*
X157653187Y-107924194D01*
X157652560Y-107923132D01*
X157403377Y-107443806D01*
X157402602Y-107434887D01*
X157405484Y-107430140D01*
X157570139Y-107265485D01*
X157578411Y-107262059D01*
X157583805Y-107263377D01*
G37*
%TD.AperFunction*%
%TD*%
%TA.AperFunction,Conductor*%
%TO.N,/CAN_HIGH*%
G36*
X162765405Y-105967977D02*
G01*
X163244723Y-106217156D01*
X163250483Y-106224012D01*
X163249707Y-106232933D01*
X163249075Y-106234004D01*
X163091615Y-106471334D01*
X163088334Y-106474615D01*
X162851004Y-106632075D01*
X162842216Y-106633794D01*
X162834787Y-106628794D01*
X162834160Y-106627732D01*
X162584977Y-106148406D01*
X162584202Y-106139487D01*
X162587084Y-106134740D01*
X162751739Y-105970085D01*
X162760011Y-105966659D01*
X162765405Y-105967977D01*
G37*
%TD.AperFunction*%
%TD*%
%TA.AperFunction,Conductor*%
%TO.N,/Power/PowerProtection/RTN*%
G36*
X180018482Y-69431333D02*
G01*
X180064237Y-69484137D01*
X180075443Y-69535648D01*
X180075443Y-74776400D01*
X180055758Y-74843439D01*
X180002954Y-74889194D01*
X179951443Y-74900400D01*
X163308443Y-74900400D01*
X163241404Y-74880715D01*
X163195649Y-74827911D01*
X163184443Y-74776400D01*
X163184443Y-69535648D01*
X163204128Y-69468609D01*
X163256932Y-69422854D01*
X163308443Y-69411648D01*
X179951443Y-69411648D01*
X180018482Y-69431333D01*
G37*
%TD.AperFunction*%
%TD*%
%TA.AperFunction,Conductor*%
%TO.N,+5V_VBUS*%
G36*
X186232136Y-99328865D02*
G01*
X186565968Y-99722792D01*
X186568702Y-99731319D01*
X186565315Y-99738629D01*
X186226999Y-100076945D01*
X186218726Y-100080372D01*
X186211162Y-100077598D01*
X185817235Y-99743766D01*
X185813139Y-99735803D01*
X185815049Y-99728373D01*
X185973955Y-99488863D01*
X185977233Y-99485585D01*
X186216743Y-99326679D01*
X186225530Y-99324961D01*
X186232136Y-99328865D01*
G37*
%TD.AperFunction*%
%TD*%
%TA.AperFunction,Conductor*%
%TO.N,/Current Sense/SHUNT+*%
G36*
X135849733Y-73673492D02*
G01*
X135850800Y-73674121D01*
X136076819Y-73824077D01*
X136088134Y-73831584D01*
X136091415Y-73834865D01*
X136248875Y-74072195D01*
X136250594Y-74080983D01*
X136245594Y-74088412D01*
X136244523Y-74089044D01*
X135765208Y-74338221D01*
X135756287Y-74338997D01*
X135751538Y-74336113D01*
X135586886Y-74171461D01*
X135583459Y-74163188D01*
X135584777Y-74157794D01*
X135833957Y-73678474D01*
X135840812Y-73672716D01*
X135849733Y-73673492D01*
G37*
%TD.AperFunction*%
%TD*%
%TA.AperFunction,Conductor*%
%TO.N,/MCU/USART1_TX*%
G36*
X168437933Y-114770692D02*
G01*
X168439000Y-114771321D01*
X168665019Y-114921277D01*
X168676334Y-114928784D01*
X168679615Y-114932065D01*
X168837075Y-115169395D01*
X168838794Y-115178183D01*
X168833794Y-115185612D01*
X168832723Y-115186244D01*
X168513742Y-115352069D01*
X168512604Y-115352660D01*
X168509814Y-115353408D01*
X168497589Y-115360465D01*
X168497341Y-115360595D01*
X168353408Y-115435421D01*
X168344487Y-115436197D01*
X168339738Y-115433313D01*
X168175086Y-115268661D01*
X168171659Y-115260388D01*
X168172977Y-115254994D01*
X168422157Y-114775674D01*
X168429012Y-114769916D01*
X168437933Y-114770692D01*
G37*
%TD.AperFunction*%
%TD*%
%TA.AperFunction,Conductor*%
%TO.N,+24V*%
G36*
X167279454Y-96957085D02*
G01*
X167758772Y-97206264D01*
X167764532Y-97213120D01*
X167763756Y-97222041D01*
X167763124Y-97223112D01*
X167605664Y-97460442D01*
X167602383Y-97463723D01*
X167365053Y-97621183D01*
X167356265Y-97622902D01*
X167348836Y-97617902D01*
X167348209Y-97616840D01*
X167099026Y-97137514D01*
X167098251Y-97128595D01*
X167101133Y-97123848D01*
X167265788Y-96959193D01*
X167274060Y-96955767D01*
X167279454Y-96957085D01*
G37*
%TD.AperFunction*%
%TD*%
%TA.AperFunction,Conductor*%
%TO.N,/CAN_LOW*%
G36*
X168160442Y-103572833D02*
G01*
X168995512Y-104406922D01*
X168998944Y-104415193D01*
X168995522Y-104423468D01*
X168995512Y-104423478D01*
X168160442Y-105257566D01*
X168152167Y-105260988D01*
X168144581Y-105258190D01*
X168143849Y-105257566D01*
X167306907Y-104543703D01*
X167302837Y-104535727D01*
X167302800Y-104534801D01*
X167302800Y-104295598D01*
X167306227Y-104287325D01*
X167306893Y-104286708D01*
X168144583Y-103572208D01*
X168153100Y-103569448D01*
X168160442Y-103572833D01*
G37*
%TD.AperFunction*%
%TD*%
%TA.AperFunction,Conductor*%
%TO.N,+5V*%
G36*
X182762081Y-99097850D02*
G01*
X182997371Y-99253956D01*
X183001934Y-99256984D01*
X183005215Y-99260265D01*
X183162692Y-99497621D01*
X183164411Y-99506409D01*
X183159411Y-99513838D01*
X183158365Y-99514457D01*
X182685150Y-99761925D01*
X182676231Y-99762722D01*
X182671455Y-99759830D01*
X182402622Y-99490997D01*
X182399195Y-99482724D01*
X182402279Y-99474808D01*
X182747001Y-99099682D01*
X182755121Y-99095910D01*
X182762081Y-99097850D01*
G37*
%TD.AperFunction*%
%TD*%
%TA.AperFunction,Conductor*%
%TO.N,/CAN_LOW*%
G36*
X163925499Y-108294791D02*
G01*
X163928383Y-108299540D01*
X164091115Y-108814662D01*
X164090339Y-108823583D01*
X164083482Y-108829343D01*
X164082278Y-108829654D01*
X163803120Y-108886130D01*
X163798480Y-108886130D01*
X163565353Y-108838966D01*
X163519320Y-108829653D01*
X163511892Y-108824654D01*
X163510173Y-108815866D01*
X163510480Y-108814675D01*
X163673217Y-108299539D01*
X163678977Y-108292683D01*
X163684374Y-108291364D01*
X163917226Y-108291364D01*
X163925499Y-108294791D01*
G37*
%TD.AperFunction*%
%TD*%
%TA.AperFunction,Conductor*%
%TO.N,/MCU/USART1_TX*%
G36*
X147012212Y-120083205D02*
G01*
X147012844Y-120084276D01*
X147262021Y-120563591D01*
X147262797Y-120572512D01*
X147259913Y-120577261D01*
X147095261Y-120741913D01*
X147086988Y-120745340D01*
X147081591Y-120744021D01*
X146602276Y-120494844D01*
X146596516Y-120487987D01*
X146597292Y-120479066D01*
X146597916Y-120478007D01*
X146755385Y-120240663D01*
X146758663Y-120237385D01*
X146995996Y-120079923D01*
X147004783Y-120078205D01*
X147012212Y-120083205D01*
G37*
%TD.AperFunction*%
%TD*%
%TA.AperFunction,Conductor*%
%TO.N,/ShieldGND*%
G36*
X156094699Y-59195463D02*
G01*
X156098210Y-59197877D01*
X156440539Y-59540206D01*
X156443966Y-59548479D01*
X156442821Y-59553527D01*
X155673356Y-61162409D01*
X155666695Y-61168394D01*
X155658334Y-61168175D01*
X154824404Y-60823730D01*
X154818066Y-60817404D01*
X154817220Y-60813989D01*
X154717306Y-59729145D01*
X154719960Y-59720594D01*
X154724765Y-59717152D01*
X156085749Y-59195226D01*
X156094699Y-59195463D01*
G37*
%TD.AperFunction*%
%TD*%
%TA.AperFunction,Conductor*%
%TO.N,/MCU/USB_Boot_GPIO*%
G36*
X161542933Y-121947677D02*
G01*
X162058064Y-122110413D01*
X162064921Y-122116173D01*
X162066240Y-122121570D01*
X162066240Y-122354421D01*
X162062813Y-122362694D01*
X162058064Y-122365578D01*
X161542941Y-122528311D01*
X161534020Y-122527535D01*
X161528260Y-122520678D01*
X161527953Y-122519490D01*
X161471473Y-122240314D01*
X161471473Y-122235676D01*
X161494558Y-122121570D01*
X161527950Y-121956514D01*
X161532949Y-121949088D01*
X161541737Y-121947369D01*
X161542933Y-121947677D01*
G37*
%TD.AperFunction*%
%TD*%
%TA.AperFunction,Conductor*%
%TO.N,+24V*%
G36*
X166700398Y-85239888D02*
G01*
X166700451Y-85239923D01*
X166936947Y-85398893D01*
X166941901Y-85406351D01*
X166940664Y-85414254D01*
X166723137Y-85808546D01*
X166716141Y-85814134D01*
X166712893Y-85814594D01*
X166480071Y-85814594D01*
X166471798Y-85811167D01*
X166468470Y-85804409D01*
X166403577Y-85307546D01*
X166405903Y-85298899D01*
X166412856Y-85294563D01*
X166691610Y-85238169D01*
X166700398Y-85239888D01*
G37*
%TD.AperFunction*%
%TD*%
%TA.AperFunction,Conductor*%
%TO.N,/MCU/ADC1_IN16*%
G36*
X164323135Y-65545499D02*
G01*
X164324241Y-65546149D01*
X164561534Y-65703584D01*
X164564815Y-65706865D01*
X164722299Y-65944231D01*
X164724018Y-65953019D01*
X164719018Y-65960448D01*
X164717982Y-65961062D01*
X164240026Y-66211586D01*
X164231107Y-66212391D01*
X164226321Y-66209496D01*
X164061670Y-66044845D01*
X164058243Y-66036572D01*
X164059544Y-66031210D01*
X164098816Y-65955041D01*
X164307374Y-65550535D01*
X164314211Y-65544753D01*
X164323135Y-65545499D01*
G37*
%TD.AperFunction*%
%TD*%
%TA.AperFunction,Conductor*%
%TO.N,/Current Sense/OUT-*%
G36*
X131189524Y-93198354D02*
G01*
X131196952Y-93203353D01*
X131198671Y-93212141D01*
X131198360Y-93213345D01*
X131035628Y-93728468D01*
X131029868Y-93735325D01*
X131024471Y-93736644D01*
X130794245Y-93736644D01*
X130785972Y-93733217D01*
X130782545Y-93724944D01*
X130782545Y-93548622D01*
X130782544Y-93548620D01*
X130760762Y-93467327D01*
X130760761Y-93467323D01*
X130760761Y-93467324D01*
X130760363Y-93465838D01*
X130760363Y-93465837D01*
X130718315Y-93393009D01*
X130717512Y-93391617D01*
X130717508Y-93391612D01*
X130687173Y-93361277D01*
X130684762Y-93357773D01*
X130665560Y-93314750D01*
X130660929Y-93305063D01*
X130660923Y-93305051D01*
X130660371Y-93303970D01*
X130655320Y-93294676D01*
X130633916Y-93257604D01*
X130632750Y-93254790D01*
X130628119Y-93237505D01*
X130623316Y-93222043D01*
X130622699Y-93220302D01*
X130620079Y-93213746D01*
X130620190Y-93204795D01*
X130626599Y-93198541D01*
X130628612Y-93197940D01*
X130905727Y-93141877D01*
X130910363Y-93141877D01*
X131189524Y-93198354D01*
G37*
%TD.AperFunction*%
%TD*%
%TA.AperFunction,Conductor*%
%TO.N,/CAN/CAN1_TX*%
G36*
X157668333Y-107607892D02*
G01*
X157669400Y-107608521D01*
X157895419Y-107758477D01*
X157906734Y-107765984D01*
X157910015Y-107769265D01*
X158067475Y-108006595D01*
X158069194Y-108015383D01*
X158064194Y-108022812D01*
X158063123Y-108023444D01*
X157583808Y-108272621D01*
X157574887Y-108273397D01*
X157570138Y-108270513D01*
X157405486Y-108105861D01*
X157402059Y-108097588D01*
X157403377Y-108092194D01*
X157652557Y-107612874D01*
X157659412Y-107607116D01*
X157668333Y-107607892D01*
G37*
%TD.AperFunction*%
%TD*%
%TA.AperFunction,Conductor*%
%TO.N,GND*%
G36*
X187391283Y-56027415D02*
G01*
X187437038Y-56080219D01*
X187446982Y-56149377D01*
X187417957Y-56212933D01*
X187390216Y-56236724D01*
X187313192Y-56285121D01*
X187313190Y-56285122D01*
X187040935Y-56502237D01*
X186794679Y-56748493D01*
X186577564Y-57020748D01*
X186577563Y-57020750D01*
X186392284Y-57315619D01*
X186241191Y-57629367D01*
X186126177Y-57958057D01*
X186126174Y-57958065D01*
X186048683Y-58297579D01*
X186048681Y-58297591D01*
X186009692Y-58643625D01*
X186009692Y-58991874D01*
X186048681Y-59337908D01*
X186048682Y-59337917D01*
X186048683Y-59337921D01*
X186058523Y-59381033D01*
X186126174Y-59677434D01*
X186126177Y-59677442D01*
X186241191Y-60006132D01*
X186392284Y-60319880D01*
X186577563Y-60614749D01*
X186577564Y-60614751D01*
X186794679Y-60887006D01*
X187040935Y-61133262D01*
X187313190Y-61350377D01*
X187313193Y-61350378D01*
X187313195Y-61350380D01*
X187608059Y-61535656D01*
X187921813Y-61686752D01*
X188122048Y-61756817D01*
X188250499Y-61801764D01*
X188250507Y-61801767D01*
X188250510Y-61801767D01*
X188250511Y-61801768D01*
X188590021Y-61879259D01*
X188936068Y-61918249D01*
X188936069Y-61918250D01*
X188936072Y-61918250D01*
X189284315Y-61918250D01*
X189284315Y-61918249D01*
X189630363Y-61879259D01*
X189969873Y-61801768D01*
X190298571Y-61686752D01*
X190612325Y-61535656D01*
X190907189Y-61350380D01*
X190962440Y-61306319D01*
X191179448Y-61133262D01*
X191179450Y-61133259D01*
X191179455Y-61133256D01*
X191425698Y-60887013D01*
X191463183Y-60840009D01*
X191642819Y-60614751D01*
X191642820Y-60614749D01*
X191642822Y-60614747D01*
X191693906Y-60533446D01*
X191746240Y-60487156D01*
X191815294Y-60476507D01*
X191879142Y-60504882D01*
X191917515Y-60563272D01*
X191922900Y-60599419D01*
X191922900Y-125852118D01*
X191903215Y-125919157D01*
X191850411Y-125964912D01*
X191781253Y-125974856D01*
X191717697Y-125945831D01*
X191693907Y-125918091D01*
X191653098Y-125853146D01*
X191653094Y-125853139D01*
X191435979Y-125580884D01*
X191189723Y-125334628D01*
X190917468Y-125117513D01*
X190917466Y-125117512D01*
X190622597Y-124932233D01*
X190308849Y-124781140D01*
X189980159Y-124666126D01*
X189980151Y-124666123D01*
X189725515Y-124608004D01*
X189640638Y-124588632D01*
X189640634Y-124588631D01*
X189640625Y-124588630D01*
X189294591Y-124549641D01*
X189294587Y-124549641D01*
X188946347Y-124549641D01*
X188946342Y-124549641D01*
X188600308Y-124588630D01*
X188600296Y-124588632D01*
X188260782Y-124666123D01*
X188260774Y-124666126D01*
X187932084Y-124781140D01*
X187618336Y-124932233D01*
X187323467Y-125117512D01*
X187323465Y-125117513D01*
X187051210Y-125334628D01*
X186804954Y-125580884D01*
X186587839Y-125853139D01*
X186587838Y-125853141D01*
X186402559Y-126148010D01*
X186251466Y-126461758D01*
X186136452Y-126790448D01*
X186136449Y-126790456D01*
X186058958Y-127129970D01*
X186058956Y-127129982D01*
X186019967Y-127476016D01*
X186019967Y-127824265D01*
X186058956Y-128170299D01*
X186058958Y-128170311D01*
X186136449Y-128509825D01*
X186136452Y-128509833D01*
X186251466Y-128838523D01*
X186402559Y-129152271D01*
X186587838Y-129447140D01*
X186587839Y-129447142D01*
X186804954Y-129719397D01*
X187051210Y-129965653D01*
X187323465Y-130182768D01*
X187323467Y-130182769D01*
X187406171Y-130234736D01*
X187452462Y-130287071D01*
X187463110Y-130356125D01*
X187434735Y-130419973D01*
X187376345Y-130458345D01*
X187340199Y-130463730D01*
X127850979Y-130463730D01*
X127783940Y-130444045D01*
X127738185Y-130391241D01*
X127728241Y-130322083D01*
X127757266Y-130258527D01*
X127785007Y-130234736D01*
X127797198Y-130227075D01*
X127864215Y-130184966D01*
X127864219Y-130184963D01*
X128136474Y-129967848D01*
X128136476Y-129967845D01*
X128136481Y-129967842D01*
X128382724Y-129721599D01*
X128384475Y-129719404D01*
X128599845Y-129449337D01*
X128599846Y-129449335D01*
X128599848Y-129449333D01*
X128785124Y-129154469D01*
X128936220Y-128840715D01*
X129051236Y-128512017D01*
X129128727Y-128172507D01*
X129167718Y-127826456D01*
X129167718Y-127478216D01*
X129158200Y-127393742D01*
X129142621Y-127255470D01*
X129141429Y-127244890D01*
X132044129Y-127244890D01*
X132044129Y-127892735D01*
X132961117Y-127892735D01*
X132928204Y-127949742D01*
X132894129Y-128076909D01*
X132894129Y-128208561D01*
X132928204Y-128335728D01*
X132961117Y-128392735D01*
X132044129Y-128392735D01*
X132044129Y-129040579D01*
X132050530Y-129100107D01*
X132050532Y-129100114D01*
X132100774Y-129234821D01*
X132100778Y-129234828D01*
X132186938Y-129349922D01*
X132186941Y-129349925D01*
X132302035Y-129436085D01*
X132302042Y-129436089D01*
X132436749Y-129486331D01*
X132436756Y-129486333D01*
X132496284Y-129492734D01*
X132496301Y-129492735D01*
X133144129Y-129492735D01*
X133144129Y-128575747D01*
X133201136Y-128608660D01*
X133328303Y-128642735D01*
X133459955Y-128642735D01*
X133587122Y-128608660D01*
X133644129Y-128575747D01*
X133644129Y-129492735D01*
X134291957Y-129492735D01*
X134291973Y-129492734D01*
X134351501Y-129486333D01*
X134351508Y-129486331D01*
X134486215Y-129436089D01*
X134486222Y-129436085D01*
X134601316Y-129349925D01*
X134601319Y-129349922D01*
X134687479Y-129234828D01*
X134687483Y-129234821D01*
X134737725Y-129100114D01*
X134737727Y-129100107D01*
X134744128Y-129040579D01*
X134744129Y-129040562D01*
X134744129Y-128392735D01*
X133827141Y-128392735D01*
X133860054Y-128335728D01*
X133894129Y-128208561D01*
X133894129Y-128076909D01*
X133860054Y-127949742D01*
X133827141Y-127892735D01*
X134744129Y-127892735D01*
X134744129Y-127244907D01*
X134744128Y-127244890D01*
X134737727Y-127185362D01*
X134737725Y-127185355D01*
X134687483Y-127050648D01*
X134687479Y-127050641D01*
X134601319Y-126935547D01*
X134601316Y-126935544D01*
X134486222Y-126849384D01*
X134486215Y-126849380D01*
X134351508Y-126799138D01*
X134351501Y-126799136D01*
X134291973Y-126792735D01*
X133644129Y-126792735D01*
X133644129Y-127709723D01*
X133587122Y-127676810D01*
X133459955Y-127642735D01*
X133328303Y-127642735D01*
X133201136Y-127676810D01*
X133144129Y-127709723D01*
X133144129Y-126792735D01*
X132496284Y-126792735D01*
X132436756Y-126799136D01*
X132436749Y-126799138D01*
X132302042Y-126849380D01*
X132302035Y-126849384D01*
X132186941Y-126935544D01*
X132186938Y-126935547D01*
X132100778Y-127050641D01*
X132100774Y-127050648D01*
X132050532Y-127185355D01*
X132050530Y-127185362D01*
X132044129Y-127244890D01*
X129141429Y-127244890D01*
X129128728Y-127132177D01*
X129128727Y-127132165D01*
X129051236Y-126792655D01*
X128936220Y-126463957D01*
X128936217Y-126463952D01*
X128936215Y-126463945D01*
X128807934Y-126197566D01*
X128785125Y-126150205D01*
X128735696Y-126071540D01*
X128599848Y-125855339D01*
X128599846Y-125855336D01*
X128599845Y-125855334D01*
X128382730Y-125583079D01*
X128136474Y-125336823D01*
X127864219Y-125119708D01*
X127864217Y-125119707D01*
X127569348Y-124934428D01*
X127255600Y-124783335D01*
X126926910Y-124668321D01*
X126926902Y-124668318D01*
X126672266Y-124610199D01*
X126587389Y-124590827D01*
X126587385Y-124590826D01*
X126587376Y-124590825D01*
X126241342Y-124551836D01*
X126241338Y-124551836D01*
X125893098Y-124551836D01*
X125893093Y-124551836D01*
X125547059Y-124590825D01*
X125547047Y-124590827D01*
X125207533Y-124668318D01*
X125207525Y-124668321D01*
X124878835Y-124783335D01*
X124565087Y-124934428D01*
X124270218Y-125119707D01*
X124270216Y-125119708D01*
X123997961Y-125336823D01*
X123751705Y-125583079D01*
X123534590Y-125855334D01*
X123534589Y-125855336D01*
X123461694Y-125971348D01*
X123409359Y-126017639D01*
X123340305Y-126028287D01*
X123276457Y-125999912D01*
X123238085Y-125941522D01*
X123232700Y-125905376D01*
X123232700Y-84829681D01*
X123252385Y-84762642D01*
X123305189Y-84716887D01*
X123356903Y-84705681D01*
X133501809Y-84722686D01*
X133568814Y-84742483D01*
X133614481Y-84795364D01*
X133625600Y-84846686D01*
X133625600Y-89279398D01*
X133605915Y-89346437D01*
X133553111Y-89392192D01*
X133497432Y-89402238D01*
X133497432Y-89403100D01*
X133493003Y-89403100D01*
X125882058Y-89403100D01*
X125882049Y-89403100D01*
X125882048Y-89403101D01*
X125817122Y-89410081D01*
X125817110Y-89410083D01*
X125765604Y-89421288D01*
X125727403Y-89432244D01*
X125727395Y-89432248D01*
X125674087Y-89463425D01*
X125611466Y-89480387D01*
X125539466Y-89480374D01*
X125539672Y-89541080D01*
X125526205Y-89597702D01*
X125484618Y-89679490D01*
X125464935Y-89746521D01*
X125452558Y-89832602D01*
X125452558Y-107374412D01*
X125432873Y-107441451D01*
X125380069Y-107487206D01*
X125328558Y-107498412D01*
X125054226Y-107498412D01*
X125054200Y-107498414D01*
X125029095Y-107501325D01*
X125029091Y-107501327D01*
X124926318Y-107546705D01*
X124846877Y-107626146D01*
X124801498Y-107728918D01*
X124801498Y-107728920D01*
X124798583Y-107754043D01*
X124798583Y-109543768D01*
X124798585Y-109543794D01*
X124801496Y-109568899D01*
X124801498Y-109568903D01*
X124846876Y-109671676D01*
X124846877Y-109671677D01*
X124926318Y-109751118D01*
X125029092Y-109796497D01*
X125054218Y-109799412D01*
X125328559Y-109799411D01*
X125395597Y-109819095D01*
X125441352Y-109871899D01*
X125452558Y-109923411D01*
X125452558Y-121665635D01*
X125461509Y-121739044D01*
X125461510Y-121739046D01*
X125475830Y-121796891D01*
X125475834Y-121796903D01*
X125491154Y-121842825D01*
X125491155Y-121842828D01*
X125520117Y-121886445D01*
X125553259Y-121936358D01*
X125601945Y-121986472D01*
X125601951Y-121986477D01*
X125605257Y-121989427D01*
X125604552Y-121990216D01*
X125642754Y-122042804D01*
X125649961Y-122084044D01*
X125649999Y-122095483D01*
X125650000Y-122095484D01*
X129279318Y-124202682D01*
X129467083Y-124202682D01*
X129528075Y-124218719D01*
X129572721Y-124243941D01*
X129789345Y-124366321D01*
X129861928Y-124395791D01*
X129922921Y-124411828D01*
X130000606Y-124421870D01*
X154208559Y-124421870D01*
X154275598Y-124441555D01*
X154321353Y-124494359D01*
X154331297Y-124563517D01*
X154311661Y-124614760D01*
X154240848Y-124720738D01*
X154240848Y-124720739D01*
X154191713Y-124839362D01*
X154147872Y-124893765D01*
X154081578Y-124915830D01*
X154057753Y-124914382D01*
X154042405Y-124911951D01*
X154042405Y-125940700D01*
X154023996Y-125930072D01*
X153871396Y-125889183D01*
X153713414Y-125889183D01*
X153560814Y-125930072D01*
X153542405Y-125940700D01*
X153542405Y-124911951D01*
X153542404Y-124911951D01*
X153476280Y-124922424D01*
X153274189Y-124988086D01*
X153084847Y-125084562D01*
X152912945Y-125209455D01*
X152912940Y-125209459D01*
X152762681Y-125359718D01*
X152762677Y-125359723D01*
X152637784Y-125531625D01*
X152540938Y-125721694D01*
X152492963Y-125772490D01*
X152425142Y-125789285D01*
X152359007Y-125766747D01*
X152319968Y-125721694D01*
X152317253Y-125716365D01*
X152276401Y-125636189D01*
X152246976Y-125595689D01*
X152169963Y-125489688D01*
X152169959Y-125489683D01*
X152041904Y-125361628D01*
X152041899Y-125361624D01*
X151895402Y-125255189D01*
X151895401Y-125255188D01*
X151895399Y-125255187D01*
X151838825Y-125226361D01*
X151734044Y-125172971D01*
X151734041Y-125172970D01*
X151561815Y-125117012D01*
X151382956Y-125088683D01*
X151382951Y-125088683D01*
X151201859Y-125088683D01*
X151201854Y-125088683D01*
X151022994Y-125117012D01*
X150850768Y-125172970D01*
X150850765Y-125172971D01*
X150689407Y-125255189D01*
X150542910Y-125361624D01*
X150542905Y-125361628D01*
X150414850Y-125489683D01*
X150414846Y-125489688D01*
X150308411Y-125636185D01*
X150226193Y-125797543D01*
X150226192Y-125797546D01*
X150170234Y-125969772D01*
X150141905Y-126148631D01*
X150141905Y-126829734D01*
X150170234Y-127008593D01*
X150226192Y-127180819D01*
X150226193Y-127180822D01*
X150282069Y-127290483D01*
X150308408Y-127342176D01*
X150308411Y-127342180D01*
X150414846Y-127488677D01*
X150414850Y-127488682D01*
X150542905Y-127616737D01*
X150542910Y-127616741D01*
X150625589Y-127676810D01*
X150689411Y-127723179D01*
X150769984Y-127764233D01*
X150850765Y-127805394D01*
X150850768Y-127805395D01*
X150936881Y-127833374D01*
X151022996Y-127861354D01*
X151105834Y-127874474D01*
X151201854Y-127889683D01*
X151201859Y-127889683D01*
X151382956Y-127889683D01*
X151469664Y-127875948D01*
X151561814Y-127861354D01*
X151734044Y-127805394D01*
X151895399Y-127723179D01*
X152041906Y-127616736D01*
X152169958Y-127488684D01*
X152276401Y-127342177D01*
X152319968Y-127256671D01*
X152367942Y-127205875D01*
X152435763Y-127189080D01*
X152501898Y-127211617D01*
X152540938Y-127256671D01*
X152637784Y-127446740D01*
X152762677Y-127618642D01*
X152762681Y-127618647D01*
X152912940Y-127768906D01*
X152912945Y-127768910D01*
X153084847Y-127893803D01*
X153274187Y-127990278D01*
X153476276Y-128055940D01*
X153542405Y-128066414D01*
X153542405Y-127037665D01*
X153560814Y-127048294D01*
X153713414Y-127089183D01*
X153871396Y-127089183D01*
X154023996Y-127048294D01*
X154042405Y-127037665D01*
X154042405Y-128066413D01*
X154108531Y-128055940D01*
X154108534Y-128055940D01*
X154310622Y-127990278D01*
X154499962Y-127893803D01*
X154671864Y-127768910D01*
X154671869Y-127768906D01*
X154822128Y-127618647D01*
X154822132Y-127618642D01*
X154947025Y-127446741D01*
X155043871Y-127256671D01*
X155091845Y-127205875D01*
X155159666Y-127189080D01*
X155225801Y-127211617D01*
X155264840Y-127256671D01*
X155308407Y-127342175D01*
X155308408Y-127342176D01*
X155414846Y-127488677D01*
X155414850Y-127488682D01*
X155542905Y-127616737D01*
X155542910Y-127616741D01*
X155689406Y-127723176D01*
X155689408Y-127723177D01*
X155689411Y-127723179D01*
X155787467Y-127773141D01*
X155809139Y-127793609D01*
X155832487Y-127812133D01*
X155835958Y-127818938D01*
X155838262Y-127821114D01*
X155848524Y-127843573D01*
X155855881Y-127865129D01*
X155862411Y-127899788D01*
X155865338Y-127967047D01*
X155881442Y-128052486D01*
X155881447Y-128052506D01*
X155986852Y-128361136D01*
X155992166Y-128375509D01*
X155996745Y-128387004D01*
X155996746Y-128387006D01*
X156034945Y-128449742D01*
X156049819Y-128474170D01*
X156072743Y-128500587D01*
X156079602Y-128520682D01*
X156090181Y-128520682D01*
X156095612Y-128526940D01*
X156140380Y-128569088D01*
X156240494Y-128619900D01*
X156240496Y-128619900D01*
X156240497Y-128619901D01*
X156307544Y-128639534D01*
X156307545Y-128639534D01*
X156307548Y-128639535D01*
X156393626Y-128651846D01*
X160950363Y-128648490D01*
X160969574Y-128647871D01*
X160985135Y-128646879D01*
X161088078Y-128621915D01*
X161152097Y-128593926D01*
X161226004Y-128548108D01*
X161500000Y-128318369D01*
X166725035Y-128318369D01*
X166725035Y-128566865D01*
X167425035Y-128566865D01*
X167425035Y-129066865D01*
X166725035Y-129066865D01*
X166725035Y-129315360D01*
X166763462Y-129508546D01*
X166763465Y-129508558D01*
X166838842Y-129690536D01*
X166838849Y-129690549D01*
X166948283Y-129854327D01*
X166948286Y-129854331D01*
X167087568Y-129993613D01*
X167087572Y-129993616D01*
X167251350Y-130103050D01*
X167251363Y-130103057D01*
X167433343Y-130178434D01*
X167475035Y-130186727D01*
X167475035Y-129383853D01*
X167484975Y-129401070D01*
X167540830Y-129456925D01*
X167609239Y-129496421D01*
X167685539Y-129516865D01*
X167764531Y-129516865D01*
X167840831Y-129496421D01*
X167909240Y-129456925D01*
X167965095Y-129401070D01*
X167975035Y-129383853D01*
X167975035Y-130186727D01*
X168016725Y-130178434D01*
X168016727Y-130178434D01*
X168198706Y-130103057D01*
X168198719Y-130103050D01*
X168362497Y-129993616D01*
X168362501Y-129993613D01*
X168501783Y-129854331D01*
X168501786Y-129854327D01*
X168611220Y-129690549D01*
X168611227Y-129690536D01*
X168686604Y-129508558D01*
X168686607Y-129508546D01*
X168725034Y-129315360D01*
X168725035Y-129315357D01*
X168725035Y-129066865D01*
X168025035Y-129066865D01*
X168025035Y-128566865D01*
X168725035Y-128566865D01*
X168725035Y-128318373D01*
X168725034Y-128318369D01*
X175365035Y-128318369D01*
X175365035Y-128566865D01*
X176065035Y-128566865D01*
X176065035Y-129066865D01*
X175365035Y-129066865D01*
X175365035Y-129315360D01*
X175403462Y-129508546D01*
X175403465Y-129508558D01*
X175478842Y-129690536D01*
X175478849Y-129690549D01*
X175588283Y-129854327D01*
X175588286Y-129854331D01*
X175727568Y-129993613D01*
X175727572Y-129993616D01*
X175891350Y-130103050D01*
X175891363Y-130103057D01*
X176073343Y-130178434D01*
X176115035Y-130186727D01*
X176115035Y-129383853D01*
X176124975Y-129401070D01*
X176180830Y-129456925D01*
X176249239Y-129496421D01*
X176325539Y-129516865D01*
X176404531Y-129516865D01*
X176480831Y-129496421D01*
X176549240Y-129456925D01*
X176605095Y-129401070D01*
X176615035Y-129383853D01*
X176615035Y-130186727D01*
X176656725Y-130178434D01*
X176656727Y-130178434D01*
X176838706Y-130103057D01*
X176838719Y-130103050D01*
X177002497Y-129993616D01*
X177002501Y-129993613D01*
X177141783Y-129854331D01*
X177141786Y-129854327D01*
X177251220Y-129690549D01*
X177251227Y-129690536D01*
X177326604Y-129508558D01*
X177326607Y-129508546D01*
X177365034Y-129315360D01*
X177365035Y-129315357D01*
X177365035Y-129066865D01*
X176665035Y-129066865D01*
X176665035Y-128566865D01*
X177365035Y-128566865D01*
X177365035Y-128318373D01*
X177365034Y-128318369D01*
X177326607Y-128125183D01*
X177326604Y-128125171D01*
X177251227Y-127943193D01*
X177251220Y-127943180D01*
X177141786Y-127779402D01*
X177141783Y-127779398D01*
X177002501Y-127640116D01*
X177002497Y-127640113D01*
X176838719Y-127530679D01*
X176838706Y-127530672D01*
X176656726Y-127455294D01*
X176656718Y-127455292D01*
X176615035Y-127447000D01*
X176615035Y-128249876D01*
X176605095Y-128232660D01*
X176549240Y-128176805D01*
X176480831Y-128137309D01*
X176404531Y-128116865D01*
X176325539Y-128116865D01*
X176249239Y-128137309D01*
X176180830Y-128176805D01*
X176124975Y-128232660D01*
X176115035Y-128249876D01*
X176115035Y-127447001D01*
X176115034Y-127447000D01*
X176073351Y-127455292D01*
X176073343Y-127455294D01*
X175891363Y-127530672D01*
X175891350Y-127530679D01*
X175727572Y-127640113D01*
X175727568Y-127640116D01*
X175588286Y-127779398D01*
X175588283Y-127779402D01*
X175478849Y-127943180D01*
X175478842Y-127943193D01*
X175403465Y-128125171D01*
X175403462Y-128125183D01*
X175365035Y-128318369D01*
X168725034Y-128318369D01*
X168686607Y-128125183D01*
X168686604Y-128125171D01*
X168611227Y-127943193D01*
X168611220Y-127943180D01*
X168501786Y-127779402D01*
X168501783Y-127779398D01*
X168362501Y-127640116D01*
X168362497Y-127640113D01*
X168198719Y-127530679D01*
X168198706Y-127530672D01*
X168016726Y-127455294D01*
X168016718Y-127455292D01*
X167975035Y-127447000D01*
X167975035Y-128249876D01*
X167965095Y-128232660D01*
X167909240Y-128176805D01*
X167840831Y-128137309D01*
X167764531Y-128116865D01*
X167685539Y-128116865D01*
X167609239Y-128137309D01*
X167540830Y-128176805D01*
X167484975Y-128232660D01*
X167475035Y-128249876D01*
X167475035Y-127447001D01*
X167475034Y-127447000D01*
X167433351Y-127455292D01*
X167433343Y-127455294D01*
X167251363Y-127530672D01*
X167251350Y-127530679D01*
X167087572Y-127640113D01*
X167087568Y-127640116D01*
X166948286Y-127779398D01*
X166948283Y-127779402D01*
X166838849Y-127943180D01*
X166838842Y-127943193D01*
X166763465Y-128125171D01*
X166763462Y-128125183D01*
X166725035Y-128318369D01*
X161500000Y-128318369D01*
X162780276Y-127244890D01*
X182141102Y-127244890D01*
X182141102Y-127892735D01*
X183058090Y-127892735D01*
X183025177Y-127949742D01*
X182991102Y-128076909D01*
X182991102Y-128208561D01*
X183025177Y-128335728D01*
X183058090Y-128392735D01*
X182141102Y-128392735D01*
X182141102Y-129040579D01*
X182147503Y-129100107D01*
X182147505Y-129100114D01*
X182197747Y-129234821D01*
X182197751Y-129234828D01*
X182283911Y-129349922D01*
X182283914Y-129349925D01*
X182399008Y-129436085D01*
X182399015Y-129436089D01*
X182533722Y-129486331D01*
X182533729Y-129486333D01*
X182593257Y-129492734D01*
X182593274Y-129492735D01*
X183241102Y-129492735D01*
X183241102Y-128575747D01*
X183298109Y-128608660D01*
X183425276Y-128642735D01*
X183556928Y-128642735D01*
X183684095Y-128608660D01*
X183741102Y-128575747D01*
X183741102Y-129492735D01*
X184388930Y-129492735D01*
X184388946Y-129492734D01*
X184448474Y-129486333D01*
X184448481Y-129486331D01*
X184583188Y-129436089D01*
X184583195Y-129436085D01*
X184698289Y-129349925D01*
X184698292Y-129349922D01*
X184784452Y-129234828D01*
X184784456Y-129234821D01*
X184834698Y-129100114D01*
X184834700Y-129100107D01*
X184841101Y-129040579D01*
X184841102Y-129040562D01*
X184841102Y-128392735D01*
X183924114Y-128392735D01*
X183957027Y-128335728D01*
X183991102Y-128208561D01*
X183991102Y-128076909D01*
X183957027Y-127949742D01*
X183924114Y-127892735D01*
X184841102Y-127892735D01*
X184841102Y-127244907D01*
X184841101Y-127244890D01*
X184834700Y-127185362D01*
X184834698Y-127185355D01*
X184784456Y-127050648D01*
X184784452Y-127050641D01*
X184698292Y-126935547D01*
X184698289Y-126935544D01*
X184583195Y-126849384D01*
X184583188Y-126849380D01*
X184448481Y-126799138D01*
X184448474Y-126799136D01*
X184388946Y-126792735D01*
X183741102Y-126792735D01*
X183741102Y-127709723D01*
X183684095Y-127676810D01*
X183556928Y-127642735D01*
X183425276Y-127642735D01*
X183298109Y-127676810D01*
X183241102Y-127709723D01*
X183241102Y-126792735D01*
X182593257Y-126792735D01*
X182533729Y-126799136D01*
X182533722Y-126799138D01*
X182399015Y-126849380D01*
X182399008Y-126849384D01*
X182283914Y-126935544D01*
X182283911Y-126935547D01*
X182197751Y-127050641D01*
X182197747Y-127050648D01*
X182147505Y-127185355D01*
X182147503Y-127185362D01*
X182141102Y-127244890D01*
X162780276Y-127244890D01*
X166112566Y-124450850D01*
X166176585Y-124422862D01*
X166192237Y-124421870D01*
X166977616Y-124421870D01*
X166977620Y-124421869D01*
X167012969Y-124419817D01*
X167012996Y-124419813D01*
X167013006Y-124419813D01*
X167041487Y-124416494D01*
X167051182Y-124415206D01*
X167051183Y-124415205D01*
X167051187Y-124415205D01*
X167113481Y-124393670D01*
X167153995Y-124386865D01*
X167425035Y-124386865D01*
X167425035Y-124886865D01*
X166725035Y-124886865D01*
X166725035Y-125285360D01*
X166763462Y-125478546D01*
X166763465Y-125478558D01*
X166838842Y-125660536D01*
X166838849Y-125660549D01*
X166948283Y-125824327D01*
X166948286Y-125824331D01*
X167087568Y-125963613D01*
X167087572Y-125963616D01*
X167251350Y-126073050D01*
X167251363Y-126073057D01*
X167433343Y-126148434D01*
X167475035Y-126156727D01*
X167475035Y-125353853D01*
X167484975Y-125371070D01*
X167540830Y-125426925D01*
X167609239Y-125466421D01*
X167685539Y-125486865D01*
X167764531Y-125486865D01*
X167840831Y-125466421D01*
X167909240Y-125426925D01*
X167965095Y-125371070D01*
X167975035Y-125353853D01*
X167975035Y-126156727D01*
X168016725Y-126148434D01*
X168016727Y-126148434D01*
X168198706Y-126073057D01*
X168198719Y-126073050D01*
X168362497Y-125963616D01*
X168362501Y-125963613D01*
X168501783Y-125824331D01*
X168501786Y-125824327D01*
X168611220Y-125660548D01*
X168613567Y-125654884D01*
X168657406Y-125600479D01*
X168723700Y-125578412D01*
X168791400Y-125595689D01*
X168795209Y-125598268D01*
X168931353Y-125676871D01*
X168931354Y-125676871D01*
X168931357Y-125676873D01*
X169078742Y-125716365D01*
X169078745Y-125716365D01*
X169231325Y-125716365D01*
X169231328Y-125716365D01*
X169378713Y-125676873D01*
X169510856Y-125600580D01*
X169618750Y-125492686D01*
X169695043Y-125360543D01*
X169734535Y-125213158D01*
X169734535Y-125060572D01*
X169695043Y-124913187D01*
X169694329Y-124911951D01*
X169618752Y-124781047D01*
X169618747Y-124781041D01*
X169510858Y-124673152D01*
X169510856Y-124673150D01*
X169476399Y-124653256D01*
X169428185Y-124602689D01*
X169414963Y-124534082D01*
X169440931Y-124469218D01*
X169497845Y-124428690D01*
X169538401Y-124421870D01*
X174551669Y-124421870D01*
X174618708Y-124441555D01*
X174664463Y-124494359D01*
X174674407Y-124563517D01*
X174645382Y-124627073D01*
X174613670Y-124653257D01*
X174579214Y-124673150D01*
X174579211Y-124673152D01*
X174471322Y-124781041D01*
X174471317Y-124781047D01*
X174395028Y-124913183D01*
X174395027Y-124913187D01*
X174355535Y-125060572D01*
X174355535Y-125213158D01*
X174388083Y-125334628D01*
X174395028Y-125360546D01*
X174471317Y-125492682D01*
X174471319Y-125492684D01*
X174471320Y-125492686D01*
X174579214Y-125600580D01*
X174579215Y-125600581D01*
X174579217Y-125600582D01*
X174711353Y-125676871D01*
X174711354Y-125676871D01*
X174711357Y-125676873D01*
X174858742Y-125716365D01*
X174858745Y-125716365D01*
X175011325Y-125716365D01*
X175011328Y-125716365D01*
X175158713Y-125676873D01*
X175290856Y-125600580D01*
X175290856Y-125600579D01*
X175297895Y-125596516D01*
X175299321Y-125598987D01*
X175351600Y-125578766D01*
X175420047Y-125592792D01*
X175470045Y-125641597D01*
X175476498Y-125654877D01*
X175478841Y-125660534D01*
X175478849Y-125660549D01*
X175588283Y-125824327D01*
X175588286Y-125824331D01*
X175727568Y-125963613D01*
X175727572Y-125963616D01*
X175891350Y-126073050D01*
X175891363Y-126073057D01*
X176073343Y-126148434D01*
X176115035Y-126156727D01*
X176115035Y-125353853D01*
X176124975Y-125371070D01*
X176180830Y-125426925D01*
X176249239Y-125466421D01*
X176325539Y-125486865D01*
X176404531Y-125486865D01*
X176480831Y-125466421D01*
X176549240Y-125426925D01*
X176605095Y-125371070D01*
X176615035Y-125353853D01*
X176615035Y-126156727D01*
X176656725Y-126148434D01*
X176656727Y-126148434D01*
X176838706Y-126073057D01*
X176838719Y-126073050D01*
X177002497Y-125963616D01*
X177002501Y-125963613D01*
X177141783Y-125824331D01*
X177141786Y-125824327D01*
X177251220Y-125660549D01*
X177251227Y-125660536D01*
X177326604Y-125478558D01*
X177326607Y-125478546D01*
X177365034Y-125285360D01*
X177365035Y-125285357D01*
X177365035Y-124886865D01*
X176665035Y-124886865D01*
X176665035Y-124386865D01*
X177365035Y-124386865D01*
X177365035Y-123988373D01*
X177365034Y-123988369D01*
X177326607Y-123795183D01*
X177326604Y-123795171D01*
X177251227Y-123613193D01*
X177251220Y-123613180D01*
X177141786Y-123449402D01*
X177141783Y-123449398D01*
X177002501Y-123310116D01*
X177002497Y-123310113D01*
X176884365Y-123231179D01*
X176839560Y-123177567D01*
X176830853Y-123108242D01*
X176861008Y-123045214D01*
X176864668Y-123041313D01*
X177495797Y-122397391D01*
X177535447Y-122347423D01*
X177563072Y-122303960D01*
X177581516Y-122270484D01*
X177592031Y-122230341D01*
X177623396Y-122175000D01*
X177906048Y-121886445D01*
X177955026Y-121855713D01*
X177982312Y-121846518D01*
X177995030Y-121842233D01*
X177995031Y-121842232D01*
X177995041Y-121842229D01*
X178056025Y-121808130D01*
X178125107Y-121755325D01*
X178334433Y-121541757D01*
X178340872Y-121534983D01*
X178346029Y-121529389D01*
X178399306Y-121449229D01*
X178409650Y-121426578D01*
X178428325Y-121385687D01*
X178428333Y-121385667D01*
X178436122Y-121362745D01*
X178442390Y-121352551D01*
X178444088Y-121344343D01*
X178464939Y-121315881D01*
X178525217Y-121254344D01*
X178586188Y-121220229D01*
X178613796Y-121217117D01*
X179389265Y-121217117D01*
X179389267Y-121217117D01*
X179389268Y-121217117D01*
X179529278Y-121179601D01*
X179564669Y-121159168D01*
X179654808Y-121107127D01*
X185406127Y-115355805D01*
X185467450Y-115322321D01*
X185537142Y-115327305D01*
X185581489Y-115355806D01*
X185691486Y-115465803D01*
X185691488Y-115465804D01*
X185691492Y-115465807D01*
X185828411Y-115544856D01*
X185828418Y-115544860D01*
X185981145Y-115585783D01*
X185981147Y-115585783D01*
X186139257Y-115585783D01*
X186139259Y-115585783D01*
X186291986Y-115544860D01*
X186428918Y-115465803D01*
X186540722Y-115353999D01*
X186567014Y-115308457D01*
X186576765Y-115294017D01*
X186586706Y-115281320D01*
X186816946Y-114838430D01*
X186839281Y-114807950D01*
X188322085Y-113325148D01*
X188378103Y-113228122D01*
X188407100Y-113119903D01*
X188407100Y-113007867D01*
X188407100Y-97752898D01*
X188426785Y-97685859D01*
X188443419Y-97665217D01*
X188462120Y-97646516D01*
X188541177Y-97509584D01*
X188582100Y-97356857D01*
X188582100Y-97198743D01*
X188541177Y-97046016D01*
X188541173Y-97046009D01*
X188462124Y-96909090D01*
X188462118Y-96909082D01*
X188350317Y-96797281D01*
X188350309Y-96797275D01*
X188213390Y-96718226D01*
X188213386Y-96718224D01*
X188213384Y-96718223D01*
X188060657Y-96677300D01*
X187902543Y-96677300D01*
X187749816Y-96718223D01*
X187749809Y-96718226D01*
X187612890Y-96797275D01*
X187612882Y-96797281D01*
X187501081Y-96909082D01*
X187501075Y-96909090D01*
X187422026Y-97046009D01*
X187422023Y-97046016D01*
X187381100Y-97198743D01*
X187381100Y-97356857D01*
X187388012Y-97382651D01*
X187422023Y-97509583D01*
X187422026Y-97509590D01*
X187501075Y-97646509D01*
X187501081Y-97646517D01*
X187519781Y-97665217D01*
X187553266Y-97726540D01*
X187556100Y-97752898D01*
X187556100Y-99846244D01*
X187553549Y-99854929D01*
X187554838Y-99863891D01*
X187543859Y-99887931D01*
X187536415Y-99913283D01*
X187529574Y-99919210D01*
X187525813Y-99927447D01*
X187503578Y-99941736D01*
X187483611Y-99959038D01*
X187473096Y-99961325D01*
X187467035Y-99965221D01*
X187432100Y-99970244D01*
X187288501Y-99970244D01*
X187221462Y-99950559D01*
X187200820Y-99933925D01*
X186819916Y-99553021D01*
X186802330Y-99529974D01*
X186802323Y-99529980D01*
X186802197Y-99529800D01*
X186799877Y-99526759D01*
X186799034Y-99525281D01*
X186467663Y-99134258D01*
X186460751Y-99124438D01*
X186456488Y-99118882D01*
X186344687Y-99007081D01*
X186344679Y-99007075D01*
X186207760Y-98928026D01*
X186207756Y-98928024D01*
X186207754Y-98928023D01*
X186055027Y-98887100D01*
X185896913Y-98887100D01*
X185744186Y-98928023D01*
X185744179Y-98928026D01*
X185607260Y-99007075D01*
X185607252Y-99007081D01*
X185495451Y-99118882D01*
X185495445Y-99118890D01*
X185416396Y-99255809D01*
X185416393Y-99255816D01*
X185375470Y-99408543D01*
X185375470Y-99566656D01*
X185416393Y-99719383D01*
X185416393Y-99719384D01*
X185453840Y-99784245D01*
X185470311Y-99852145D01*
X185447459Y-99918172D01*
X185392537Y-99961362D01*
X185346452Y-99970244D01*
X183435064Y-99970244D01*
X183368025Y-99950559D01*
X183322270Y-99897755D01*
X183312326Y-99828597D01*
X183341351Y-99765041D01*
X183365782Y-99744868D01*
X183365472Y-99744464D01*
X183371910Y-99739523D01*
X183371916Y-99739520D01*
X183483720Y-99627716D01*
X183562777Y-99490784D01*
X183603700Y-99338057D01*
X183603700Y-99179943D01*
X183562777Y-99027216D01*
X183551149Y-99007075D01*
X183483724Y-98890290D01*
X183483718Y-98890282D01*
X183371917Y-98778481D01*
X183371909Y-98778475D01*
X183234990Y-98699426D01*
X183234986Y-98699424D01*
X183234984Y-98699423D01*
X183082257Y-98658500D01*
X182924143Y-98658500D01*
X182771416Y-98699423D01*
X182771409Y-98699426D01*
X182634490Y-98778475D01*
X182634482Y-98778481D01*
X182522681Y-98890282D01*
X182517732Y-98896732D01*
X182517224Y-98896342D01*
X182510317Y-98905742D01*
X182177433Y-99267987D01*
X182176903Y-99268565D01*
X182176902Y-99268567D01*
X182172404Y-99275801D01*
X182154785Y-99297999D01*
X181518860Y-99933925D01*
X181457537Y-99967410D01*
X181431179Y-99970244D01*
X160705700Y-99970244D01*
X160638661Y-99950559D01*
X160592906Y-99897755D01*
X160581700Y-99846244D01*
X160581700Y-85159143D01*
X166095900Y-85159143D01*
X166095900Y-85317257D01*
X166100338Y-85333820D01*
X166100655Y-85347006D01*
X166100650Y-85347110D01*
X166165543Y-85843973D01*
X166165544Y-85843975D01*
X166166529Y-85848556D01*
X166169300Y-85874624D01*
X166169300Y-96396841D01*
X166169300Y-96508877D01*
X166198297Y-96617096D01*
X166254315Y-96714122D01*
X166254317Y-96714124D01*
X166824562Y-97284369D01*
X166846902Y-97314854D01*
X167077147Y-97757751D01*
X167085141Y-97772165D01*
X167085755Y-97773205D01*
X167098226Y-97792617D01*
X167102579Y-97797974D01*
X167101797Y-97798608D01*
X167113762Y-97814200D01*
X167123129Y-97830424D01*
X167234933Y-97942228D01*
X167234935Y-97942229D01*
X167234939Y-97942232D01*
X167371858Y-98021281D01*
X167371865Y-98021285D01*
X167524592Y-98062208D01*
X167524594Y-98062208D01*
X167682704Y-98062208D01*
X167682706Y-98062208D01*
X167835433Y-98021285D01*
X167972365Y-97942228D01*
X168084169Y-97830424D01*
X168163226Y-97693492D01*
X168204149Y-97540765D01*
X168204149Y-97382651D01*
X168163226Y-97229924D01*
X168145224Y-97198743D01*
X168084173Y-97092998D01*
X168084167Y-97092990D01*
X167972366Y-96981189D01*
X167972361Y-96981185D01*
X167926821Y-96954893D01*
X167912383Y-96945144D01*
X167899687Y-96935205D01*
X167899686Y-96935204D01*
X167634377Y-96797280D01*
X167456796Y-96704962D01*
X167426311Y-96682622D01*
X167056619Y-96312930D01*
X167023134Y-96251607D01*
X167020300Y-96225249D01*
X167020300Y-85934273D01*
X167035727Y-85874374D01*
X167052499Y-85843973D01*
X167208157Y-85561827D01*
X167211825Y-85551105D01*
X167221757Y-85529253D01*
X167255977Y-85469984D01*
X167296900Y-85317257D01*
X167296900Y-85159143D01*
X167255977Y-85006416D01*
X167255973Y-85006409D01*
X167176924Y-84869490D01*
X167176918Y-84869482D01*
X167065117Y-84757681D01*
X167065109Y-84757675D01*
X166928190Y-84678626D01*
X166928186Y-84678624D01*
X166928184Y-84678623D01*
X166775457Y-84637700D01*
X166617343Y-84637700D01*
X166464616Y-84678623D01*
X166464609Y-84678626D01*
X166327690Y-84757675D01*
X166327682Y-84757681D01*
X166215881Y-84869482D01*
X166215875Y-84869490D01*
X166136826Y-85006409D01*
X166136823Y-85006416D01*
X166095900Y-85159143D01*
X160581700Y-85159143D01*
X160581700Y-79049502D01*
X184020900Y-79049502D01*
X184020900Y-79285697D01*
X184057846Y-79518968D01*
X184130833Y-79743596D01*
X184238057Y-79954033D01*
X184376883Y-80145110D01*
X184543890Y-80312117D01*
X184734967Y-80450943D01*
X184834391Y-80501602D01*
X184945403Y-80558166D01*
X184945405Y-80558166D01*
X184945408Y-80558168D01*
X185061987Y-80596047D01*
X185170031Y-80631153D01*
X185403303Y-80668100D01*
X185403308Y-80668100D01*
X185639497Y-80668100D01*
X185872768Y-80631153D01*
X185910029Y-80619046D01*
X186097392Y-80558168D01*
X186307833Y-80450943D01*
X186498910Y-80312117D01*
X186665917Y-80145110D01*
X186804743Y-79954033D01*
X186911968Y-79743592D01*
X186984953Y-79518968D01*
X187021900Y-79285697D01*
X187021900Y-79049502D01*
X187420900Y-79049502D01*
X187420900Y-79285697D01*
X187457846Y-79518968D01*
X187530833Y-79743596D01*
X187638057Y-79954033D01*
X187776883Y-80145110D01*
X187943890Y-80312117D01*
X188134967Y-80450943D01*
X188234391Y-80501602D01*
X188345403Y-80558166D01*
X188345405Y-80558166D01*
X188345408Y-80558168D01*
X188461987Y-80596047D01*
X188570031Y-80631153D01*
X188803303Y-80668100D01*
X188803308Y-80668100D01*
X189039497Y-80668100D01*
X189272768Y-80631153D01*
X189310029Y-80619046D01*
X189497392Y-80558168D01*
X189707833Y-80450943D01*
X189898910Y-80312117D01*
X190065917Y-80145110D01*
X190204743Y-79954033D01*
X190311968Y-79743592D01*
X190384953Y-79518968D01*
X190421900Y-79285697D01*
X190421900Y-79049502D01*
X190384953Y-78816231D01*
X190311966Y-78591603D01*
X190204742Y-78381166D01*
X190065917Y-78190090D01*
X189898910Y-78023083D01*
X189707833Y-77884257D01*
X189497396Y-77777033D01*
X189272768Y-77704046D01*
X189039497Y-77667100D01*
X189039492Y-77667100D01*
X188803308Y-77667100D01*
X188803303Y-77667100D01*
X188570031Y-77704046D01*
X188345403Y-77777033D01*
X188134966Y-77884257D01*
X188025950Y-77963462D01*
X187943890Y-78023083D01*
X187943888Y-78023085D01*
X187943887Y-78023085D01*
X187776885Y-78190087D01*
X187776885Y-78190088D01*
X187776883Y-78190090D01*
X187717262Y-78272150D01*
X187638057Y-78381166D01*
X187530833Y-78591603D01*
X187457846Y-78816231D01*
X187420900Y-79049502D01*
X187021900Y-79049502D01*
X186984953Y-78816231D01*
X186911966Y-78591603D01*
X186804742Y-78381166D01*
X186665917Y-78190090D01*
X186498910Y-78023083D01*
X186307833Y-77884257D01*
X186097396Y-77777033D01*
X185872768Y-77704046D01*
X185639497Y-77667100D01*
X185639492Y-77667100D01*
X185403308Y-77667100D01*
X185403303Y-77667100D01*
X185170031Y-77704046D01*
X184945403Y-77777033D01*
X184734966Y-77884257D01*
X184625950Y-77963462D01*
X184543890Y-78023083D01*
X184543888Y-78023085D01*
X184543887Y-78023085D01*
X184376885Y-78190087D01*
X184376885Y-78190088D01*
X184376883Y-78190090D01*
X184317262Y-78272150D01*
X184238057Y-78381166D01*
X184130833Y-78591603D01*
X184057846Y-78816231D01*
X184020900Y-79049502D01*
X160581700Y-79049502D01*
X160581700Y-70342619D01*
X160601385Y-70275580D01*
X160618014Y-70254943D01*
X161337309Y-69535648D01*
X162878943Y-69535648D01*
X162878943Y-74776400D01*
X162878944Y-74776409D01*
X162885924Y-74841335D01*
X162885926Y-74841347D01*
X162897131Y-74892853D01*
X162908087Y-74931054D01*
X162908089Y-74931058D01*
X162964766Y-75027968D01*
X162964768Y-75027971D01*
X163010524Y-75080776D01*
X163010534Y-75080787D01*
X163055250Y-75122948D01*
X163055252Y-75122949D01*
X163055256Y-75122953D01*
X163155332Y-75173839D01*
X163222371Y-75193524D01*
X163308443Y-75205900D01*
X163308446Y-75205900D01*
X179951433Y-75205900D01*
X179951443Y-75205900D01*
X180016384Y-75198918D01*
X180067895Y-75187712D01*
X180106101Y-75176754D01*
X180203014Y-75120075D01*
X180255818Y-75074320D01*
X180255825Y-75074312D01*
X180255830Y-75074308D01*
X180297991Y-75029592D01*
X180297996Y-75029587D01*
X180348882Y-74929511D01*
X180368567Y-74862472D01*
X180380943Y-74776400D01*
X180380943Y-69535648D01*
X180373961Y-69470707D01*
X180362755Y-69419196D01*
X180352241Y-69382537D01*
X180351798Y-69380993D01*
X180351797Y-69380992D01*
X180351797Y-69380990D01*
X180295118Y-69284077D01*
X180249363Y-69231273D01*
X180249361Y-69231271D01*
X180249351Y-69231260D01*
X180204635Y-69189099D01*
X180204632Y-69189097D01*
X180204630Y-69189095D01*
X180104554Y-69138209D01*
X180104553Y-69138208D01*
X180104552Y-69138208D01*
X180037521Y-69118525D01*
X180037515Y-69118524D01*
X179951443Y-69106148D01*
X163308443Y-69106148D01*
X163308434Y-69106148D01*
X163308433Y-69106149D01*
X163243507Y-69113129D01*
X163243495Y-69113131D01*
X163191989Y-69124336D01*
X163153788Y-69135292D01*
X163153784Y-69135294D01*
X163056874Y-69191971D01*
X163056871Y-69191973D01*
X163004066Y-69237729D01*
X163004055Y-69237739D01*
X162961894Y-69282455D01*
X162961888Y-69282464D01*
X162911003Y-69382538D01*
X162891320Y-69449569D01*
X162891319Y-69449576D01*
X162878943Y-69535648D01*
X161337309Y-69535648D01*
X164387262Y-66485694D01*
X164417373Y-66463551D01*
X164859806Y-66231647D01*
X164873719Y-66223885D01*
X164873741Y-66223873D01*
X164874777Y-66223259D01*
X164893728Y-66211061D01*
X164893734Y-66211054D01*
X164899068Y-66206718D01*
X164899765Y-66207576D01*
X164915431Y-66195405D01*
X164931516Y-66186120D01*
X165043320Y-66074316D01*
X165122377Y-65937384D01*
X165163300Y-65784657D01*
X165163300Y-65626543D01*
X165122377Y-65473816D01*
X165069826Y-65382794D01*
X165043324Y-65336890D01*
X165043318Y-65336882D01*
X164931517Y-65225081D01*
X164931509Y-65225075D01*
X164794590Y-65146026D01*
X164794586Y-65146024D01*
X164794584Y-65146023D01*
X164641857Y-65105100D01*
X164483743Y-65105100D01*
X164362194Y-65137669D01*
X164292344Y-65136006D01*
X164234482Y-65096843D01*
X164206978Y-65032615D01*
X164206101Y-65017894D01*
X164206101Y-64095379D01*
X164225786Y-64028340D01*
X164278590Y-63982585D01*
X164347748Y-63972641D01*
X164392100Y-63987991D01*
X164508816Y-64055377D01*
X164661543Y-64096300D01*
X164661545Y-64096300D01*
X164819655Y-64096300D01*
X164819657Y-64096300D01*
X164972384Y-64055377D01*
X165109316Y-63976320D01*
X165128017Y-63957619D01*
X165189340Y-63924134D01*
X165215698Y-63921300D01*
X174449189Y-63921300D01*
X174516228Y-63940985D01*
X174536870Y-63957619D01*
X174661715Y-64082464D01*
X174740937Y-64161686D01*
X174837963Y-64217704D01*
X174946182Y-64246701D01*
X174946184Y-64246701D01*
X176696815Y-64246701D01*
X176696817Y-64246701D01*
X176805036Y-64217704D01*
X176902062Y-64161686D01*
X178532370Y-62531376D01*
X178591543Y-62498380D01*
X179768818Y-62220321D01*
X179777872Y-62218538D01*
X179905209Y-62198371D01*
X180077439Y-62142411D01*
X180238794Y-62060196D01*
X180333520Y-61991374D01*
X180389243Y-61950890D01*
X180390218Y-61952232D01*
X180447360Y-61926600D01*
X180516450Y-61937009D01*
X180568945Y-61983119D01*
X180588180Y-62049129D01*
X180589570Y-62579723D01*
X180589570Y-62579741D01*
X180591870Y-62616351D01*
X180591872Y-62616374D01*
X180595511Y-62645851D01*
X180597066Y-62656810D01*
X180634906Y-62762503D01*
X180634910Y-62762512D01*
X180670139Y-62822832D01*
X180670141Y-62822834D01*
X180670145Y-62822840D01*
X180724238Y-62890922D01*
X180724240Y-62890924D01*
X180724241Y-62890925D01*
X181281253Y-63416743D01*
X183196863Y-65225075D01*
X183268420Y-65292624D01*
X183303657Y-65352958D01*
X183307300Y-65382794D01*
X183307300Y-73785800D01*
X183307301Y-73785809D01*
X183314281Y-73850735D01*
X183314283Y-73850747D01*
X183325488Y-73902253D01*
X183336444Y-73940454D01*
X183336446Y-73940458D01*
X183393123Y-74037368D01*
X183393125Y-74037371D01*
X183438881Y-74090176D01*
X183438891Y-74090187D01*
X183483607Y-74132348D01*
X183483609Y-74132349D01*
X183483613Y-74132353D01*
X183583689Y-74183239D01*
X183650728Y-74202924D01*
X183736800Y-74215300D01*
X183736803Y-74215300D01*
X190462189Y-74215300D01*
X190462199Y-74215300D01*
X190527140Y-74208318D01*
X190578651Y-74197112D01*
X190616857Y-74186154D01*
X190713770Y-74129475D01*
X190766574Y-74083720D01*
X190766581Y-74083712D01*
X190766586Y-74083708D01*
X190808747Y-74038992D01*
X190808752Y-74038987D01*
X190859638Y-73938911D01*
X190879323Y-73871872D01*
X190891699Y-73785800D01*
X190891699Y-64889800D01*
X190884717Y-64824859D01*
X190873511Y-64773348D01*
X190862553Y-64735142D01*
X190805874Y-64638229D01*
X190760119Y-64585425D01*
X190760117Y-64585423D01*
X190760107Y-64585412D01*
X190715391Y-64543251D01*
X190715388Y-64543249D01*
X190715386Y-64543247D01*
X190615310Y-64492361D01*
X190615309Y-64492360D01*
X190615308Y-64492360D01*
X190548277Y-64472677D01*
X190548271Y-64472676D01*
X190462199Y-64460300D01*
X190462196Y-64460300D01*
X186873731Y-64460300D01*
X186806692Y-64440615D01*
X186791790Y-64429368D01*
X186584316Y-64246701D01*
X185125016Y-62961882D01*
X184722359Y-62607369D01*
X184685051Y-62548295D01*
X184680300Y-62514301D01*
X184680300Y-57549210D01*
X184680300Y-57549200D01*
X184673318Y-57484259D01*
X184662112Y-57432748D01*
X184651154Y-57394542D01*
X184594475Y-57297629D01*
X184548720Y-57244825D01*
X184548718Y-57244823D01*
X184548708Y-57244812D01*
X184503992Y-57202651D01*
X184503989Y-57202649D01*
X184503987Y-57202647D01*
X184403911Y-57151761D01*
X184403910Y-57151760D01*
X184403909Y-57151760D01*
X184336878Y-57132077D01*
X184336872Y-57132076D01*
X184250800Y-57119700D01*
X163693023Y-57119700D01*
X163693014Y-57119700D01*
X163693013Y-57119701D01*
X163628087Y-57126681D01*
X163628075Y-57126683D01*
X163576569Y-57137888D01*
X163538368Y-57148844D01*
X163538364Y-57148846D01*
X163441454Y-57205523D01*
X163441451Y-57205525D01*
X163388646Y-57251281D01*
X163388635Y-57251291D01*
X163346474Y-57296007D01*
X163346468Y-57296016D01*
X163295583Y-57396090D01*
X163275900Y-57463121D01*
X163275899Y-57463128D01*
X163263525Y-57549190D01*
X163263523Y-57549202D01*
X163263523Y-58761925D01*
X163243838Y-58828964D01*
X163191034Y-58874719D01*
X163121876Y-58884663D01*
X163058320Y-58855638D01*
X163051842Y-58849606D01*
X162950317Y-58748081D01*
X162950309Y-58748075D01*
X162813390Y-58669026D01*
X162813386Y-58669024D01*
X162813384Y-58669023D01*
X162660657Y-58628100D01*
X162502543Y-58628100D01*
X162349816Y-58669023D01*
X162349814Y-58669023D01*
X162341965Y-58671127D01*
X162341779Y-58670434D01*
X162303237Y-58678100D01*
X156337825Y-58678100D01*
X156210969Y-58712091D01*
X156210968Y-58712090D01*
X156197816Y-58715615D01*
X156197811Y-58715617D01*
X156072289Y-58788087D01*
X156072284Y-58788091D01*
X155952891Y-58907482D01*
X155909611Y-58935578D01*
X154939374Y-59307657D01*
X154701477Y-59398889D01*
X154668326Y-59411602D01*
X154623926Y-59419824D01*
X154175474Y-59419824D01*
X154136429Y-59424512D01*
X154087014Y-59430446D01*
X153946232Y-59485963D01*
X153825653Y-59577401D01*
X153734215Y-59697980D01*
X153678698Y-59838762D01*
X153674131Y-59876799D01*
X153668076Y-59927222D01*
X153668076Y-61713426D01*
X153671351Y-61740697D01*
X153678698Y-61801885D01*
X153678698Y-61801887D01*
X153678699Y-61801888D01*
X153688090Y-61825701D01*
X153734215Y-61942667D01*
X153825653Y-62063246D01*
X153946232Y-62154684D01*
X153946233Y-62154684D01*
X153946234Y-62154685D01*
X154087012Y-62210201D01*
X154175474Y-62220824D01*
X154175479Y-62220824D01*
X155461673Y-62220824D01*
X155461678Y-62220824D01*
X155550140Y-62210201D01*
X155690918Y-62154685D01*
X155811498Y-62063246D01*
X155902937Y-61942666D01*
X155954009Y-61813156D01*
X155996914Y-61758014D01*
X156062822Y-61734821D01*
X156130806Y-61750941D01*
X156169681Y-61785763D01*
X156288848Y-61949783D01*
X156288852Y-61949788D01*
X156439111Y-62100047D01*
X156439116Y-62100051D01*
X156611018Y-62224944D01*
X156800358Y-62321419D01*
X157002447Y-62387081D01*
X157068576Y-62397555D01*
X157068576Y-61368806D01*
X157086985Y-61379435D01*
X157239585Y-61420324D01*
X157397567Y-61420324D01*
X157550167Y-61379435D01*
X157568576Y-61368806D01*
X157568576Y-62397554D01*
X157583925Y-62395124D01*
X157653218Y-62404078D01*
X157706670Y-62449074D01*
X157717884Y-62470144D01*
X157767018Y-62588764D01*
X157866006Y-62736912D01*
X157991988Y-62862894D01*
X157991991Y-62862896D01*
X158140135Y-62961882D01*
X158304743Y-63030065D01*
X158304747Y-63030065D01*
X158304748Y-63030066D01*
X158479488Y-63064825D01*
X158479491Y-63064825D01*
X158657663Y-63064825D01*
X158823646Y-63031808D01*
X158832409Y-63030065D01*
X158997017Y-62961882D01*
X159145161Y-62862896D01*
X159271147Y-62736910D01*
X159370133Y-62588766D01*
X159438316Y-62424158D01*
X159463116Y-62299482D01*
X159466171Y-62293639D01*
X159466266Y-62287044D01*
X159482167Y-62263060D01*
X159495501Y-62237571D01*
X159501231Y-62234307D01*
X159504876Y-62228811D01*
X159531215Y-62217233D01*
X159556216Y-62202997D01*
X159564293Y-62202693D01*
X159568839Y-62200696D01*
X159604122Y-62201198D01*
X159676500Y-62212662D01*
X159685547Y-62214444D01*
X160862831Y-62492504D01*
X160922007Y-62525502D01*
X161423974Y-63027469D01*
X161423984Y-63027480D01*
X161507538Y-63111034D01*
X161533103Y-63125793D01*
X161584236Y-63155315D01*
X161604563Y-63167051D01*
X161712781Y-63196048D01*
X161712782Y-63196048D01*
X162335835Y-63196048D01*
X162402874Y-63215733D01*
X162448629Y-63268537D01*
X162458573Y-63337695D01*
X162455610Y-63352141D01*
X162438300Y-63416743D01*
X162438300Y-63574856D01*
X162479223Y-63727583D01*
X162479226Y-63727590D01*
X162558275Y-63864509D01*
X162558281Y-63864517D01*
X162576981Y-63883217D01*
X162610466Y-63944540D01*
X162613300Y-63970898D01*
X162613300Y-65630390D01*
X162593615Y-65697429D01*
X162576981Y-65718071D01*
X158913717Y-69381334D01*
X158913713Y-69381340D01*
X158857698Y-69478360D01*
X158857697Y-69478363D01*
X158828700Y-69586582D01*
X158828700Y-80237135D01*
X158809015Y-80304174D01*
X158756211Y-80349929D01*
X158704656Y-80361135D01*
X153307553Y-80359227D01*
X153240521Y-80339519D01*
X153194784Y-80286699D01*
X153183597Y-80235227D01*
X153183598Y-77884257D01*
X153183600Y-66112000D01*
X152547238Y-66112000D01*
X152480199Y-66092315D01*
X152434444Y-66039511D01*
X152423238Y-65988020D01*
X152423181Y-65630390D01*
X152422790Y-63167049D01*
X152421674Y-56131750D01*
X152441348Y-56064707D01*
X152494145Y-56018944D01*
X152545674Y-56007730D01*
X187324244Y-56007730D01*
X187391283Y-56027415D01*
G37*
%TD.AperFunction*%
%TD*%
%TA.AperFunction,Conductor*%
%TO.N,/Current Sense/OUT+*%
G36*
X130319531Y-93044076D02*
G01*
X130320469Y-93045780D01*
X130429003Y-93288947D01*
X130429620Y-93290688D01*
X130441651Y-93335592D01*
X130441653Y-93335596D01*
X130477352Y-93397427D01*
X130477904Y-93398508D01*
X130574694Y-93615362D01*
X130574937Y-93624314D01*
X130568779Y-93630815D01*
X130564010Y-93631831D01*
X130334409Y-93631831D01*
X130329866Y-93630913D01*
X130329633Y-93630815D01*
X130292956Y-93615362D01*
X129911753Y-93454754D01*
X129905460Y-93448384D01*
X129905514Y-93439429D01*
X129906553Y-93437495D01*
X130064088Y-93200781D01*
X130067351Y-93197521D01*
X130303313Y-93040802D01*
X130312099Y-93039080D01*
X130319531Y-93044076D01*
G37*
%TD.AperFunction*%
%TD*%
%TA.AperFunction,Conductor*%
%TO.N,/Current Sense/I_OUT*%
G36*
X131787247Y-104823210D02*
G01*
X131788156Y-104824852D01*
X132015259Y-105326447D01*
X132015550Y-105335397D01*
X132012874Y-105339546D01*
X131848249Y-105504171D01*
X131839976Y-105507598D01*
X131834005Y-105505960D01*
X131830990Y-105504171D01*
X131546599Y-105335397D01*
X131376953Y-105234719D01*
X131371587Y-105227549D01*
X131372862Y-105218686D01*
X131373159Y-105218213D01*
X131531030Y-104980263D01*
X131534308Y-104976985D01*
X131771031Y-104819928D01*
X131779818Y-104818210D01*
X131787247Y-104823210D01*
G37*
%TD.AperFunction*%
%TD*%
%TA.AperFunction,Conductor*%
%TO.N,/CAN/CAN1_TX*%
G36*
X156457332Y-102539922D02*
G01*
X156461861Y-102545768D01*
X156901316Y-103797225D01*
X156900824Y-103806166D01*
X156898550Y-103809374D01*
X156732182Y-103975742D01*
X156723909Y-103979169D01*
X156720033Y-103978508D01*
X155468576Y-103539053D01*
X155461905Y-103533079D01*
X155460975Y-103525746D01*
X155622606Y-102709003D01*
X155627573Y-102701553D01*
X155631811Y-102699798D01*
X156448553Y-102538167D01*
X156457332Y-102539922D01*
G37*
%TD.AperFunction*%
%TD*%
%TA.AperFunction,Conductor*%
%TO.N,+5V*%
G36*
X181587110Y-100304535D02*
G01*
X181856064Y-100573489D01*
X181859491Y-100581762D01*
X181857372Y-100588477D01*
X181557386Y-101016531D01*
X181549832Y-101021339D01*
X181541337Y-101019565D01*
X181302665Y-100861215D01*
X181299384Y-100857934D01*
X181141034Y-100619262D01*
X181139315Y-100610474D01*
X181144066Y-100603215D01*
X181572124Y-100303226D01*
X181580864Y-100301285D01*
X181587110Y-100304535D01*
G37*
%TD.AperFunction*%
%TD*%
%TA.AperFunction,Conductor*%
%TO.N,+24V_In*%
G36*
X184317839Y-57444885D02*
G01*
X184363594Y-57497689D01*
X184374800Y-57549200D01*
X184374800Y-62708400D01*
X184374799Y-62708400D01*
X185543200Y-63737100D01*
X186711600Y-64765800D01*
X190462199Y-64765800D01*
X190529238Y-64785485D01*
X190574993Y-64838289D01*
X190586199Y-64889800D01*
X190586199Y-73785800D01*
X190566514Y-73852839D01*
X190513710Y-73898594D01*
X190462199Y-73909800D01*
X183736800Y-73909800D01*
X183669761Y-73890115D01*
X183624006Y-73837311D01*
X183612800Y-73785800D01*
X183612800Y-65197600D01*
X180933949Y-62668770D01*
X180898712Y-62608436D01*
X180895069Y-62578929D01*
X180885833Y-59050800D01*
X180885832Y-59050800D01*
X167046886Y-59050800D01*
X167046886Y-62321048D01*
X167027201Y-62388087D01*
X166974397Y-62433842D01*
X166922886Y-62445048D01*
X164618612Y-62445048D01*
X164618608Y-62445047D01*
X164532903Y-62445047D01*
X164532899Y-62445048D01*
X163693023Y-62445048D01*
X163625984Y-62425363D01*
X163580229Y-62372559D01*
X163569023Y-62321048D01*
X163569023Y-57549200D01*
X163588708Y-57482161D01*
X163641512Y-57436406D01*
X163693023Y-57425200D01*
X184250800Y-57425200D01*
X184317839Y-57444885D01*
G37*
%TD.AperFunction*%
%TD*%
%TA.AperFunction,Conductor*%
%TO.N,+5V_VBUS*%
G36*
X174153331Y-118073791D02*
G01*
X174156215Y-118078540D01*
X174318947Y-118593662D01*
X174318171Y-118602583D01*
X174311314Y-118608343D01*
X174310110Y-118608654D01*
X174030952Y-118665130D01*
X174026312Y-118665130D01*
X173793185Y-118617966D01*
X173747152Y-118608653D01*
X173739724Y-118603654D01*
X173738005Y-118594866D01*
X173738312Y-118593675D01*
X173901049Y-118078539D01*
X173906809Y-118071683D01*
X173912206Y-118070364D01*
X174145058Y-118070364D01*
X174153331Y-118073791D01*
G37*
%TD.AperFunction*%
%TD*%
%TA.AperFunction,Conductor*%
%TO.N,+3.3V HV*%
G36*
X138527554Y-80264380D02*
G01*
X138573309Y-80317184D01*
X138584515Y-80368695D01*
X138584515Y-94880199D01*
X140040434Y-94880199D01*
X140107473Y-94899884D01*
X140153228Y-94952688D01*
X140160206Y-94972099D01*
X140166341Y-94994995D01*
X140169608Y-95007187D01*
X140199590Y-95059117D01*
X140235500Y-95121314D01*
X140328686Y-95214500D01*
X140442814Y-95280392D01*
X140570108Y-95314500D01*
X140570110Y-95314500D01*
X140701890Y-95314500D01*
X140701892Y-95314500D01*
X140829186Y-95280392D01*
X140943314Y-95214500D01*
X141036500Y-95121314D01*
X141102392Y-95007186D01*
X141102393Y-95007183D01*
X141104102Y-95003058D01*
X141147940Y-94948652D01*
X141214233Y-94926584D01*
X141281933Y-94943860D01*
X141329546Y-94994995D01*
X141338438Y-95018408D01*
X141352403Y-95070526D01*
X141363408Y-95111597D01*
X141396354Y-95168660D01*
X141429300Y-95225724D01*
X141522486Y-95318910D01*
X141636614Y-95384802D01*
X141763908Y-95418910D01*
X141763910Y-95418910D01*
X141895690Y-95418910D01*
X141895692Y-95418910D01*
X142022986Y-95384802D01*
X142137114Y-95318910D01*
X142230300Y-95225724D01*
X142296192Y-95111596D01*
X142296192Y-95111593D01*
X142298653Y-95107332D01*
X142349220Y-95059117D01*
X142417826Y-95045893D01*
X142482691Y-95071861D01*
X142513426Y-95107330D01*
X142521500Y-95121314D01*
X142614686Y-95214500D01*
X142728814Y-95280392D01*
X142856108Y-95314500D01*
X142856110Y-95314500D01*
X142987890Y-95314500D01*
X142987892Y-95314500D01*
X143115186Y-95280392D01*
X143229314Y-95214500D01*
X143322500Y-95121314D01*
X143388392Y-95007186D01*
X143397792Y-94972104D01*
X143434155Y-94912446D01*
X143497002Y-94881916D01*
X143517566Y-94880199D01*
X143684000Y-94880199D01*
X143684000Y-94450187D01*
X143688225Y-94418093D01*
X143689456Y-94413500D01*
X143699300Y-94376762D01*
X143699300Y-88308047D01*
X143718985Y-88241008D01*
X143771789Y-88195253D01*
X143823300Y-88184047D01*
X151863566Y-88184047D01*
X151930605Y-88203732D01*
X151976360Y-88256536D01*
X151987566Y-88308047D01*
X151987566Y-98271400D01*
X151967881Y-98338439D01*
X151915077Y-98384194D01*
X151863566Y-98395400D01*
X149142000Y-98395400D01*
X149074961Y-98375715D01*
X149029206Y-98322911D01*
X149018000Y-98271400D01*
X149018000Y-96592000D01*
X137014866Y-96592000D01*
X136947827Y-96572315D01*
X136902072Y-96519511D01*
X136890866Y-96467829D01*
X136913112Y-80368524D01*
X136932889Y-80301511D01*
X136985756Y-80255830D01*
X137037112Y-80244695D01*
X138460515Y-80244695D01*
X138527554Y-80264380D01*
G37*
%TD.AperFunction*%
%TD*%
%TA.AperFunction,Conductor*%
%TO.N,/Current Sense/OUT+*%
G36*
X130582027Y-107040216D02*
G01*
X130584793Y-107044611D01*
X130765781Y-107559817D01*
X130765290Y-107568759D01*
X130758620Y-107574734D01*
X130757062Y-107575163D01*
X130478320Y-107631555D01*
X130473680Y-107631555D01*
X130222953Y-107580831D01*
X130194110Y-107574995D01*
X130186682Y-107569996D01*
X130184963Y-107561208D01*
X130185161Y-107560388D01*
X130329649Y-107045328D01*
X130335183Y-107038289D01*
X130340914Y-107036789D01*
X130573754Y-107036789D01*
X130582027Y-107040216D01*
G37*
%TD.AperFunction*%
%TD*%
%TA.AperFunction,Conductor*%
%TO.N,/CAN_LOW*%
G36*
X177141502Y-60838523D02*
G01*
X177143804Y-60841702D01*
X177604218Y-61775211D01*
X177604804Y-61784146D01*
X177601771Y-61788881D01*
X177153326Y-62213632D01*
X176986780Y-62380178D01*
X176978507Y-62383605D01*
X176970234Y-62380178D01*
X176968699Y-62378283D01*
X176792192Y-62106857D01*
X176790300Y-62100479D01*
X176790300Y-62077116D01*
X176755540Y-61902368D01*
X176687357Y-61737760D01*
X176687355Y-61737757D01*
X176687353Y-61737753D01*
X176588371Y-61589616D01*
X176588368Y-61589612D01*
X176495729Y-61496974D01*
X176492302Y-61488701D01*
X176495645Y-61480515D01*
X177124958Y-60838685D01*
X177133196Y-60835178D01*
X177141502Y-60838523D01*
G37*
%TD.AperFunction*%
%TD*%
%TA.AperFunction,Conductor*%
%TO.N,/MCU/NRST*%
G36*
X145451053Y-120969391D02*
G01*
X145453937Y-120974140D01*
X145616669Y-121489262D01*
X145615893Y-121498183D01*
X145609036Y-121503943D01*
X145607832Y-121504254D01*
X145328674Y-121560730D01*
X145324034Y-121560730D01*
X145090907Y-121513566D01*
X145044874Y-121504253D01*
X145037446Y-121499254D01*
X145035727Y-121490466D01*
X145036034Y-121489275D01*
X145198771Y-120974139D01*
X145204531Y-120967283D01*
X145209928Y-120965964D01*
X145442780Y-120965964D01*
X145451053Y-120969391D01*
G37*
%TD.AperFunction*%
%TD*%
%TA.AperFunction,Conductor*%
%TO.N,/MCU/USB_Boot_GPIO*%
G36*
X170076679Y-113640546D02*
G01*
X170084107Y-113645545D01*
X170085826Y-113654333D01*
X170085515Y-113655537D01*
X169922783Y-114170660D01*
X169917023Y-114177517D01*
X169911626Y-114178836D01*
X169678774Y-114178836D01*
X169670501Y-114175409D01*
X169667617Y-114170660D01*
X169504884Y-113655537D01*
X169505660Y-113646616D01*
X169512517Y-113640856D01*
X169513700Y-113640550D01*
X169792882Y-113584069D01*
X169797518Y-113584069D01*
X170076679Y-113640546D01*
G37*
%TD.AperFunction*%
%TD*%
%TA.AperFunction,Conductor*%
%TO.N,+3.3V*%
G36*
X133560042Y-89728285D02*
G01*
X133605797Y-89781089D01*
X133617003Y-89832786D01*
X133601298Y-100326360D01*
X133601299Y-100326359D01*
X133601299Y-100326360D01*
X158804703Y-100326096D01*
X158871738Y-100345779D01*
X158917494Y-100398582D01*
X158928700Y-100450095D01*
X158928700Y-102680052D01*
X158950882Y-102762840D01*
X158972308Y-102799950D01*
X158993735Y-102837062D01*
X158993736Y-102837063D01*
X158993737Y-102837064D01*
X162392127Y-106235453D01*
X162414467Y-106265938D01*
X162651823Y-106722513D01*
X162657212Y-106732231D01*
X162657823Y-106733265D01*
X162657825Y-106733267D01*
X162657827Y-106733270D01*
X162659113Y-106734635D01*
X162676267Y-106757687D01*
X162689100Y-106779914D01*
X162782286Y-106873100D01*
X162896414Y-106938992D01*
X163023708Y-106973100D01*
X163023710Y-106973100D01*
X163155490Y-106973100D01*
X163155492Y-106973100D01*
X163282786Y-106938992D01*
X163289297Y-106935232D01*
X163357195Y-106918758D01*
X163423223Y-106941608D01*
X163466416Y-106996527D01*
X163475300Y-107042618D01*
X163475300Y-108224727D01*
X163469540Y-108262080D01*
X163314532Y-108752748D01*
X163311475Y-108763415D01*
X163311178Y-108764566D01*
X163311176Y-108764580D01*
X163311121Y-108766467D01*
X163306952Y-108794877D01*
X163300300Y-108819702D01*
X163300300Y-108951491D01*
X163334408Y-109078787D01*
X163367354Y-109135850D01*
X163400300Y-109192914D01*
X163493486Y-109286100D01*
X163607614Y-109351992D01*
X163734908Y-109386100D01*
X163734910Y-109386100D01*
X163866690Y-109386100D01*
X163866692Y-109386100D01*
X163993986Y-109351992D01*
X164108114Y-109286100D01*
X164201300Y-109192914D01*
X164267192Y-109078786D01*
X164301300Y-108951492D01*
X164301300Y-108819708D01*
X164292100Y-108785375D01*
X164288619Y-108766843D01*
X164287069Y-108752760D01*
X164287068Y-108752755D01*
X164132060Y-108262082D01*
X164126300Y-108224729D01*
X164126300Y-106484691D01*
X164145985Y-106417652D01*
X164162619Y-106397010D01*
X165782610Y-104777019D01*
X165843933Y-104743534D01*
X165870291Y-104740700D01*
X167175503Y-104740700D01*
X167242542Y-104760385D01*
X167255972Y-104770357D01*
X167422972Y-104912798D01*
X168011222Y-105414541D01*
X168045151Y-105434410D01*
X168074569Y-105454067D01*
X168133052Y-105465700D01*
X168138324Y-105465700D01*
X168140526Y-105466158D01*
X168143231Y-105465700D01*
X168145804Y-105465700D01*
X168147345Y-105466230D01*
X168153656Y-105465700D01*
X169544612Y-105465700D01*
X169611651Y-105485385D01*
X169657406Y-105538189D01*
X169667350Y-105607347D01*
X169638325Y-105670903D01*
X169632293Y-105677380D01*
X165791013Y-109518660D01*
X161996745Y-113312928D01*
X161935422Y-113346413D01*
X161909064Y-113349247D01*
X152641394Y-113349247D01*
X152609309Y-113345023D01*
X152606608Y-113344300D01*
X152606604Y-113344300D01*
X148943676Y-113344300D01*
X148876637Y-113324615D01*
X148855995Y-113307981D01*
X148817316Y-113269302D01*
X148817314Y-113269300D01*
X148760250Y-113236354D01*
X148703187Y-113203408D01*
X148631127Y-113184100D01*
X148575892Y-113169300D01*
X148444108Y-113169300D01*
X148316812Y-113203408D01*
X148202686Y-113269300D01*
X148202683Y-113269302D01*
X148109502Y-113362483D01*
X148109500Y-113362486D01*
X148043608Y-113476612D01*
X148009500Y-113603908D01*
X148009500Y-113735691D01*
X148043608Y-113862987D01*
X148076554Y-113920050D01*
X148109500Y-113977114D01*
X148202686Y-114070300D01*
X148316814Y-114136192D01*
X148444108Y-114170300D01*
X148444110Y-114170300D01*
X148575890Y-114170300D01*
X148575892Y-114170300D01*
X148703186Y-114136192D01*
X148817314Y-114070300D01*
X148855995Y-114031619D01*
X148917318Y-113998134D01*
X148943676Y-113995300D01*
X152491063Y-113995300D01*
X152523147Y-113999523D01*
X152525849Y-114000247D01*
X152525853Y-114000247D01*
X162138104Y-114000247D01*
X162138106Y-114000247D01*
X162220892Y-113978065D01*
X162295115Y-113935212D01*
X170378659Y-105851666D01*
X170378662Y-105851665D01*
X170439265Y-105791062D01*
X170478565Y-105722992D01*
X170482118Y-105716839D01*
X170504300Y-105634053D01*
X170504300Y-105548347D01*
X170504300Y-105160267D01*
X170523985Y-105093228D01*
X170576789Y-105047473D01*
X170645947Y-105037529D01*
X170709503Y-105066554D01*
X170724155Y-105081604D01*
X170726827Y-105084860D01*
X170873142Y-105231175D01*
X170873145Y-105231177D01*
X171045202Y-105346141D01*
X171236380Y-105425330D01*
X171380852Y-105454067D01*
X171439330Y-105465699D01*
X171439334Y-105465700D01*
X171439335Y-105465700D01*
X171646266Y-105465700D01*
X171646267Y-105465699D01*
X171849220Y-105425330D01*
X172040398Y-105346141D01*
X172212455Y-105231177D01*
X172358777Y-105084855D01*
X172473741Y-104912798D01*
X172552930Y-104721620D01*
X172593300Y-104518665D01*
X172593300Y-104311735D01*
X172552930Y-104108780D01*
X172473741Y-103917602D01*
X172358777Y-103745545D01*
X172358775Y-103745542D01*
X172212457Y-103599224D01*
X172090897Y-103518001D01*
X172040398Y-103484259D01*
X171849220Y-103405070D01*
X171849212Y-103405068D01*
X171646269Y-103364700D01*
X171646265Y-103364700D01*
X171439335Y-103364700D01*
X171439330Y-103364700D01*
X171236387Y-103405068D01*
X171236379Y-103405070D01*
X171045203Y-103484258D01*
X170873142Y-103599224D01*
X170726824Y-103745542D01*
X170724150Y-103748801D01*
X170666402Y-103788133D01*
X170596558Y-103790000D01*
X170536791Y-103753811D01*
X170506078Y-103691053D01*
X170504300Y-103670132D01*
X170504300Y-103104949D01*
X170504299Y-103104945D01*
X170503077Y-103100385D01*
X170492100Y-103059416D01*
X170482118Y-103022161D01*
X170460691Y-102985050D01*
X170439265Y-102947938D01*
X170378662Y-102887335D01*
X170378661Y-102887334D01*
X170374331Y-102883004D01*
X170374320Y-102882994D01*
X169982364Y-102491037D01*
X169982363Y-102491036D01*
X169982362Y-102491035D01*
X169908139Y-102448182D01*
X169825353Y-102425999D01*
X169739647Y-102425999D01*
X169739646Y-102425999D01*
X169731590Y-102427060D01*
X169731555Y-102426797D01*
X169709510Y-102429700D01*
X161425589Y-102429700D01*
X161358550Y-102410015D01*
X161337908Y-102393381D01*
X160518019Y-101573492D01*
X160484534Y-101512169D01*
X160481700Y-101485811D01*
X160481700Y-100450076D01*
X160501385Y-100383037D01*
X160554189Y-100337282D01*
X160605692Y-100326077D01*
X180827559Y-100325865D01*
X180894596Y-100345549D01*
X180940352Y-100398352D01*
X180950296Y-100467511D01*
X180921272Y-100531067D01*
X180915241Y-100537544D01*
X180900903Y-100551881D01*
X180900900Y-100551886D01*
X180835008Y-100666012D01*
X180800900Y-100793308D01*
X180800900Y-100925091D01*
X180835008Y-101052387D01*
X180843742Y-101067514D01*
X180900900Y-101166514D01*
X180994086Y-101259700D01*
X181108214Y-101325592D01*
X181235508Y-101359700D01*
X181235510Y-101359700D01*
X181367290Y-101359700D01*
X181367292Y-101359700D01*
X181494586Y-101325592D01*
X181608714Y-101259700D01*
X181701900Y-101166514D01*
X181705033Y-101161086D01*
X181722059Y-101139402D01*
X181721702Y-101139095D01*
X181725667Y-101134475D01*
X181725674Y-101134469D01*
X182025660Y-100706415D01*
X182025659Y-100706415D01*
X182028382Y-100702531D01*
X182028687Y-100702745D01*
X182044090Y-100682900D01*
X182364826Y-100362165D01*
X182426146Y-100328682D01*
X182452495Y-100325848D01*
X186125717Y-100325810D01*
X186192752Y-100345493D01*
X186213395Y-100362128D01*
X186918781Y-101067514D01*
X186952266Y-101128837D01*
X186955100Y-101155195D01*
X186955100Y-112259269D01*
X186935415Y-112326308D01*
X186919657Y-112346066D01*
X182944609Y-116401688D01*
X182943733Y-116402572D01*
X179166509Y-120179798D01*
X179105186Y-120213283D01*
X179078828Y-120216117D01*
X177775320Y-120216117D01*
X177722632Y-120201998D01*
X177722079Y-120203336D01*
X177714571Y-120200226D01*
X177714569Y-120200225D01*
X177587275Y-120166117D01*
X177455491Y-120166117D01*
X177328195Y-120200225D01*
X177214069Y-120266117D01*
X177214066Y-120266119D01*
X177120885Y-120359300D01*
X177120883Y-120359303D01*
X177054991Y-120473431D01*
X177035355Y-120546714D01*
X177027479Y-120576109D01*
X176991114Y-120635769D01*
X176928267Y-120666298D01*
X176858891Y-120658003D01*
X176820023Y-120631696D01*
X176395864Y-120207537D01*
X176395862Y-120207535D01*
X176358750Y-120186108D01*
X176321640Y-120164682D01*
X176280246Y-120153591D01*
X176238853Y-120142500D01*
X176238852Y-120142500D01*
X176044070Y-120142500D01*
X176006717Y-120136740D01*
X175516054Y-119981733D01*
X175515460Y-119981563D01*
X175505378Y-119978674D01*
X175504182Y-119978366D01*
X175504180Y-119978365D01*
X175504177Y-119978365D01*
X175502305Y-119978310D01*
X175473875Y-119974140D01*
X175456369Y-119969450D01*
X175449092Y-119967500D01*
X175317308Y-119967500D01*
X175190012Y-120001608D01*
X175075886Y-120067500D01*
X175075883Y-120067502D01*
X174982702Y-120160683D01*
X174982700Y-120160686D01*
X174916808Y-120274812D01*
X174900740Y-120334781D01*
X174882700Y-120402108D01*
X174882700Y-120533892D01*
X174886136Y-120546714D01*
X174916808Y-120661187D01*
X174926039Y-120677175D01*
X174982700Y-120775314D01*
X175075886Y-120868500D01*
X175190014Y-120934392D01*
X175317308Y-120968500D01*
X175317310Y-120968500D01*
X175449090Y-120968500D01*
X175449092Y-120968500D01*
X175483429Y-120959298D01*
X175501945Y-120955819D01*
X175516041Y-120954269D01*
X175980684Y-120807482D01*
X176050535Y-120806058D01*
X176105715Y-120838042D01*
X177276743Y-122009070D01*
X177310228Y-122070393D01*
X177305244Y-122140085D01*
X177277619Y-122183548D01*
X175419664Y-124079167D01*
X175358680Y-124113266D01*
X175331107Y-124116370D01*
X168472462Y-124116370D01*
X168405423Y-124096685D01*
X168359668Y-124043881D01*
X168350845Y-124016562D01*
X168328421Y-123903835D01*
X168328420Y-123903834D01*
X168328420Y-123903830D01*
X168328418Y-123903825D01*
X168281121Y-123789638D01*
X168281114Y-123789625D01*
X168212446Y-123686857D01*
X168212443Y-123686853D01*
X168125046Y-123599456D01*
X168125042Y-123599453D01*
X168022274Y-123530785D01*
X168022261Y-123530778D01*
X167908074Y-123483481D01*
X167908064Y-123483478D01*
X167786840Y-123459365D01*
X167786838Y-123459365D01*
X167663232Y-123459365D01*
X167663230Y-123459365D01*
X167542005Y-123483478D01*
X167541995Y-123483481D01*
X167427808Y-123530778D01*
X167427795Y-123530785D01*
X167325027Y-123599453D01*
X167325023Y-123599456D01*
X167237626Y-123686853D01*
X167237623Y-123686857D01*
X167168955Y-123789625D01*
X167168948Y-123789638D01*
X167121651Y-123903825D01*
X167121648Y-123903835D01*
X167099225Y-124016562D01*
X167066840Y-124078473D01*
X167006124Y-124113047D01*
X166977608Y-124116370D01*
X166036000Y-124116370D01*
X164047837Y-125783394D01*
X161029718Y-128314009D01*
X160965699Y-128341998D01*
X160950138Y-128342990D01*
X156393401Y-128346346D01*
X156326347Y-128326711D01*
X156280554Y-128273941D01*
X156275969Y-128262432D01*
X156170549Y-127953757D01*
X156167511Y-127883955D01*
X156202694Y-127823590D01*
X156264927Y-127791829D01*
X156287895Y-127789683D01*
X156395871Y-127789683D01*
X156395872Y-127789682D01*
X156598825Y-127749313D01*
X156790003Y-127670124D01*
X156962060Y-127555160D01*
X157108382Y-127408838D01*
X157215306Y-127248813D01*
X157268914Y-127204012D01*
X157338239Y-127195303D01*
X157401266Y-127225457D01*
X157437986Y-127284900D01*
X157442405Y-127317705D01*
X157442405Y-127389153D01*
X157442406Y-127389170D01*
X157452899Y-127491880D01*
X157508046Y-127658302D01*
X157508048Y-127658307D01*
X157600089Y-127807528D01*
X157724059Y-127931498D01*
X157873280Y-128023539D01*
X157873285Y-128023541D01*
X158039707Y-128078688D01*
X158039714Y-128078689D01*
X158142424Y-128089182D01*
X158542404Y-128089182D01*
X158542405Y-128089181D01*
X158542405Y-127037665D01*
X158560814Y-127048294D01*
X158713414Y-127089183D01*
X158871396Y-127089183D01*
X159023996Y-127048294D01*
X159042405Y-127037665D01*
X159042405Y-128089182D01*
X159442377Y-128089182D01*
X159442391Y-128089181D01*
X159545102Y-128078688D01*
X159711524Y-128023541D01*
X159711529Y-128023539D01*
X159860750Y-127931498D01*
X159984720Y-127807528D01*
X160076761Y-127658307D01*
X160076763Y-127658302D01*
X160131910Y-127491880D01*
X160131911Y-127491873D01*
X160142404Y-127389169D01*
X160142405Y-127389156D01*
X160142405Y-126739183D01*
X159340887Y-126739183D01*
X159351516Y-126720774D01*
X159392405Y-126568174D01*
X159392405Y-126410192D01*
X159351516Y-126257592D01*
X159340887Y-126239183D01*
X160142404Y-126239183D01*
X160142404Y-125589211D01*
X160142403Y-125589196D01*
X160131910Y-125486485D01*
X160076763Y-125320063D01*
X160076761Y-125320058D01*
X159984720Y-125170837D01*
X159860750Y-125046867D01*
X159711529Y-124954826D01*
X159711524Y-124954824D01*
X159545102Y-124899677D01*
X159545095Y-124899676D01*
X159442391Y-124889183D01*
X159042405Y-124889183D01*
X159042405Y-125940700D01*
X159023996Y-125930072D01*
X158871396Y-125889183D01*
X158713414Y-125889183D01*
X158560814Y-125930072D01*
X158542405Y-125940700D01*
X158542405Y-124889183D01*
X158142433Y-124889183D01*
X158142417Y-124889184D01*
X158039707Y-124899677D01*
X157873285Y-124954824D01*
X157873280Y-124954826D01*
X157724059Y-125046867D01*
X157600089Y-125170837D01*
X157508048Y-125320058D01*
X157508046Y-125320063D01*
X157452899Y-125486485D01*
X157452898Y-125486492D01*
X157442405Y-125589196D01*
X157442405Y-125660656D01*
X157422720Y-125727695D01*
X157369916Y-125773450D01*
X157300758Y-125783394D01*
X157237202Y-125754369D01*
X157215303Y-125729546D01*
X157108385Y-125569532D01*
X157108379Y-125569524D01*
X156962062Y-125423207D01*
X156876031Y-125365724D01*
X156790003Y-125308242D01*
X156598825Y-125229053D01*
X156598817Y-125229051D01*
X156395874Y-125188683D01*
X156395870Y-125188683D01*
X156188940Y-125188683D01*
X156188935Y-125188683D01*
X156095096Y-125207349D01*
X156025504Y-125201122D01*
X155970327Y-125158259D01*
X155947083Y-125092369D01*
X155946905Y-125085732D01*
X155946905Y-125060094D01*
X155912146Y-124885354D01*
X155912145Y-124885353D01*
X155912145Y-124885349D01*
X155843962Y-124720741D01*
X155744976Y-124572597D01*
X155744974Y-124572594D01*
X155618992Y-124446612D01*
X155544918Y-124397118D01*
X155470846Y-124347625D01*
X155306238Y-124279442D01*
X155306232Y-124279440D01*
X155131492Y-124244682D01*
X155131490Y-124244682D01*
X154992505Y-124244682D01*
X154925466Y-124224997D01*
X154879711Y-124172193D01*
X154875160Y-124160758D01*
X154860000Y-124116370D01*
X130000606Y-124116370D01*
X129939613Y-124100333D01*
X128157973Y-123093811D01*
X127981254Y-122993975D01*
X171259773Y-122993975D01*
X171259773Y-123125758D01*
X171293881Y-123253054D01*
X171294716Y-123254500D01*
X171359773Y-123367181D01*
X171452959Y-123460367D01*
X171567087Y-123526259D01*
X171694381Y-123560367D01*
X171694383Y-123560367D01*
X171826163Y-123560367D01*
X171826165Y-123560367D01*
X171953459Y-123526259D01*
X172067587Y-123460367D01*
X172160773Y-123367181D01*
X172226665Y-123253053D01*
X172260773Y-123125759D01*
X172260773Y-123015403D01*
X172269417Y-122985962D01*
X172275941Y-122955976D01*
X172279695Y-122950960D01*
X172280458Y-122948364D01*
X172297092Y-122927722D01*
X172467396Y-122757419D01*
X172528719Y-122723934D01*
X172555077Y-122721100D01*
X172680490Y-122721100D01*
X172680492Y-122721100D01*
X172807786Y-122686992D01*
X172921914Y-122621100D01*
X173015100Y-122527914D01*
X173080992Y-122413786D01*
X173115100Y-122286492D01*
X173115100Y-122154708D01*
X173080992Y-122027414D01*
X173015100Y-121913286D01*
X172921914Y-121820100D01*
X172852518Y-121780034D01*
X172807787Y-121754208D01*
X172720970Y-121730946D01*
X172680492Y-121720100D01*
X172548708Y-121720100D01*
X172421412Y-121754208D01*
X172307286Y-121820100D01*
X172307283Y-121820102D01*
X172214102Y-121913283D01*
X172214100Y-121913286D01*
X172148208Y-122027412D01*
X172114100Y-122154708D01*
X172114100Y-122280121D01*
X172105455Y-122309561D01*
X172098932Y-122339548D01*
X172095177Y-122344563D01*
X172094415Y-122347160D01*
X172077781Y-122367802D01*
X171922470Y-122523113D01*
X171861147Y-122556598D01*
X171834292Y-122557728D01*
X171834292Y-122559367D01*
X171694381Y-122559367D01*
X171567085Y-122593475D01*
X171452959Y-122659367D01*
X171452956Y-122659369D01*
X171359775Y-122752550D01*
X171359773Y-122752553D01*
X171293881Y-122866679D01*
X171259773Y-122993975D01*
X127981254Y-122993975D01*
X125821065Y-121773595D01*
X125772379Y-121723481D01*
X125758058Y-121665632D01*
X125758058Y-116086398D01*
X143582115Y-116086398D01*
X143582115Y-116218181D01*
X143616223Y-116345477D01*
X143625989Y-116362392D01*
X143682115Y-116459604D01*
X143775301Y-116552790D01*
X143806083Y-116570562D01*
X143821637Y-116581196D01*
X143832703Y-116590067D01*
X144282297Y-116823793D01*
X144332698Y-116872180D01*
X144349100Y-116933813D01*
X144349100Y-121836596D01*
X144371282Y-121919384D01*
X144392708Y-121956494D01*
X144414135Y-121993606D01*
X144806589Y-122386059D01*
X144806591Y-122386062D01*
X144867194Y-122446665D01*
X144905421Y-122468735D01*
X144941416Y-122489517D01*
X144941417Y-122489517D01*
X144941418Y-122489518D01*
X145024203Y-122511701D01*
X145024205Y-122511701D01*
X145117505Y-122511701D01*
X145117521Y-122511700D01*
X159884395Y-122511700D01*
X159923963Y-122518183D01*
X160186284Y-122606506D01*
X160351533Y-122662146D01*
X160354276Y-122663730D01*
X160363875Y-122666302D01*
X160410789Y-122682098D01*
X160410807Y-122682104D01*
X160422978Y-122685785D01*
X160422995Y-122685790D01*
X160423942Y-122686044D01*
X160424307Y-122686143D01*
X160424344Y-122686152D01*
X160424408Y-122686170D01*
X160425815Y-122686543D01*
X160426856Y-122686575D01*
X160455075Y-122690738D01*
X160481570Y-122697838D01*
X160481573Y-122697838D01*
X160613352Y-122697838D01*
X160613354Y-122697838D01*
X160740648Y-122663730D01*
X160854776Y-122597838D01*
X160901723Y-122550891D01*
X160963046Y-122517406D01*
X161032738Y-122522390D01*
X161077085Y-122550891D01*
X161164690Y-122638496D01*
X161278818Y-122704388D01*
X161406112Y-122738496D01*
X161406114Y-122738496D01*
X161537894Y-122738496D01*
X161537896Y-122738496D01*
X161572233Y-122729294D01*
X161590749Y-122725815D01*
X161604845Y-122724265D01*
X162095518Y-122569255D01*
X162132871Y-122563496D01*
X163216655Y-122563496D01*
X163216657Y-122563496D01*
X163299443Y-122541314D01*
X163373666Y-122498461D01*
X167273419Y-118598708D01*
X173528132Y-118598708D01*
X173528132Y-118604234D01*
X173528132Y-118730491D01*
X173562240Y-118857787D01*
X173595186Y-118914850D01*
X173628132Y-118971914D01*
X173721318Y-119065100D01*
X173835446Y-119130992D01*
X173962740Y-119165100D01*
X173962742Y-119165100D01*
X174094522Y-119165100D01*
X174094524Y-119165100D01*
X174221818Y-119130992D01*
X174335946Y-119065100D01*
X174429132Y-118971914D01*
X174495024Y-118857786D01*
X174529132Y-118730492D01*
X174529132Y-118598708D01*
X174519932Y-118564375D01*
X174516451Y-118545843D01*
X174514901Y-118531760D01*
X174514901Y-118531758D01*
X174505784Y-118502900D01*
X174396723Y-118157674D01*
X174395299Y-118087821D01*
X174427281Y-118032644D01*
X176027108Y-116432819D01*
X176088431Y-116399334D01*
X176114789Y-116396500D01*
X176169490Y-116396500D01*
X176169492Y-116396500D01*
X176296786Y-116362392D01*
X176410914Y-116296500D01*
X176504100Y-116203314D01*
X176569992Y-116089186D01*
X176604100Y-115961892D01*
X176604100Y-115830108D01*
X176569992Y-115702814D01*
X176504100Y-115588686D01*
X176410914Y-115495500D01*
X176311907Y-115438338D01*
X176296787Y-115429608D01*
X176233139Y-115412554D01*
X176169492Y-115395500D01*
X176037708Y-115395500D01*
X175910412Y-115429608D01*
X175796286Y-115495500D01*
X175796283Y-115495502D01*
X175703102Y-115588683D01*
X175703100Y-115588686D01*
X175637208Y-115702812D01*
X175603100Y-115830108D01*
X175603100Y-115884811D01*
X175583415Y-115951850D01*
X175566781Y-115972492D01*
X173768169Y-117771103D01*
X173768167Y-117771106D01*
X173725314Y-117845327D01*
X173703132Y-117928115D01*
X173703132Y-118003727D01*
X173697372Y-118041080D01*
X173542364Y-118531748D01*
X173539307Y-118542415D01*
X173539010Y-118543566D01*
X173539008Y-118543580D01*
X173538953Y-118545467D01*
X173536589Y-118561574D01*
X173536038Y-118568766D01*
X173535463Y-118571344D01*
X173528132Y-118598708D01*
X167273419Y-118598708D01*
X170055665Y-115816462D01*
X170098518Y-115742239D01*
X170120700Y-115659453D01*
X170120700Y-115573747D01*
X170120700Y-114245470D01*
X170126460Y-114208120D01*
X170281472Y-113717436D01*
X170282825Y-113712713D01*
X170284484Y-113706932D01*
X170284795Y-113705728D01*
X170284851Y-113703823D01*
X170289021Y-113675413D01*
X170295700Y-113650492D01*
X170295700Y-113518708D01*
X170261592Y-113391414D01*
X170195700Y-113277286D01*
X170102514Y-113184100D01*
X170045450Y-113151154D01*
X169988387Y-113118208D01*
X169924739Y-113101154D01*
X169861092Y-113084100D01*
X169729308Y-113084100D01*
X169602012Y-113118208D01*
X169487886Y-113184100D01*
X169487883Y-113184102D01*
X169394702Y-113277283D01*
X169394700Y-113277286D01*
X169328808Y-113391412D01*
X169294700Y-113518708D01*
X169294700Y-113650491D01*
X169294701Y-113650499D01*
X169303897Y-113684822D01*
X169307377Y-113703341D01*
X169308929Y-113717439D01*
X169463940Y-114208117D01*
X169469700Y-114245470D01*
X169469700Y-115430410D01*
X169450015Y-115497449D01*
X169433381Y-115518092D01*
X169340564Y-115610908D01*
X169325687Y-115619030D01*
X169313877Y-115631188D01*
X169295656Y-115635428D01*
X169279240Y-115644392D01*
X169262334Y-115643183D01*
X169245826Y-115647025D01*
X169228208Y-115640742D01*
X169209549Y-115639408D01*
X169195579Y-115629106D01*
X169180016Y-115623557D01*
X169164128Y-115605915D01*
X169154701Y-115598964D01*
X169149641Y-115592404D01*
X169103500Y-115512486D01*
X169035659Y-115444645D01*
X169030794Y-115438338D01*
X169020888Y-115412909D01*
X169007810Y-115388958D01*
X169008391Y-115380827D01*
X169005433Y-115373233D01*
X169010847Y-115346487D01*
X169012794Y-115319266D01*
X169017996Y-115311170D01*
X169019296Y-115304753D01*
X169027643Y-115296160D01*
X169041295Y-115274919D01*
X169078100Y-115238114D01*
X169143992Y-115123986D01*
X169178100Y-114996692D01*
X169178100Y-114864908D01*
X169143992Y-114737614D01*
X169078100Y-114623486D01*
X168984914Y-114530300D01*
X168904052Y-114483614D01*
X168870787Y-114464408D01*
X168778413Y-114439657D01*
X168743492Y-114430300D01*
X168611708Y-114430300D01*
X168484412Y-114464408D01*
X168370286Y-114530300D01*
X168277099Y-114623486D01*
X168259325Y-114654270D01*
X168248694Y-114669820D01*
X168239826Y-114680882D01*
X168239821Y-114680890D01*
X168002467Y-115137460D01*
X167980127Y-115167945D01*
X162813292Y-120334781D01*
X162751969Y-120368266D01*
X162725611Y-120371100D01*
X147468854Y-120371100D01*
X147401815Y-120351415D01*
X147358833Y-120304296D01*
X147195177Y-119989488D01*
X147189827Y-119979838D01*
X147189195Y-119978767D01*
X147187899Y-119977392D01*
X147170751Y-119954345D01*
X147157902Y-119932089D01*
X147157898Y-119932084D01*
X147064716Y-119838902D01*
X147064714Y-119838900D01*
X147007650Y-119805954D01*
X146950587Y-119773008D01*
X146886939Y-119755954D01*
X146823292Y-119738900D01*
X146691508Y-119738900D01*
X146564212Y-119773008D01*
X146450086Y-119838900D01*
X146450083Y-119838902D01*
X146356902Y-119932083D01*
X146356900Y-119932086D01*
X146291008Y-120046212D01*
X146285304Y-120067500D01*
X146256900Y-120173508D01*
X146256900Y-120305292D01*
X146269259Y-120351415D01*
X146291008Y-120432587D01*
X146314589Y-120473429D01*
X146356900Y-120546714D01*
X146450086Y-120639900D01*
X146480868Y-120657672D01*
X146496422Y-120668306D01*
X146507488Y-120677177D01*
X146875510Y-120868497D01*
X146964057Y-120914529D01*
X146994542Y-120936869D01*
X147014738Y-120957065D01*
X147014740Y-120957066D01*
X147014744Y-120957069D01*
X147088955Y-120999914D01*
X147088962Y-120999918D01*
X147171747Y-121022100D01*
X147257452Y-121022100D01*
X147358200Y-121022100D01*
X147425239Y-121041785D01*
X147470994Y-121094589D01*
X147480938Y-121163747D01*
X147477976Y-121178185D01*
X147450700Y-121279984D01*
X147450700Y-121411768D01*
X147454877Y-121427358D01*
X147484808Y-121539063D01*
X147503418Y-121571296D01*
X147550700Y-121653190D01*
X147550703Y-121653193D01*
X147555647Y-121659636D01*
X147553306Y-121661431D01*
X147580014Y-121710342D01*
X147575030Y-121780034D01*
X147533158Y-121835967D01*
X147467694Y-121860384D01*
X147458848Y-121860700D01*
X145925591Y-121860700D01*
X145858552Y-121841015D01*
X145812797Y-121788211D01*
X145802853Y-121719053D01*
X145805816Y-121704607D01*
X145816259Y-121665632D01*
X145826854Y-121626092D01*
X145826854Y-121494308D01*
X145817654Y-121459975D01*
X145814173Y-121441443D01*
X145812623Y-121427360D01*
X145812622Y-121427355D01*
X145733909Y-121178193D01*
X145677591Y-120999918D01*
X145657614Y-120936682D01*
X145651854Y-120899329D01*
X145651854Y-116268195D01*
X145651854Y-116268193D01*
X145629672Y-116185407D01*
X145586819Y-116111184D01*
X145586817Y-116111182D01*
X145584290Y-116106805D01*
X145571904Y-116076902D01*
X145539727Y-115956814D01*
X145473835Y-115842686D01*
X145380649Y-115749500D01*
X145299787Y-115702814D01*
X145266522Y-115683608D01*
X145176372Y-115659453D01*
X145139227Y-115649500D01*
X145007443Y-115649500D01*
X144880147Y-115683608D01*
X144766021Y-115749500D01*
X144766018Y-115749502D01*
X144667088Y-115848433D01*
X144665320Y-115846665D01*
X144619030Y-115880457D01*
X144549283Y-115884604D01*
X144488901Y-115850683D01*
X144488862Y-115850723D01*
X144488722Y-115850583D01*
X144488367Y-115850384D01*
X144487356Y-115849217D01*
X144389931Y-115751792D01*
X144389929Y-115751790D01*
X144332865Y-115718844D01*
X144275802Y-115685898D01*
X144212154Y-115668844D01*
X144148507Y-115651790D01*
X144016723Y-115651790D01*
X143889427Y-115685898D01*
X143775301Y-115751790D01*
X143775298Y-115751792D01*
X143682117Y-115844973D01*
X143682115Y-115844976D01*
X143616223Y-115959102D01*
X143582115Y-116086398D01*
X125758058Y-116086398D01*
X125758058Y-114610908D01*
X141100700Y-114610908D01*
X141100700Y-114742691D01*
X141134808Y-114869987D01*
X141167554Y-114926703D01*
X141200700Y-114984114D01*
X141293886Y-115077300D01*
X141408014Y-115143192D01*
X141535308Y-115177300D01*
X141535310Y-115177300D01*
X141667090Y-115177300D01*
X141667092Y-115177300D01*
X141794386Y-115143192D01*
X141908514Y-115077300D01*
X142001700Y-114984114D01*
X142019476Y-114953322D01*
X142030105Y-114937776D01*
X142038977Y-114926711D01*
X142276328Y-114470142D01*
X142298665Y-114439660D01*
X142706708Y-114031619D01*
X142768031Y-113998134D01*
X142794389Y-113995300D01*
X144891324Y-113995300D01*
X144958363Y-114014985D01*
X144979005Y-114031619D01*
X145017686Y-114070300D01*
X145131814Y-114136192D01*
X145259108Y-114170300D01*
X145259110Y-114170300D01*
X145390890Y-114170300D01*
X145390892Y-114170300D01*
X145518186Y-114136192D01*
X145632314Y-114070300D01*
X145725500Y-113977114D01*
X145791392Y-113862986D01*
X145825500Y-113735692D01*
X145825500Y-113603908D01*
X145791392Y-113476614D01*
X145725500Y-113362486D01*
X145632314Y-113269300D01*
X145575250Y-113236354D01*
X145518187Y-113203408D01*
X145446127Y-113184100D01*
X145390892Y-113169300D01*
X145259108Y-113169300D01*
X145131812Y-113203408D01*
X145017686Y-113269300D01*
X145017683Y-113269302D01*
X144979005Y-113307981D01*
X144917682Y-113341466D01*
X144891324Y-113344300D01*
X142565347Y-113344300D01*
X142482559Y-113366482D01*
X142408338Y-113409335D01*
X142408335Y-113409337D01*
X141838344Y-113979327D01*
X141807859Y-114001667D01*
X141351269Y-114239032D01*
X141341477Y-114244465D01*
X141340441Y-114245077D01*
X141340439Y-114245079D01*
X141339094Y-114246348D01*
X141316029Y-114263515D01*
X141293885Y-114276300D01*
X141200700Y-114369486D01*
X141134808Y-114483612D01*
X141100700Y-114610908D01*
X125758058Y-114610908D01*
X125758058Y-109823412D01*
X125777743Y-109756373D01*
X125830547Y-109710618D01*
X125882058Y-109699412D01*
X126818833Y-109699412D01*
X126818834Y-109699411D01*
X126833651Y-109696464D01*
X126877312Y-109687780D01*
X126877312Y-109687779D01*
X126877314Y-109687779D01*
X126943635Y-109643464D01*
X126987950Y-109577143D01*
X126987950Y-109577141D01*
X126987951Y-109577141D01*
X126999582Y-109518664D01*
X126999583Y-109518662D01*
X126999583Y-107779161D01*
X126999582Y-107779159D01*
X126987951Y-107720682D01*
X126987950Y-107720681D01*
X126943635Y-107654359D01*
X126877313Y-107610044D01*
X126877312Y-107610043D01*
X126818835Y-107598412D01*
X126818831Y-107598412D01*
X125882058Y-107598412D01*
X125815019Y-107578727D01*
X125769264Y-107525923D01*
X125758058Y-107474412D01*
X125758058Y-93133931D01*
X129564892Y-93133931D01*
X129564892Y-93265714D01*
X129599000Y-93393010D01*
X129631946Y-93450073D01*
X129664892Y-93507137D01*
X129758078Y-93600323D01*
X129820415Y-93636313D01*
X129831964Y-93644132D01*
X129839339Y-93647239D01*
X129872206Y-93666215D01*
X129897428Y-93672973D01*
X129913472Y-93678473D01*
X130055692Y-93738392D01*
X130109827Y-93782560D01*
X130131490Y-93848986D01*
X130131545Y-93852663D01*
X130131545Y-106973621D01*
X130126936Y-107007113D01*
X129987306Y-107504856D01*
X129985403Y-107512147D01*
X129985203Y-107512974D01*
X129985151Y-107515392D01*
X129980956Y-107544769D01*
X129975500Y-107565129D01*
X129975500Y-107565133D01*
X129975500Y-107696917D01*
X129981868Y-107720682D01*
X130009608Y-107824212D01*
X130015197Y-107833892D01*
X130075500Y-107938339D01*
X130168686Y-108031525D01*
X130282814Y-108097417D01*
X130410108Y-108131525D01*
X130410110Y-108131525D01*
X130541890Y-108131525D01*
X130541892Y-108131525D01*
X130669186Y-108097417D01*
X130783314Y-108031525D01*
X130876500Y-107938339D01*
X130942392Y-107824211D01*
X130976500Y-107696917D01*
X130976500Y-107565133D01*
X130962889Y-107514336D01*
X130959666Y-107491707D01*
X130947694Y-107457629D01*
X130942392Y-107437839D01*
X130942391Y-107437838D01*
X130942391Y-107437836D01*
X130939474Y-107430795D01*
X130934352Y-107419650D01*
X130789554Y-107007460D01*
X130782545Y-106966362D01*
X130782545Y-106345034D01*
X130802230Y-106277995D01*
X130855034Y-106232240D01*
X130924192Y-106222296D01*
X130987748Y-106251321D01*
X130994226Y-106257353D01*
X132166128Y-107429255D01*
X132188468Y-107459740D01*
X132425823Y-107916313D01*
X132431212Y-107926031D01*
X132431823Y-107927065D01*
X132431825Y-107927067D01*
X132431827Y-107927070D01*
X132433113Y-107928435D01*
X132450267Y-107951487D01*
X132463100Y-107973714D01*
X132556286Y-108066900D01*
X132670414Y-108132792D01*
X132797708Y-108166900D01*
X132797710Y-108166900D01*
X132929490Y-108166900D01*
X132929492Y-108166900D01*
X133056786Y-108132792D01*
X133170914Y-108066900D01*
X133264100Y-107973714D01*
X133329992Y-107859586D01*
X133364100Y-107732292D01*
X133364100Y-107615789D01*
X133383785Y-107548750D01*
X133436589Y-107502995D01*
X133505747Y-107493051D01*
X133569303Y-107522076D01*
X133575781Y-107528108D01*
X136787181Y-110739508D01*
X136820666Y-110800831D01*
X136823500Y-110827189D01*
X136823500Y-110881891D01*
X136857608Y-111009187D01*
X136890554Y-111066250D01*
X136923500Y-111123314D01*
X137016686Y-111216500D01*
X137130814Y-111282392D01*
X137258108Y-111316500D01*
X137258110Y-111316500D01*
X137389890Y-111316500D01*
X137389892Y-111316500D01*
X137517186Y-111282392D01*
X137631314Y-111216500D01*
X137724500Y-111123314D01*
X137790392Y-111009186D01*
X137824500Y-110881892D01*
X137824500Y-110750108D01*
X137790392Y-110622814D01*
X137724500Y-110508686D01*
X137631314Y-110415500D01*
X137574250Y-110382554D01*
X137517187Y-110349608D01*
X137453539Y-110332554D01*
X137389892Y-110315500D01*
X137389891Y-110315500D01*
X137335189Y-110315500D01*
X137268150Y-110295815D01*
X137247508Y-110279181D01*
X132212186Y-105243859D01*
X132186906Y-105207323D01*
X132135248Y-105093228D01*
X132004328Y-104804069D01*
X131999437Y-104785814D01*
X131983802Y-104758734D01*
X131975362Y-104740092D01*
X131967945Y-104725322D01*
X131967935Y-104725302D01*
X131967054Y-104723712D01*
X131965863Y-104721620D01*
X131964596Y-104719394D01*
X131964592Y-104719390D01*
X131960239Y-104713491D01*
X131960318Y-104713432D01*
X131948317Y-104697272D01*
X131933547Y-104671689D01*
X131933543Y-104671684D01*
X131840361Y-104578502D01*
X131840359Y-104578500D01*
X131783295Y-104545554D01*
X131726232Y-104512608D01*
X131662584Y-104495554D01*
X131598937Y-104478500D01*
X131467153Y-104478500D01*
X131389638Y-104499270D01*
X131319788Y-104497607D01*
X131261926Y-104458444D01*
X131234422Y-104394216D01*
X131233545Y-104379495D01*
X131233545Y-101761628D01*
X143793215Y-101761628D01*
X143793215Y-108432447D01*
X151362415Y-108432447D01*
X151362415Y-102598556D01*
X154574334Y-102598556D01*
X154574334Y-102805495D01*
X154614702Y-103008438D01*
X154614704Y-103008446D01*
X154654877Y-103105433D01*
X154693893Y-103199624D01*
X154749353Y-103282626D01*
X154808858Y-103371683D01*
X154955176Y-103518001D01*
X154955179Y-103518003D01*
X155127236Y-103632967D01*
X155318414Y-103712156D01*
X155369128Y-103722243D01*
X155397295Y-103731457D01*
X155400483Y-103732942D01*
X155400490Y-103732946D01*
X156004805Y-103945154D01*
X156020115Y-103950530D01*
X156076846Y-103991314D01*
X156102521Y-104056295D01*
X156088990Y-104124842D01*
X156040547Y-104175191D01*
X155979031Y-104191526D01*
X154755081Y-104191526D01*
X154696604Y-104203157D01*
X154696603Y-104203158D01*
X154630281Y-104247473D01*
X154585966Y-104313795D01*
X154585965Y-104313796D01*
X154574334Y-104372273D01*
X154574334Y-106111778D01*
X154585965Y-106170255D01*
X154585966Y-106170256D01*
X154630281Y-106236578D01*
X154696603Y-106280893D01*
X154696604Y-106280894D01*
X154755081Y-106292525D01*
X154755084Y-106292526D01*
X154755086Y-106292526D01*
X156494582Y-106292526D01*
X156519908Y-106287488D01*
X156589497Y-106293714D01*
X156644676Y-106336576D01*
X156667922Y-106402465D01*
X156668100Y-106409105D01*
X156668100Y-106810747D01*
X156668100Y-106896453D01*
X156677157Y-106930255D01*
X156690282Y-106979240D01*
X156706850Y-107007936D01*
X156733135Y-107053462D01*
X156733137Y-107053464D01*
X157210528Y-107530855D01*
X157211528Y-107532220D01*
X157212298Y-107532661D01*
X157232868Y-107561340D01*
X157310568Y-107710803D01*
X157324025Y-107779365D01*
X157310568Y-107825195D01*
X157232868Y-107974658D01*
X157210528Y-108005143D01*
X156377537Y-108838135D01*
X156377533Y-108838141D01*
X156334681Y-108912362D01*
X156334680Y-108912364D01*
X156327584Y-108938850D01*
X156327584Y-108938852D01*
X156312500Y-108995147D01*
X156312500Y-109366324D01*
X156292815Y-109433363D01*
X156276181Y-109454005D01*
X156237502Y-109492683D01*
X156237500Y-109492686D01*
X156171608Y-109606812D01*
X156137500Y-109734108D01*
X156137500Y-109865891D01*
X156171608Y-109993187D01*
X156204554Y-110050250D01*
X156237500Y-110107314D01*
X156330686Y-110200500D01*
X156444814Y-110266392D01*
X156572108Y-110300500D01*
X156572110Y-110300500D01*
X156703890Y-110300500D01*
X156703892Y-110300500D01*
X156831186Y-110266392D01*
X156945314Y-110200500D01*
X157038500Y-110107314D01*
X157104392Y-109993186D01*
X157138500Y-109865892D01*
X157138500Y-109734108D01*
X157104392Y-109606814D01*
X157038500Y-109492686D01*
X156999819Y-109454005D01*
X156985115Y-109427077D01*
X156968523Y-109401259D01*
X156967631Y-109395058D01*
X156966334Y-109392682D01*
X156963500Y-109366324D01*
X156963500Y-109224188D01*
X156983185Y-109157149D01*
X156999815Y-109136511D01*
X157670860Y-108465465D01*
X157701339Y-108443130D01*
X158157911Y-108205777D01*
X158167561Y-108200427D01*
X158168632Y-108199795D01*
X158170002Y-108198504D01*
X158193049Y-108181354D01*
X158215314Y-108168500D01*
X158308500Y-108075314D01*
X158374392Y-107961186D01*
X158408500Y-107833892D01*
X158408500Y-107702108D01*
X158374392Y-107574814D01*
X158308500Y-107460686D01*
X158215314Y-107367500D01*
X158184528Y-107349725D01*
X158168980Y-107339096D01*
X158157911Y-107330223D01*
X158157912Y-107330223D01*
X158157909Y-107330221D01*
X157701341Y-107092869D01*
X157670856Y-107070529D01*
X157355419Y-106755092D01*
X157321934Y-106693769D01*
X157319100Y-106667411D01*
X157319100Y-104027941D01*
X157319100Y-104027939D01*
X157296918Y-103945154D01*
X157281011Y-103917602D01*
X157254069Y-103870936D01*
X157254063Y-103870928D01*
X157105934Y-103722799D01*
X157076620Y-103676204D01*
X156655754Y-102477682D01*
X156655750Y-102477676D01*
X156653727Y-102473119D01*
X156654632Y-102472716D01*
X156645036Y-102446246D01*
X156634964Y-102395606D01*
X156555775Y-102204428D01*
X156440811Y-102032371D01*
X156440809Y-102032368D01*
X156294491Y-101886050D01*
X156208460Y-101828567D01*
X156122432Y-101771085D01*
X155931254Y-101691896D01*
X155931246Y-101691894D01*
X155728303Y-101651526D01*
X155728299Y-101651526D01*
X155521369Y-101651526D01*
X155521364Y-101651526D01*
X155318421Y-101691894D01*
X155318413Y-101691896D01*
X155127237Y-101771084D01*
X154955176Y-101886050D01*
X154808858Y-102032368D01*
X154693892Y-102204429D01*
X154614704Y-102395605D01*
X154614702Y-102395613D01*
X154574334Y-102598556D01*
X151362415Y-102598556D01*
X151362415Y-101812428D01*
X151362414Y-101812427D01*
X143793215Y-101761627D01*
X143793215Y-101761628D01*
X131233545Y-101761628D01*
X131233545Y-93803281D01*
X131239305Y-93765928D01*
X131394317Y-93275244D01*
X131397049Y-93265715D01*
X131397329Y-93264740D01*
X131397640Y-93263536D01*
X131397696Y-93261631D01*
X131401866Y-93233221D01*
X131408545Y-93208300D01*
X131408545Y-93076516D01*
X131374437Y-92949222D01*
X131308545Y-92835094D01*
X131215359Y-92741908D01*
X131141600Y-92699323D01*
X131101232Y-92676016D01*
X131037584Y-92658962D01*
X130973937Y-92641908D01*
X130842153Y-92641908D01*
X130714857Y-92676016D01*
X130600731Y-92741908D01*
X130545690Y-92796948D01*
X130484366Y-92830432D01*
X130414675Y-92825446D01*
X130380001Y-92803162D01*
X130379152Y-92804270D01*
X130372708Y-92799325D01*
X130372706Y-92799323D01*
X130315642Y-92766377D01*
X130258579Y-92733431D01*
X130194931Y-92716377D01*
X130131284Y-92699323D01*
X129999500Y-92699323D01*
X129872204Y-92733431D01*
X129758078Y-92799323D01*
X129758075Y-92799325D01*
X129664894Y-92892506D01*
X129664892Y-92892509D01*
X129599000Y-93006635D01*
X129564892Y-93133931D01*
X125758058Y-93133931D01*
X125758058Y-89832600D01*
X125777743Y-89765561D01*
X125830547Y-89719806D01*
X125882058Y-89708600D01*
X133493003Y-89708600D01*
X133560042Y-89728285D01*
G37*
%TD.AperFunction*%
%TD*%
%TA.AperFunction,Conductor*%
%TO.N,GND*%
G36*
X178477441Y-122587329D02*
G01*
X178228707Y-122754707D01*
X177933764Y-122812527D01*
X177887244Y-122336021D01*
X178064021Y-122159244D01*
X178477441Y-122587329D01*
G37*
%TD.AperFunction*%
%TD*%
%TA.AperFunction,Conductor*%
%TO.N,GND HV*%
G36*
X146449938Y-55690842D02*
G01*
X146454329Y-55692572D01*
X146752418Y-55816703D01*
X147064087Y-55911728D01*
X147064101Y-55911730D01*
X147064102Y-55911731D01*
X147383597Y-55975598D01*
X147542964Y-55991370D01*
X147707849Y-56007690D01*
X147831170Y-56007720D01*
X147831207Y-56007730D01*
X147870766Y-56007730D01*
X147918360Y-56007731D01*
X147918363Y-56007730D01*
X151637200Y-56007730D01*
X151704239Y-56027415D01*
X151749994Y-56080219D01*
X151761200Y-56131730D01*
X151761200Y-66467600D01*
X152439651Y-66467600D01*
X152506690Y-66487285D01*
X152552445Y-66540089D01*
X152563651Y-66591510D01*
X152570663Y-76230543D01*
X152574000Y-80818600D01*
X158228624Y-80818600D01*
X158295663Y-80838285D01*
X158317254Y-80855878D01*
X158672279Y-81218732D01*
X158705093Y-81280417D01*
X158707647Y-81305452D01*
X158707647Y-99770000D01*
X158687962Y-99837039D01*
X158635158Y-99882794D01*
X158583647Y-99894000D01*
X134232200Y-99894000D01*
X134165161Y-99874315D01*
X134119406Y-99821511D01*
X134108200Y-99770000D01*
X134108200Y-96467550D01*
X136685366Y-96467550D01*
X136685366Y-96467552D01*
X136690033Y-96511374D01*
X136690034Y-96511381D01*
X136701238Y-96563055D01*
X136703755Y-96573372D01*
X136746765Y-96654083D01*
X136746767Y-96654086D01*
X136792526Y-96706895D01*
X136810108Y-96724839D01*
X136810112Y-96724843D01*
X136810113Y-96724844D01*
X136810115Y-96724845D01*
X136889925Y-96769488D01*
X136889929Y-96769490D01*
X136956968Y-96789175D01*
X137014866Y-96797500D01*
X144994307Y-96797500D01*
X145061346Y-96817185D01*
X145107101Y-96869989D01*
X145117395Y-96924263D01*
X145118159Y-96924263D01*
X145118159Y-97575412D01*
X146035147Y-97575412D01*
X146002234Y-97632419D01*
X145968159Y-97759586D01*
X145968159Y-97891238D01*
X146002234Y-98018405D01*
X146035147Y-98075412D01*
X145118159Y-98075412D01*
X145118159Y-98723256D01*
X145124560Y-98782784D01*
X145124562Y-98782791D01*
X145174804Y-98917498D01*
X145174808Y-98917505D01*
X145260968Y-99032599D01*
X145260971Y-99032602D01*
X145376065Y-99118762D01*
X145376072Y-99118766D01*
X145510779Y-99169008D01*
X145510786Y-99169010D01*
X145570314Y-99175411D01*
X145570331Y-99175412D01*
X146218159Y-99175412D01*
X146218159Y-98258424D01*
X146275166Y-98291337D01*
X146402333Y-98325412D01*
X146533985Y-98325412D01*
X146661152Y-98291337D01*
X146718159Y-98258424D01*
X146718159Y-99175412D01*
X147365987Y-99175412D01*
X147366003Y-99175411D01*
X147425531Y-99169010D01*
X147425538Y-99169008D01*
X147560245Y-99118766D01*
X147560252Y-99118762D01*
X147675346Y-99032602D01*
X147675349Y-99032599D01*
X147761509Y-98917505D01*
X147761513Y-98917498D01*
X147811755Y-98782791D01*
X147811757Y-98782784D01*
X147818158Y-98723256D01*
X147818159Y-98723239D01*
X147818159Y-98075412D01*
X146901171Y-98075412D01*
X146934084Y-98018405D01*
X146968159Y-97891238D01*
X146968159Y-97759586D01*
X146934084Y-97632419D01*
X146901171Y-97575412D01*
X147818159Y-97575412D01*
X147818159Y-96924263D01*
X147819104Y-96924263D01*
X147834259Y-96860136D01*
X147884540Y-96811622D01*
X147942011Y-96797500D01*
X148688500Y-96797500D01*
X148755539Y-96817185D01*
X148801294Y-96869989D01*
X148812500Y-96921500D01*
X148812500Y-98271407D01*
X148817197Y-98315086D01*
X148828397Y-98366574D01*
X148830890Y-98376772D01*
X148830891Y-98376775D01*
X148873899Y-98457483D01*
X148873901Y-98457486D01*
X148919660Y-98510295D01*
X148937242Y-98528239D01*
X148937246Y-98528243D01*
X148937247Y-98528244D01*
X148937249Y-98528245D01*
X149017059Y-98572888D01*
X149017063Y-98572890D01*
X149084102Y-98592575D01*
X149142000Y-98600900D01*
X149142004Y-98600900D01*
X151863557Y-98600900D01*
X151863566Y-98600900D01*
X151907250Y-98596203D01*
X151936441Y-98589852D01*
X151958740Y-98585002D01*
X151958756Y-98584998D01*
X151958761Y-98584997D01*
X151968939Y-98582510D01*
X152049651Y-98539500D01*
X152102455Y-98493745D01*
X152120409Y-98476154D01*
X152165056Y-98396337D01*
X152184741Y-98329298D01*
X152193066Y-98271400D01*
X152193066Y-88308047D01*
X152188369Y-88264363D01*
X152184463Y-88246411D01*
X152177168Y-88212872D01*
X152176914Y-88211836D01*
X152174676Y-88202674D01*
X152131666Y-88121962D01*
X152085911Y-88069158D01*
X152085905Y-88069151D01*
X152068323Y-88051207D01*
X152068322Y-88051206D01*
X152068320Y-88051204D01*
X152068318Y-88051203D01*
X152068316Y-88051201D01*
X151988506Y-88006558D01*
X151988501Y-88006556D01*
X151921469Y-87986873D01*
X151921465Y-87986872D01*
X151921464Y-87986872D01*
X151863566Y-87978547D01*
X143823300Y-87978547D01*
X143756261Y-87958862D01*
X143710506Y-87906058D01*
X143699300Y-87854547D01*
X143699300Y-76350108D01*
X143718985Y-76283069D01*
X143771789Y-76237314D01*
X143790621Y-76230543D01*
X143790980Y-76230393D01*
X143790986Y-76230392D01*
X143905114Y-76164500D01*
X143998300Y-76071314D01*
X144064192Y-75957186D01*
X144098300Y-75829892D01*
X144098300Y-75698108D01*
X144064192Y-75570814D01*
X143998300Y-75456686D01*
X143905114Y-75363500D01*
X143837221Y-75324302D01*
X143790987Y-75297608D01*
X143727339Y-75280554D01*
X143663692Y-75263500D01*
X143531908Y-75263500D01*
X143454393Y-75284270D01*
X143384543Y-75282607D01*
X143326681Y-75243444D01*
X143299177Y-75179216D01*
X143298300Y-75164495D01*
X143298300Y-67770949D01*
X143298300Y-67770947D01*
X143296323Y-67763571D01*
X143292100Y-67731483D01*
X143292100Y-67026528D01*
X143292100Y-67026526D01*
X143269918Y-66943741D01*
X143269914Y-66943734D01*
X143227069Y-66869523D01*
X143227063Y-66869515D01*
X142923657Y-66566109D01*
X142890172Y-66504786D01*
X142887338Y-66478428D01*
X142887338Y-66423727D01*
X142887338Y-66423725D01*
X142853230Y-66296431D01*
X142787338Y-66182303D01*
X142694152Y-66089117D01*
X142637088Y-66056171D01*
X142580025Y-66023225D01*
X142516377Y-66006171D01*
X142452730Y-65989117D01*
X142320946Y-65989117D01*
X142193650Y-66023225D01*
X142079524Y-66089117D01*
X142079521Y-66089119D01*
X141986340Y-66182300D01*
X141986338Y-66182303D01*
X141943747Y-66256072D01*
X141893179Y-66304287D01*
X141824572Y-66317509D01*
X141759707Y-66291541D01*
X141748679Y-66281752D01*
X141696081Y-66229154D01*
X141696079Y-66229152D01*
X141658967Y-66207725D01*
X141621857Y-66186299D01*
X141580463Y-66175208D01*
X141539070Y-66164117D01*
X141539069Y-66164117D01*
X140943472Y-66164117D01*
X140876433Y-66144432D01*
X140855791Y-66127798D01*
X140817112Y-66089119D01*
X140817110Y-66089117D01*
X140760046Y-66056171D01*
X140702983Y-66023225D01*
X140639335Y-66006171D01*
X140575688Y-65989117D01*
X140443904Y-65989117D01*
X140316608Y-66023225D01*
X140202482Y-66089117D01*
X140202479Y-66089119D01*
X140109298Y-66182300D01*
X140109296Y-66182303D01*
X140043404Y-66296429D01*
X140009296Y-66423725D01*
X140009296Y-66555508D01*
X140043404Y-66682804D01*
X140076350Y-66739867D01*
X140109296Y-66796931D01*
X140202482Y-66890117D01*
X140316610Y-66956009D01*
X140443904Y-66990117D01*
X140443906Y-66990117D01*
X140575686Y-66990117D01*
X140575688Y-66990117D01*
X140702982Y-66956009D01*
X140817110Y-66890117D01*
X140855791Y-66851436D01*
X140917114Y-66817951D01*
X140943472Y-66815117D01*
X141310028Y-66815117D01*
X141377067Y-66834802D01*
X141397709Y-66851436D01*
X142153781Y-67607508D01*
X142187266Y-67668831D01*
X142190100Y-67695189D01*
X142190100Y-92748211D01*
X142170415Y-92815250D01*
X142153781Y-92835892D01*
X140712492Y-94277181D01*
X140651169Y-94310666D01*
X140624811Y-94313500D01*
X140570108Y-94313500D01*
X140442812Y-94347608D01*
X140328686Y-94413500D01*
X140328683Y-94413502D01*
X140235502Y-94506683D01*
X140235500Y-94506686D01*
X140172943Y-94615037D01*
X140122375Y-94663252D01*
X140053768Y-94676474D01*
X140047921Y-94675775D01*
X140040434Y-94674699D01*
X140040432Y-94674699D01*
X138914015Y-94674699D01*
X138846976Y-94655014D01*
X138801221Y-94602210D01*
X138790015Y-94550699D01*
X138790015Y-80368703D01*
X138790014Y-80368687D01*
X138789965Y-80368232D01*
X138785318Y-80325011D01*
X138781412Y-80307059D01*
X138774117Y-80273520D01*
X138773863Y-80272484D01*
X138771625Y-80263322D01*
X138728615Y-80182610D01*
X138685697Y-80133080D01*
X138682854Y-80129799D01*
X138665272Y-80111855D01*
X138665271Y-80111854D01*
X138665269Y-80111852D01*
X138665267Y-80111851D01*
X138665265Y-80111849D01*
X138585455Y-80067206D01*
X138585450Y-80067204D01*
X138518418Y-80047521D01*
X138518414Y-80047520D01*
X138518413Y-80047520D01*
X138460515Y-80039195D01*
X137037112Y-80039195D01*
X137037102Y-80039195D01*
X136993562Y-80043861D01*
X136993553Y-80043863D01*
X136942209Y-80054995D01*
X136932178Y-80057437D01*
X136932168Y-80057441D01*
X136851396Y-80100338D01*
X136798539Y-80146010D01*
X136798520Y-80146028D01*
X136780550Y-80163585D01*
X136780550Y-80163586D01*
X136735792Y-80243344D01*
X136716017Y-80310353D01*
X136716014Y-80310368D01*
X136707612Y-80368232D01*
X136707611Y-80368240D01*
X136685366Y-96467550D01*
X134108200Y-96467550D01*
X134108200Y-84247600D01*
X123356700Y-84247600D01*
X123348014Y-84245049D01*
X123339053Y-84246338D01*
X123315012Y-84235359D01*
X123289661Y-84227915D01*
X123283733Y-84221074D01*
X123275497Y-84217313D01*
X123261207Y-84195078D01*
X123243906Y-84175111D01*
X123241618Y-84164596D01*
X123237723Y-84158535D01*
X123232700Y-84123600D01*
X123232700Y-83914323D01*
X123232722Y-83914248D01*
X123232724Y-83862916D01*
X123232731Y-83700975D01*
X123201017Y-83378649D01*
X123137903Y-83060975D01*
X123043994Y-82751006D01*
X122920193Y-82451718D01*
X122920191Y-82451714D01*
X122920190Y-82451711D01*
X122767691Y-82165992D01*
X122767690Y-82165990D01*
X122694113Y-82055700D01*
X122587946Y-81896557D01*
X122382692Y-81646017D01*
X122282150Y-81545290D01*
X122282145Y-81545284D01*
X121490561Y-80752151D01*
X121457136Y-80690796D01*
X121462189Y-80621109D01*
X121490591Y-80576931D01*
X121599429Y-80467965D01*
X123066718Y-80467965D01*
X123066718Y-80804982D01*
X123104449Y-81139855D01*
X123104451Y-81139871D01*
X123179441Y-81468427D01*
X123179445Y-81468439D01*
X123290750Y-81786528D01*
X123436970Y-82090157D01*
X123436972Y-82090160D01*
X123616272Y-82375513D01*
X123826393Y-82638997D01*
X124064695Y-82877299D01*
X124328179Y-83087420D01*
X124613532Y-83266720D01*
X124917167Y-83412943D01*
X125156066Y-83496537D01*
X125235252Y-83524246D01*
X125235264Y-83524250D01*
X125563824Y-83599241D01*
X125898710Y-83636973D01*
X125898711Y-83636974D01*
X125898714Y-83636974D01*
X126235725Y-83636974D01*
X126235725Y-83636973D01*
X126570612Y-83599241D01*
X126899172Y-83524250D01*
X127217269Y-83412943D01*
X127520904Y-83266720D01*
X127806257Y-83087420D01*
X128069741Y-82877299D01*
X128308043Y-82638997D01*
X128518164Y-82375513D01*
X128697464Y-82090160D01*
X128843687Y-81786525D01*
X128954994Y-81468428D01*
X129029985Y-81139868D01*
X129067718Y-80804978D01*
X129067718Y-80467970D01*
X129029985Y-80133080D01*
X128954994Y-79804520D01*
X128843687Y-79486423D01*
X128697464Y-79182788D01*
X128518164Y-78897435D01*
X128308043Y-78633951D01*
X128069741Y-78395649D01*
X127806257Y-78185528D01*
X127520904Y-78006228D01*
X127520901Y-78006226D01*
X127217272Y-77860006D01*
X126899183Y-77748701D01*
X126899171Y-77748697D01*
X126570615Y-77673707D01*
X126570599Y-77673705D01*
X126235726Y-77635974D01*
X126235722Y-77635974D01*
X125898714Y-77635974D01*
X125898709Y-77635974D01*
X125563836Y-77673705D01*
X125563820Y-77673707D01*
X125235264Y-77748697D01*
X125235252Y-77748701D01*
X124917163Y-77860006D01*
X124613534Y-78006226D01*
X124328180Y-78185527D01*
X124064695Y-78395648D01*
X123826392Y-78633951D01*
X123616271Y-78897436D01*
X123436970Y-79182790D01*
X123290750Y-79486419D01*
X123179445Y-79804508D01*
X123179441Y-79804520D01*
X123104451Y-80133076D01*
X123104449Y-80133092D01*
X123066718Y-80467965D01*
X121599429Y-80467965D01*
X131051587Y-71004705D01*
X131112887Y-70971187D01*
X131182581Y-70976131D01*
X131238539Y-71017969D01*
X131262995Y-71083419D01*
X131263316Y-71092338D01*
X131263316Y-72305995D01*
X131243631Y-72373034D01*
X131226997Y-72393676D01*
X130215537Y-73405135D01*
X130215535Y-73405138D01*
X130172682Y-73479359D01*
X130165222Y-73507199D01*
X130161493Y-73521119D01*
X130161493Y-73521120D01*
X130161492Y-73521119D01*
X130150500Y-73562143D01*
X130150500Y-81121524D01*
X130130815Y-81188563D01*
X130114181Y-81209205D01*
X130075502Y-81247883D01*
X130075500Y-81247886D01*
X130009608Y-81362012D01*
X129975500Y-81489308D01*
X129975500Y-81621091D01*
X130009608Y-81748387D01*
X130031629Y-81786528D01*
X130075500Y-81862514D01*
X130168686Y-81955700D01*
X130282814Y-82021592D01*
X130410108Y-82055700D01*
X130410110Y-82055700D01*
X130541890Y-82055700D01*
X130541892Y-82055700D01*
X130669186Y-82021592D01*
X130783314Y-81955700D01*
X130876500Y-81862514D01*
X130942392Y-81748386D01*
X130976500Y-81621092D01*
X130976500Y-81489308D01*
X130942392Y-81362014D01*
X130876500Y-81247886D01*
X130837819Y-81209205D01*
X130804334Y-81147882D01*
X130801500Y-81121524D01*
X130801500Y-76117208D01*
X133239400Y-76117208D01*
X133239400Y-76248991D01*
X133273508Y-76376287D01*
X133306454Y-76433350D01*
X133339400Y-76490414D01*
X133432586Y-76583600D01*
X133546714Y-76649492D01*
X133674008Y-76683600D01*
X133674010Y-76683600D01*
X133805790Y-76683600D01*
X133805792Y-76683600D01*
X133933086Y-76649492D01*
X134047214Y-76583600D01*
X134140400Y-76490414D01*
X134206292Y-76376286D01*
X134240400Y-76248992D01*
X134240400Y-76194288D01*
X134260085Y-76127249D01*
X134276719Y-76106607D01*
X135059024Y-75324302D01*
X135852259Y-74531066D01*
X135882738Y-74508731D01*
X136339311Y-74271377D01*
X136348961Y-74266027D01*
X136350032Y-74265395D01*
X136351402Y-74264104D01*
X136374449Y-74246954D01*
X136396714Y-74234100D01*
X136489900Y-74140914D01*
X136555792Y-74026786D01*
X136589900Y-73899492D01*
X136589900Y-73767708D01*
X136555792Y-73640414D01*
X136489900Y-73526286D01*
X136396714Y-73433100D01*
X136339650Y-73400154D01*
X136282587Y-73367208D01*
X136218939Y-73350154D01*
X136155292Y-73333100D01*
X136023508Y-73333100D01*
X135896212Y-73367208D01*
X135782086Y-73433100D01*
X135688899Y-73526286D01*
X135671125Y-73557070D01*
X135660494Y-73572620D01*
X135651626Y-73583682D01*
X135414267Y-74040259D01*
X135391927Y-74070744D01*
X133816392Y-75646281D01*
X133755069Y-75679766D01*
X133728711Y-75682600D01*
X133674008Y-75682600D01*
X133546712Y-75716708D01*
X133432586Y-75782600D01*
X133432583Y-75782602D01*
X133339402Y-75875783D01*
X133339400Y-75875786D01*
X133273508Y-75989912D01*
X133239400Y-76117208D01*
X130801500Y-76117208D01*
X130801500Y-73791189D01*
X130821185Y-73724150D01*
X130837819Y-73703508D01*
X131234826Y-73306501D01*
X131849281Y-72692046D01*
X131892134Y-72617822D01*
X131914316Y-72535037D01*
X131914316Y-70916561D01*
X131934001Y-70849522D01*
X131950635Y-70828880D01*
X131989316Y-70790199D01*
X132055208Y-70676071D01*
X132089316Y-70548777D01*
X132089316Y-70416993D01*
X132055208Y-70289699D01*
X131996727Y-70188407D01*
X131980254Y-70120507D01*
X132003106Y-70054480D01*
X132016372Y-70038787D01*
X142802826Y-59239664D01*
X144094583Y-59239664D01*
X144113993Y-59337240D01*
X144113996Y-59337250D01*
X144144675Y-59411317D01*
X144144682Y-59411330D01*
X144199954Y-59494050D01*
X144225512Y-59525191D01*
X144806401Y-60106080D01*
X144839886Y-60167403D01*
X144834902Y-60237095D01*
X144812665Y-60271733D01*
X144814094Y-60272906D01*
X144810228Y-60277615D01*
X144711242Y-60425759D01*
X144643060Y-60590366D01*
X144643058Y-60590372D01*
X144608300Y-60765112D01*
X144608300Y-60765115D01*
X144608300Y-60943285D01*
X144608300Y-60943287D01*
X144608299Y-60943287D01*
X144643058Y-61118027D01*
X144643060Y-61118033D01*
X144711242Y-61282639D01*
X144810230Y-61430787D01*
X144936212Y-61556769D01*
X144936215Y-61556771D01*
X145084359Y-61655757D01*
X145248967Y-61723940D01*
X145248971Y-61723940D01*
X145248972Y-61723941D01*
X145423712Y-61758700D01*
X145423715Y-61758700D01*
X145601887Y-61758700D01*
X145719449Y-61735314D01*
X145776633Y-61723940D01*
X145941241Y-61655757D01*
X146089385Y-61556771D01*
X146107510Y-61538646D01*
X146168832Y-61505159D01*
X146238524Y-61510142D01*
X146294458Y-61552012D01*
X146298295Y-61557435D01*
X146351450Y-61636987D01*
X146351456Y-61636995D01*
X146497771Y-61783310D01*
X146497775Y-61783313D01*
X146669825Y-61898274D01*
X146669831Y-61898277D01*
X146669832Y-61898278D01*
X146861010Y-61977467D01*
X147063960Y-62017836D01*
X147063964Y-62017837D01*
X147063965Y-62017837D01*
X147270896Y-62017837D01*
X147270897Y-62017836D01*
X147473850Y-61977467D01*
X147665028Y-61898278D01*
X147837085Y-61783313D01*
X148336961Y-61283438D01*
X148451926Y-61111381D01*
X148531114Y-60920203D01*
X148544324Y-60853788D01*
X148571485Y-60717250D01*
X148571485Y-60510315D01*
X148531115Y-60307368D01*
X148531114Y-60307367D01*
X148531114Y-60307363D01*
X148526618Y-60296508D01*
X148451929Y-60116191D01*
X148451922Y-60116178D01*
X148336961Y-59944128D01*
X148336958Y-59944124D01*
X148190642Y-59797808D01*
X148190638Y-59797805D01*
X148018588Y-59682844D01*
X148018575Y-59682837D01*
X147827408Y-59603654D01*
X147827398Y-59603651D01*
X147624451Y-59563282D01*
X147624449Y-59563282D01*
X147417519Y-59563282D01*
X147417517Y-59563282D01*
X147214569Y-59603651D01*
X147214559Y-59603654D01*
X147023392Y-59682837D01*
X147023379Y-59682844D01*
X146851329Y-59797805D01*
X146851325Y-59797808D01*
X146381126Y-60268007D01*
X146373180Y-60272345D01*
X146367755Y-60279593D01*
X146342995Y-60288827D01*
X146319803Y-60301492D01*
X146310773Y-60300846D01*
X146302291Y-60304010D01*
X146276470Y-60298393D01*
X146250111Y-60296508D01*
X146241057Y-60290689D01*
X146234018Y-60289158D01*
X146205764Y-60268007D01*
X146106062Y-60168305D01*
X146072577Y-60106982D01*
X146077561Y-60037290D01*
X146106062Y-59992943D01*
X146450831Y-59648174D01*
X146927367Y-59171639D01*
X146952924Y-59140499D01*
X147008201Y-59057771D01*
X147038885Y-58983692D01*
X147048524Y-58935232D01*
X147058296Y-58886109D01*
X147058296Y-58805921D01*
X147038886Y-58708345D01*
X147038885Y-58708344D01*
X147038885Y-58708340D01*
X147038883Y-58708335D01*
X147008204Y-58634268D01*
X147008197Y-58634255D01*
X146952925Y-58551535D01*
X146927367Y-58520394D01*
X146078838Y-57671865D01*
X146047697Y-57646307D01*
X145964977Y-57591035D01*
X145964964Y-57591028D01*
X145890897Y-57560349D01*
X145890887Y-57560346D01*
X145793311Y-57540937D01*
X145793309Y-57540937D01*
X145713126Y-57540937D01*
X145713124Y-57540937D01*
X145615547Y-57560346D01*
X145615539Y-57560348D01*
X145541468Y-57591029D01*
X145541456Y-57591035D01*
X145458735Y-57646307D01*
X145427594Y-57671865D01*
X144225512Y-58873947D01*
X144199954Y-58905088D01*
X144144682Y-58987809D01*
X144144676Y-58987821D01*
X144113995Y-59061892D01*
X144113993Y-59061900D01*
X144094584Y-59159476D01*
X144094584Y-59159479D01*
X144094584Y-59239662D01*
X144094584Y-59239664D01*
X144094583Y-59239664D01*
X142802826Y-59239664D01*
X146318943Y-55719417D01*
X146380244Y-55685898D01*
X146449938Y-55690842D01*
G37*
%TD.AperFunction*%
%TD*%
%TA.AperFunction,Conductor*%
%TO.N,/CAN_LOW*%
G36*
X160661311Y-60468153D02*
G01*
X160661599Y-60468887D01*
X161216826Y-62037303D01*
X161216357Y-62046245D01*
X161214070Y-62049480D01*
X161047126Y-62216424D01*
X161038853Y-62219851D01*
X161036164Y-62219538D01*
X159710219Y-61906366D01*
X159702955Y-61901129D01*
X159701276Y-61893716D01*
X159817133Y-60826390D01*
X159821433Y-60818537D01*
X159824122Y-60816916D01*
X160645934Y-60462049D01*
X160654886Y-60461916D01*
X160661311Y-60468153D01*
G37*
%TD.AperFunction*%
%TD*%
%TA.AperFunction,Conductor*%
%TO.N,/Current Sense/OUT-*%
G36*
X132539405Y-107161777D02*
G01*
X133018723Y-107410956D01*
X133024483Y-107417812D01*
X133023707Y-107426733D01*
X133023075Y-107427804D01*
X132865615Y-107665134D01*
X132862334Y-107668415D01*
X132625004Y-107825875D01*
X132616216Y-107827594D01*
X132608787Y-107822594D01*
X132608160Y-107821532D01*
X132358977Y-107342206D01*
X132358202Y-107333287D01*
X132361084Y-107328540D01*
X132525739Y-107163885D01*
X132534011Y-107160459D01*
X132539405Y-107161777D01*
G37*
%TD.AperFunction*%
%TD*%
%TA.AperFunction,Conductor*%
%TO.N,/MCU/USART1_RX*%
G36*
X168463333Y-115659692D02*
G01*
X168464400Y-115660321D01*
X168690419Y-115810277D01*
X168701734Y-115817784D01*
X168705015Y-115821065D01*
X168862475Y-116058395D01*
X168864194Y-116067183D01*
X168859194Y-116074612D01*
X168858123Y-116075244D01*
X168378808Y-116324421D01*
X168369887Y-116325197D01*
X168365138Y-116322313D01*
X168200486Y-116157661D01*
X168197059Y-116149388D01*
X168198377Y-116143994D01*
X168447557Y-115664674D01*
X168454412Y-115658916D01*
X168463333Y-115659692D01*
G37*
%TD.AperFunction*%
%TD*%
%TA.AperFunction,Conductor*%
%TO.N,+5V_BUCK*%
G36*
X186398063Y-114482769D02*
G01*
X186562715Y-114647421D01*
X186566142Y-114655694D01*
X186564823Y-114661091D01*
X186315646Y-115140406D01*
X186308789Y-115146166D01*
X186299868Y-115145390D01*
X186298797Y-115144758D01*
X186061467Y-114987298D01*
X186058186Y-114984017D01*
X185900726Y-114746687D01*
X185899007Y-114737899D01*
X185904007Y-114730470D01*
X185905061Y-114729847D01*
X186384395Y-114480660D01*
X186393314Y-114479885D01*
X186398063Y-114482769D01*
G37*
%TD.AperFunction*%
%TD*%
%TA.AperFunction,Conductor*%
%TO.N,/MCU/ADC1_IN16*%
G36*
X141939061Y-114174286D02*
G01*
X142103713Y-114338938D01*
X142107140Y-114347211D01*
X142105821Y-114352608D01*
X141856644Y-114831923D01*
X141849787Y-114837683D01*
X141840866Y-114836907D01*
X141839795Y-114836275D01*
X141602465Y-114678815D01*
X141599184Y-114675534D01*
X141441724Y-114438204D01*
X141440005Y-114429416D01*
X141445005Y-114421987D01*
X141446059Y-114421364D01*
X141925393Y-114172177D01*
X141934312Y-114171402D01*
X141939061Y-114174286D01*
G37*
%TD.AperFunction*%
%TD*%
%TA.AperFunction,Conductor*%
%TO.N,GND*%
G36*
X175454129Y-120177681D02*
G01*
X175969260Y-120340417D01*
X175976117Y-120346177D01*
X175977436Y-120351574D01*
X175977436Y-120584425D01*
X175974009Y-120592698D01*
X175969260Y-120595582D01*
X175454137Y-120758315D01*
X175445216Y-120757539D01*
X175439456Y-120750682D01*
X175439149Y-120749494D01*
X175382669Y-120470318D01*
X175382669Y-120465680D01*
X175405754Y-120351574D01*
X175439146Y-120186518D01*
X175444145Y-120179092D01*
X175452933Y-120177373D01*
X175454129Y-120177681D01*
G37*
%TD.AperFunction*%
%TD*%
%TA.AperFunction,Conductor*%
%TO.N,/MCU/MCU_Boot_GPIO*%
G36*
X160485592Y-121907661D02*
G01*
X160491221Y-121914626D01*
X160491467Y-121915618D01*
X160547992Y-122195018D01*
X160547992Y-122199658D01*
X160491565Y-122478573D01*
X160486565Y-122486002D01*
X160477777Y-122487721D01*
X160476364Y-122487341D01*
X159961193Y-122313882D01*
X159954445Y-122307995D01*
X159953226Y-122302794D01*
X159953226Y-122069946D01*
X159956653Y-122061673D01*
X159961612Y-122058725D01*
X160476688Y-121906716D01*
X160485592Y-121907661D01*
G37*
%TD.AperFunction*%
%TD*%
%TA.AperFunction,Conductor*%
%TO.N,/MCU/MCU_Boot_GPIO*%
G36*
X144337427Y-115996095D02*
G01*
X144338059Y-115997166D01*
X144587236Y-116476481D01*
X144588012Y-116485402D01*
X144585128Y-116490151D01*
X144420476Y-116654803D01*
X144412203Y-116658230D01*
X144406806Y-116656911D01*
X143927491Y-116407734D01*
X143921731Y-116400877D01*
X143922507Y-116391956D01*
X143923131Y-116390897D01*
X144080600Y-116153553D01*
X144083878Y-116150275D01*
X144321211Y-115992813D01*
X144329998Y-115991095D01*
X144337427Y-115996095D01*
G37*
%TD.AperFunction*%
%TD*%
%TA.AperFunction,Conductor*%
%TO.N,/CAN_HIGH*%
G36*
X178808429Y-60467922D02*
G01*
X179630248Y-60822790D01*
X179636485Y-60829215D01*
X179637242Y-60832268D01*
X179753099Y-61899592D01*
X179750585Y-61908187D01*
X179744156Y-61912242D01*
X178418211Y-62225414D01*
X178409372Y-62223980D01*
X178407249Y-62222300D01*
X178240305Y-62055356D01*
X178236878Y-62047083D01*
X178237549Y-62043179D01*
X178285337Y-61908187D01*
X178792775Y-60474763D01*
X178798766Y-60468108D01*
X178807708Y-60467639D01*
X178808429Y-60467922D01*
G37*
%TD.AperFunction*%
%TD*%
%TA.AperFunction,Conductor*%
%TO.N,/MCU/USART1_RX*%
G36*
X148022129Y-121055557D02*
G01*
X148537260Y-121218293D01*
X148544117Y-121224053D01*
X148545436Y-121229450D01*
X148545436Y-121462301D01*
X148542009Y-121470574D01*
X148537260Y-121473458D01*
X148022137Y-121636191D01*
X148013216Y-121635415D01*
X148007456Y-121628558D01*
X148007149Y-121627370D01*
X147950669Y-121348194D01*
X147950669Y-121343556D01*
X147973754Y-121229450D01*
X148007146Y-121064394D01*
X148012145Y-121056968D01*
X148020933Y-121055249D01*
X148022129Y-121055557D01*
G37*
%TD.AperFunction*%
%TD*%
M02*
