M48
; DRILL file {KiCad 9.0.5} date 2026-01-04T16:54:59-0600
; FORMAT={-:-/ absolute / inch / decimal}
; #@! TF.CreationDate,2026-01-04T16:54:59-06:00
; #@! TF.GenerationSoftware,Kicad,Pcbnew,9.0.5
; #@! TF.FileFunction,Plated,1,2,PTH
FMAT,2
INCH
; #@! TA.AperFunction,Plated,PTH,ViaDrill
T1C0.0118
; #@! TA.AperFunction,Plated,PTH,ComponentDrill
T2C0.0236
; #@! TA.AperFunction,Plated,PTH,ComponentDrill
T3C0.0394
; #@! TA.AperFunction,Plated,PTH,ComponentDrill
T4C0.0472
; #@! TA.AperFunction,Plated,PTH,ComponentDrill
T5C0.0630
; #@! TA.AperFunction,Plated,PTH,ComponentDrill
T6C0.1260
; #@! TA.AperFunction,Plated,PTH,ComponentDrill
T7C0.3307
%
G90
G05
T1
X4.9831Y-3.0085
X4.9899Y-3.5818
X4.9944Y-4.0895
X5.0409Y-3.6998
X5.0535Y-2.9382
X5.0899Y-4.7738
X5.1069Y-3.1298
X5.1069Y-3.2778
X5.1239Y-2.8678
X5.1329Y-3.6718
X5.1619Y-4.2374
X5.1807Y-2.7749
X5.1819Y-3.2108
X5.2009Y-3.6728
X5.2255Y-4.1818
X5.2269Y-3.0418
X5.2309Y-4.2388
X5.2429Y-4.0077
X5.2439Y-3.1298
X5.2439Y-3.2778
X5.2896Y-2.702
X5.3579Y-2.9068
X5.36Y-2.6317
X5.4089Y-3.0088
X5.4194Y-3.5768
X5.4406Y-3.1886
X5.4429Y-2.9768
X5.4429Y-3.0468
X5.4499Y-2.5418
X5.4679Y-4.3438
X5.4779Y-3.0088
X5.5139Y-3.7718
X5.5179Y-2.4738
X5.5319Y-2.6177
X5.5389Y-3.8348
X5.5749Y-2.9108
X5.5749Y-4.5148
X5.5799Y-4.8518
X5.5839Y-3.7369
X5.6058Y-2.6177
X5.6238Y-4.6458
X5.6869Y-4.3968
X5.6959Y-4.5628
X5.7215Y-4.7858
X5.7387Y-2.8268
X5.7694Y-4.5623
X5.7764Y-3.4949
X5.7779Y-4.7338
X5.7837Y-2.8272
X5.7899Y-2.5518
X5.8239Y-2.5198
X5.8239Y-2.5898
X5.8247Y-2.8272
X5.8249Y-4.7774
X5.8428Y-3.5449
X5.8428Y-3.5979
X5.8579Y-2.2247
X5.8589Y-2.5518
X5.8749Y-3.9098
X5.9102Y-3.6209
X5.9189Y-4.6918
X5.9386Y-2.6934
X5.9386Y-2.8048
X5.9386Y-2.9161
X5.9386Y-3.0274
X5.9386Y-3.1387
X5.9489Y-2.2247
X5.9489Y-2.3138
X5.9489Y-3.9088
X5.9558Y-3.8049
X5.9599Y-4.3408
X5.9858Y-3.3839
X5.9938Y-3.3349
X6.0169Y-4.3966
X6.0169Y-4.4507
X6.0499Y-4.4238
X6.0589Y-2.8785
X6.0589Y-2.9629
X6.0589Y-3.0474
X6.0589Y-3.1318
X6.0718Y-3.3359
X6.0759Y-2.5055
X6.0759Y-2.5448
X6.0759Y-2.5842
X6.0858Y-3.6139
X6.1152Y-2.5055
X6.1152Y-2.5448
X6.1152Y-2.5842
X6.1546Y-2.5055
X6.1546Y-2.5448
X6.1546Y-2.5842
X6.1587Y-2.8785
X6.1699Y-3.1318
X6.2156Y-3.6653
X6.2156Y-3.7638
X6.2156Y-3.8623
X6.2201Y-4.2641
X6.2259Y-4.3298
X6.2259Y-4.295
X6.2369Y-4.0208
X6.2631Y-4.7096
X6.3208Y-4.8109
X6.3549Y-4.1898
X6.3572Y-4.8125
X6.3589Y-4.0208
X6.3879Y-3.4968
X6.3879Y-3.6149
X6.3879Y-3.7331
X6.3879Y-3.8512
X6.4009Y-2.3318
X6.4189Y-2.4998
X6.4209Y-4.1918
X6.4217Y-4.4006
X6.4489Y-4.2868
X6.4527Y-2.7598
X6.4529Y-2.8328
X6.4559Y-4.4688
X6.4789Y-2.5868
X6.4859Y-2.4998
X6.5279Y-4.1858
X6.5629Y-3.3558
X6.5986Y-3.8371
X6.6409Y-4.5248
X6.6419Y-4.5598
X6.6849Y-4.4718
X6.6919Y-3.1018
X6.7038Y-3.4747
X6.7167Y-2.9956
X6.7189Y-4.4168
X6.7247Y-2.8323
X6.7247Y-2.876
X6.7247Y-2.9193
X6.7487Y-3.4217
X6.7487Y-3.4748
X6.7622Y-4.8449
X6.7747Y-2.8327
X6.7747Y-2.8764
X6.7747Y-2.9197
X6.7797Y-2.9956
X6.7876Y-3.2478
X6.7959Y-4.8118
X6.8034Y-3.1008
X6.8469Y-3.8295
X6.8469Y-3.8688
X6.8469Y-3.9082
X6.8569Y-2.6165
X6.8569Y-2.6558
X6.8569Y-2.6952
X6.8779Y-4.2778
X6.8779Y-4.6678
X6.8862Y-3.8295
X6.8862Y-3.8688
X6.8862Y-3.9082
X6.8962Y-2.6165
X6.8962Y-2.6558
X6.8962Y-2.6952
X6.9049Y-4.7428
X6.9057Y-3.2478
X6.9256Y-3.8295
X6.9256Y-3.8688
X6.9256Y-3.9082
X6.9319Y-4.6038
X6.9319Y-4.6362
X6.9356Y-2.6165
X6.9356Y-2.6558
X6.9356Y-2.6952
X6.9929Y-4.8188
X7.0059Y-2.8198
X7.0239Y-3.2478
X7.0795Y-3.5616
X7.1379Y-3.9708
X7.142Y-3.2478
X7.1976Y-3.5616
X7.2049Y-3.9078
X7.2569Y-4.3318
X7.2569Y-4.3818
X7.2737Y-3.9247
X7.3039Y-4.3318
X7.3039Y-4.3818
X7.3157Y-3.5616
X7.3219Y-3.9168
X7.3252Y-4.527
X7.4009Y-3.8298
X7.4339Y-3.5616
X7.5279Y-3.2914
X7.5279Y-3.4605
X7.5279Y-3.6295
X7.5279Y-3.7986
X7.5279Y-3.9677
X7.5279Y-4.1367
X7.5279Y-4.3058
X7.5279Y-4.4748
T3
X4.9586Y-4.2775
X5.2517Y-5.045
X5.7665Y-3.8514
X6.127Y-4.0434
X6.127Y-4.1434
X6.6537Y-4.1108
X6.7537Y-4.1108
X7.2241Y-5.045
T4
X5.7314Y-2.3237
X5.801Y-2.3933
X5.9564Y-4.9799
X6.0548Y-4.9799
X6.0952Y-2.3945
X6.1532Y-4.9799
X6.1936Y-2.3945
X6.2517Y-4.9799
X6.2921Y-2.3945
X6.3905Y-2.3945
X6.4889Y-2.3945
X6.777Y-2.3947
X6.8754Y-2.3947
X6.9739Y-2.3947
X7.0723Y-2.3947
X7.1707Y-2.3947
T5
X7.304Y-2.7263
X7.304Y-3.1168
X7.4379Y-2.7263
X7.4379Y-3.1168
T6
X4.557Y-2.758
X4.9633Y-3.1747
X4.9633Y-5.0257
X5.342Y-1.973
X7.4453Y-2.3157
X7.4457Y-5.0256
T7
X4.1143Y-3.2007
X5.7847Y-1.5303
T2
G00X6.6033Y-4.8853
M15
G01X6.6033Y-4.9286
M16
G05
G00X6.6033Y-5.0558
M15
G01X6.6033Y-5.0873
M16
G05
G00X6.9435Y-4.8853
M15
G01X6.9435Y-4.9286
M16
G05
G00X6.9435Y-5.0558
M15
G01X6.9435Y-5.0873
M16
G05
M30
