%TF.GenerationSoftware,KiCad,Pcbnew,9.0.5*%
%TF.CreationDate,2026-01-07T01:22:09-06:00*%
%TF.ProjectId,PS-AmperesPCB,50532d41-6d70-4657-9265-735043422e6b,rev?*%
%TF.SameCoordinates,Original*%
%TF.FileFunction,Soldermask,Bot*%
%TF.FilePolarity,Negative*%
%FSLAX46Y46*%
G04 Gerber Fmt 4.6, Leading zero omitted, Abs format (unit mm)*
G04 Created by KiCad (PCBNEW 9.0.5) date 2026-01-07 01:22:09*
%MOMM*%
%LPD*%
G01*
G04 APERTURE LIST*
G04 Aperture macros list*
%AMRoundRect*
0 Rectangle with rounded corners*
0 $1 Rounding radius*
0 $2 $3 $4 $5 $6 $7 $8 $9 X,Y pos of 4 corners*
0 Add a 4 corners polygon primitive as box body*
4,1,4,$2,$3,$4,$5,$6,$7,$8,$9,$2,$3,0*
0 Add four circle primitives for the rounded corners*
1,1,$1+$1,$2,$3*
1,1,$1+$1,$4,$5*
1,1,$1+$1,$6,$7*
1,1,$1+$1,$8,$9*
0 Add four rect primitives between the rounded corners*
20,1,$1+$1,$2,$3,$4,$5,0*
20,1,$1+$1,$4,$5,$6,$7,0*
20,1,$1+$1,$6,$7,$8,$9,0*
20,1,$1+$1,$8,$9,$2,$3,0*%
%AMHorizOval*
0 Thick line with rounded ends*
0 $1 width*
0 $2 $3 position (X,Y) of the first rounded end (center of the circle)*
0 $4 $5 position (X,Y) of the second rounded end (center of the circle)*
0 Add line between two ends*
20,1,$1,$2,$3,$4,$5,0*
0 Add two circle primitives to create the rounded ends*
1,1,$1,$2,$3*
1,1,$1,$4,$5*%
%AMFreePoly0*
4,1,22,0.945671,0.830970,1.026777,0.776777,1.080970,0.695671,1.100000,0.600001,1.100000,-0.600001,1.080970,-0.695671,1.026777,-0.776777,0.945671,-0.830970,0.850000,-0.850000,-0.596447,-0.850000,-0.692118,-0.830970,-0.773224,-0.776777,-1.026777,-0.523224,-1.080970,-0.442118,-1.099999,-0.346447,-1.100000,0.600001,-1.080970,0.695671,-1.026777,0.776777,-0.945671,0.830970,-0.850000,0.850000,
0.850000,0.850000,0.945671,0.830970,0.945671,0.830970,$1*%
G04 Aperture macros list end*
%ADD10C,0.000000*%
%ADD11R,1.700000X1.700000*%
%ADD12C,1.700000*%
%ADD13C,1.300000*%
%ADD14RoundRect,0.250000X-0.600000X0.850000X-0.600000X-0.850000X0.600000X-0.850000X0.600000X0.850000X0*%
%ADD15O,1.700000X2.200000*%
%ADD16RoundRect,0.250000X0.600000X-0.850000X0.600000X0.850000X-0.600000X0.850000X-0.600000X-0.850000X0*%
%ADD17C,3.600000*%
%ADD18C,5.600000*%
%ADD19C,0.650000*%
%ADD20O,1.000000X2.100000*%
%ADD21O,1.000000X1.800000*%
%ADD22C,2.604000*%
%ADD23FreePoly0,45.000000*%
%ADD24HorizOval,1.700000X0.176777X0.176777X-0.176777X-0.176777X0*%
%ADD25C,6.300000*%
%ADD26C,12.600000*%
G04 APERTURE END LIST*
D10*
%TO.C,LOGO1*%
G36*
X140327450Y-115168195D02*
G01*
X140340845Y-116566706D01*
X139004532Y-116566706D01*
X137668220Y-116566705D01*
X137668220Y-116315765D01*
X137668220Y-116064825D01*
X138688756Y-116051182D01*
X139709291Y-116037539D01*
X139734490Y-114903611D01*
X139759688Y-113769682D01*
X140036871Y-113769682D01*
X140314053Y-113769682D01*
X140327450Y-115168195D01*
G37*
G36*
X128885284Y-114895674D02*
G01*
X128885284Y-115601230D01*
X128104133Y-115601230D01*
X127322983Y-115601230D01*
X127322983Y-115853214D01*
X127322983Y-116105198D01*
X128104133Y-116105198D01*
X128885284Y-116105198D01*
X128885284Y-116331984D01*
X128885284Y-116558769D01*
X127877348Y-116558769D01*
X126869411Y-116558769D01*
X126869411Y-115853214D01*
X126869411Y-115147658D01*
X127650562Y-115147658D01*
X128431713Y-115147658D01*
X128431713Y-114895674D01*
X128431713Y-114643690D01*
X127650562Y-114643690D01*
X126869411Y-114643690D01*
X126869411Y-114416904D01*
X126869411Y-114190119D01*
X127877348Y-114190120D01*
X128885284Y-114190119D01*
X128885284Y-114895674D01*
G37*
G36*
X134155294Y-113753811D02*
G01*
X134231503Y-113803215D01*
X134273513Y-113906486D01*
X134293223Y-114079261D01*
X134302533Y-114337180D01*
X134316831Y-114878412D01*
X135400363Y-114878412D01*
X136483895Y-114878412D01*
X136498437Y-114377267D01*
X136504408Y-114240507D01*
X136521233Y-114037949D01*
X136544009Y-113885279D01*
X136569556Y-113807950D01*
X136574921Y-113802126D01*
X136683494Y-113759567D01*
X136882593Y-113754731D01*
X137139053Y-113769682D01*
X137152454Y-115170620D01*
X137165855Y-116571557D01*
X136850073Y-116556532D01*
X136534291Y-116541507D01*
X136520033Y-115973564D01*
X136505773Y-115405622D01*
X135411302Y-115419200D01*
X134316832Y-115432777D01*
X134302581Y-115999742D01*
X134288332Y-116566706D01*
X133961606Y-116566705D01*
X133634880Y-116566706D01*
X133648276Y-115168194D01*
X133661672Y-113769682D01*
X133858456Y-113753576D01*
X134032986Y-113742636D01*
X134155294Y-113753811D01*
G37*
G36*
X132880522Y-115181753D02*
G01*
X132880522Y-116566706D01*
X132552942Y-116566706D01*
X132225363Y-116566706D01*
X132225363Y-116138333D01*
X132225363Y-115709960D01*
X131271481Y-115709960D01*
X130317598Y-115709960D01*
X130213148Y-115842748D01*
X130163386Y-115921058D01*
X130120942Y-116064418D01*
X130108696Y-116271121D01*
X130108696Y-116566706D01*
X129774952Y-116566706D01*
X129441208Y-116566705D01*
X129462846Y-116114135D01*
X129464650Y-116077611D01*
X129479968Y-115860340D01*
X129503054Y-115715481D01*
X129539721Y-115618057D01*
X129595785Y-115543091D01*
X129604996Y-115533278D01*
X129671987Y-115453088D01*
X129672154Y-115400782D01*
X129607913Y-115334866D01*
X129563861Y-115279672D01*
X129493589Y-115119054D01*
X129443096Y-114910511D01*
X129425669Y-114746168D01*
X130083498Y-114746168D01*
X130083877Y-114781204D01*
X130108089Y-114972668D01*
X130173431Y-115090799D01*
X130189934Y-115105603D01*
X130240425Y-115134257D01*
X130319143Y-115155591D01*
X130440603Y-115171110D01*
X130619319Y-115182316D01*
X130869802Y-115190713D01*
X131206565Y-115197804D01*
X131208126Y-115197832D01*
X131506939Y-115201225D01*
X131770720Y-115200467D01*
X131983040Y-115195910D01*
X132127465Y-115187904D01*
X132187566Y-115176805D01*
X132193468Y-115165718D01*
X132209743Y-115074080D01*
X132221096Y-114916359D01*
X132225363Y-114718822D01*
X132225363Y-114298849D01*
X131273406Y-114298849D01*
X131018220Y-114299260D01*
X130746044Y-114301829D01*
X130548496Y-114307953D01*
X130410470Y-114318993D01*
X130316861Y-114336307D01*
X130252564Y-114361252D01*
X130202474Y-114395190D01*
X130131874Y-114469903D01*
X130093493Y-114576835D01*
X130083498Y-114746168D01*
X129425669Y-114746168D01*
X129419503Y-114688020D01*
X129429932Y-114485562D01*
X129458591Y-114325838D01*
X129499012Y-114168800D01*
X129556102Y-114044698D01*
X129640376Y-113949427D01*
X129762350Y-113878884D01*
X129932540Y-113828963D01*
X130161461Y-113795562D01*
X130459629Y-113774575D01*
X130837559Y-113761899D01*
X131305767Y-113753430D01*
X131628895Y-113749586D01*
X131966280Y-113747812D01*
X132262437Y-113748609D01*
X132502479Y-113751855D01*
X132671520Y-113757432D01*
X132754677Y-113765215D01*
X132880522Y-113796801D01*
X132880522Y-114718822D01*
X132880522Y-115181753D01*
G37*
%TD*%
D11*
%TO.C,J4*%
X155624834Y-105242026D03*
D12*
X155624834Y-102702026D03*
%TD*%
D13*
%TO.C,J3*%
X155042405Y-125149182D03*
D14*
X158792405Y-126489183D03*
D15*
X156292405Y-126489183D03*
X153792405Y-126489183D03*
X151292405Y-126489183D03*
%TD*%
D11*
%TO.C,TP9*%
X146468159Y-97825412D03*
%TD*%
%TO.C,TP8*%
X133394129Y-128142735D03*
%TD*%
D13*
%TO.C,J7*%
X158568576Y-62160325D03*
D16*
X154818576Y-60820324D03*
D15*
X157318576Y-60820324D03*
X159818576Y-60820324D03*
X162318576Y-60820324D03*
X164818576Y-60820324D03*
%TD*%
D17*
%TO.C,H1*%
X189110192Y-58817750D03*
D18*
X189110192Y-58817750D03*
%TD*%
D19*
%TO.C,J5*%
X169155035Y-125136865D03*
X174935035Y-125136865D03*
D20*
X167725035Y-124636865D03*
D21*
X167725035Y-128816865D03*
D20*
X176365035Y-124636865D03*
D21*
X176365035Y-128816865D03*
%TD*%
D22*
%TO.C,F2*%
X188921400Y-69247600D03*
X185521400Y-69247600D03*
X188921400Y-79167600D03*
X185521400Y-79167600D03*
%TD*%
D11*
%TO.C,TP15*%
X183491102Y-128142735D03*
%TD*%
D13*
%TO.C,J8*%
X175885800Y-62166201D03*
D16*
X172135800Y-60826200D03*
D15*
X174635800Y-60826200D03*
X177135800Y-60826200D03*
X179635800Y-60826200D03*
X182135800Y-60826200D03*
%TD*%
D11*
%TO.C,JP1*%
X169002800Y-104415200D03*
D12*
X171542800Y-104415200D03*
%TD*%
D11*
%TO.C,TP1*%
X125949083Y-108648912D03*
%TD*%
D17*
%TO.C,H2*%
X126067218Y-80636474D03*
D18*
X126067218Y-80636474D03*
%TD*%
D17*
%TO.C,H3*%
X126067218Y-127652336D03*
D18*
X126067218Y-127652336D03*
%TD*%
D17*
%TO.C,H4*%
X189120467Y-127650141D03*
D18*
X189120467Y-127650141D03*
%TD*%
D13*
%TO.C,J6*%
X145512800Y-60854200D03*
D23*
X145576440Y-59022793D03*
D24*
X147344207Y-60790560D03*
%TD*%
D25*
%TO.C,R39*%
X115747420Y-70054231D03*
X135687831Y-50113820D03*
D26*
X104504422Y-81297229D03*
X146930829Y-38870822D03*
%TD*%
M02*
